<svg xmlns="http://www.w3.org/2000/svg" xmlns:xlink="http://www.w3.org/1999/xlink" aria-hidden="true" role="img" width="1em" height="1em" preserveAspectRatio="xMidYMid meet" viewBox="0 0 24 24"><path d="M6 19h5v4l-2.5-1.5L6 23v-4z" fill="currentColor"/><path d="M20 1h-8v22l2.5-1.5L17 23v-2h3a2 2 0 0 0 2-2V3a2 2 0 0 0-2-2zm-6 4h2v2h-2zm0 5h2v2h-2zm0 5h2v2h-2z" fill="currentColor"/><path d="M4 1a2.006 2.006 0 0 0-2 2v16a2.006 2.006 0 0 0 2 2V3h7V1z" fill="currentColor"/><path d="M6 5h2v2H6z" fill="currentColor"/><path d="M6 10h2v2H6z" fill="currentColor"/><path d="M6 15h2v2H6z" fill="currentColor"/></svg>