<?xml version="1.0" encoding="UTF-8"?>
<svg width="156px" height="150px" viewBox="0 0 984 945" version="1.1" xmlns="http://www.w3.org/2000/svg" xmlns:xlink="http://www.w3.org/1999/xlink">
    <title>Brand illustrations for Tours / Automation technology</title>
    <g id="Cluster-as-a-service" stroke="none" stroke-width="1" fill="none" fill-rule="evenodd">
        <g id="Brand-illustrations-for-Tours-/-Automation-technology" transform="translate(0.058534, 0.000000)">
            <path d="M889.413676,109.571464 C924.203676,126.401464 951.213676,155.651464 967.413676,198.281464 C999.963676,284.111464 982.483676,384.991464 930.663676,458.451464 C905.343676,494.341464 873.563676,523.781464 843.883676,555.541464 C813.033676,588.541464 787.363676,625.831464 761.073676,662.741464 C717.153676,724.421464 666.743676,785.231464 595.543676,812.311464 C517.613676,841.951464 431.433676,827.721464 360.543676,785.381464 C289.123676,742.761464 227.703676,684.711464 156.253676,641.791464 C90.5336764,602.311464 27.4536764,557.161464 7.00367635,476.341464 C-13.9063236,393.691464 14.0036764,311.701464 64.1736764,247.271464 C91.0036764,212.741464 123.003676,187.861464 150.473676,153.811464 C176.633676,121.341464 200.263676,81.1014641 232.883676,55.4214641 C294.173676,7.1914641 369.123676,-11.2585359 444.313676,6.8114641 C513.623676,23.4714641 574.243676,65.1014641 642.433676,85.2114641 C699.803676,102.121464 761.593676,89.0014641 820.613676,92.5614641 C845.823676,94.0714641 869.003676,99.6714641 889.413676,109.571464 Z" id="Path" fill="#FDDBDB" fill-rule="nonzero"></path>
            <path d="M563.803676,864.501464 C563.803676,850.501464 567.353676,836.251464 570.103676,827.991464 L602.803676,834.501464 C602.803676,847.501464 605.883676,857.351464 610.463676,860.101464 C606.406917,867.885289 598.565198,872.971399 589.803676,873.501464 C574.803676,874.501464 563.803676,864.501464 563.803676,864.501464 Z" id="Path" fill="#FAB6B6" fill-rule="nonzero"></path>
            <rect id="Rectangle" fill="#FAB6B6" fill-rule="nonzero" x="50.8636764" y="270.821464" width="269.59" height="151.64"></rect>
            <rect id="Rectangle" fill="#FAB6B6" fill-rule="nonzero" x="350.853676" y="270.821464" width="269.59" height="151.64"></rect>
            <rect id="Rectangle" fill="#FAB6B6" fill-rule="nonzero" x="650.963676" y="270.821464" width="269.59" height="151.64"></rect>
            <rect id="Rectangle" fill="#FAB6B6" fill-rule="nonzero" x="50.8636764" y="89.9814641" width="269.59" height="151.64"></rect>
            <rect id="Rectangle" fill="#FAB6B6" fill-rule="nonzero" x="350.853676" y="89.9814641" width="269.59" height="151.64"></rect>
            <rect id="Rectangle" fill="#FAB6B6" fill-rule="nonzero" x="650.963676" y="89.9814641" width="269.59" height="151.64"></rect>
            <rect id="Rectangle" fill="#FAB6B6" fill-rule="nonzero" x="50.8636764" y="451.661464" width="269.59" height="151.64"></rect>
            <rect id="Rectangle" fill="#FAB6B6" fill-rule="nonzero" x="350.853676" y="451.661464" width="269.59" height="151.64"></rect>
            <rect id="Rectangle" fill="#FAB6B6" fill-rule="nonzero" x="650.963676" y="451.661464" width="269.59" height="151.64"></rect>
            <line x1="20.8036764" y1="660.571464" x2="953.573676" y2="660.571464" id="Path" stroke="#EE0000" stroke-width="3" stroke-linecap="round"></line>
            <rect id="Rectangle" stroke="#000000" stroke-width="4" fill="#FFFFFF" fill-rule="nonzero" x="65.5336764" y="256.141464" width="269.59" height="151.64"></rect>
            <rect id="Rectangle" stroke="#000000" stroke-width="4" fill="#FFFFFF" fill-rule="nonzero" x="365.533676" y="256.141464" width="269.59" height="151.64"></rect>
            <rect id="Rectangle" stroke="#000000" stroke-width="4" fill="#FFFFFF" fill-rule="nonzero" x="665.633676" y="256.141464" width="269.59" height="151.64"></rect>
            <rect id="Rectangle" stroke="#000000" stroke-width="4" fill="#FFFFFF" fill-rule="nonzero" x="65.5336764" y="75.3014641" width="269.59" height="151.64"></rect>
            <rect id="Rectangle" stroke="#000000" stroke-width="4" fill="#FFFFFF" fill-rule="nonzero" x="365.533676" y="75.3014641" width="269.59" height="151.64"></rect>
            <rect id="Rectangle" stroke="#000000" stroke-width="4" fill="#FFFFFF" fill-rule="nonzero" x="665.633676" y="75.3014641" width="269.59" height="151.64"></rect>
            <rect id="Rectangle" stroke="#000000" stroke-width="4" fill="#FFFFFF" fill-rule="nonzero" x="65.5336764" y="436.981464" width="269.59" height="151.64"></rect>
            <rect id="Rectangle" stroke="#000000" stroke-width="4" fill="#FFFFFF" fill-rule="nonzero" x="365.533676" y="436.981464" width="269.59" height="151.64"></rect>
            <rect id="Rectangle" stroke="#000000" stroke-width="4" fill="#FFFFFF" fill-rule="nonzero" x="665.633676" y="436.981464" width="269.59" height="151.64"></rect>
            <rect id="Rectangle" fill="#FFFFFF" fill-rule="nonzero" x="76.5436764" y="267.151464" width="247.57" height="129.62"></rect>
            <rect id="Rectangle" fill="#FFFFFF" fill-rule="nonzero" x="76.5436764" y="267.151464" width="247.57" height="129.62"></rect>
            <rect id="Rectangle" fill="#FFFFFF" fill-rule="nonzero" x="376.543676" y="267.151464" width="247.57" height="129.62"></rect>
            <rect id="Rectangle" fill="#FFFFFF" fill-rule="nonzero" x="376.543676" y="267.151464" width="247.57" height="129.62"></rect>
            <rect id="Rectangle" fill="#FFFFFF" fill-rule="nonzero" x="676.643676" y="267.151464" width="247.57" height="129.62"></rect>
            <rect id="Rectangle" fill="#FFFFFF" fill-rule="nonzero" x="676.643676" y="267.151464" width="247.57" height="129.62"></rect>
            <rect id="Rectangle" fill="#FFFFFF" fill-rule="nonzero" x="76.5436764" y="86.3114641" width="247.57" height="129.62"></rect>
            <rect id="Rectangle" fill="#FFFFFF" fill-rule="nonzero" x="76.5436764" y="86.3114641" width="247.57" height="129.62"></rect>
            <rect id="Rectangle" fill="#FFFFFF" fill-rule="nonzero" x="376.543676" y="86.3114641" width="247.57" height="129.62"></rect>
            <rect id="Rectangle" fill="#FFFFFF" fill-rule="nonzero" x="376.543676" y="86.3114641" width="247.57" height="129.62"></rect>
            <rect id="Rectangle" fill="#FFFFFF" fill-rule="nonzero" x="676.643676" y="86.3114641" width="247.57" height="129.62"></rect>
            <rect id="Rectangle" fill="#FFFFFF" fill-rule="nonzero" x="676.643676" y="86.3114641" width="247.57" height="129.62"></rect>
            <rect id="Rectangle" fill="#FFFFFF" fill-rule="nonzero" x="76.5436764" y="447.991464" width="247.57" height="129.63"></rect>
            <rect id="Rectangle" fill="#FFFFFF" fill-rule="nonzero" x="76.5436764" y="447.991464" width="247.57" height="129.63"></rect>
            <rect id="Rectangle" fill="#FFFFFF" fill-rule="nonzero" x="376.543676" y="447.991464" width="247.57" height="129.63"></rect>
            <rect id="Rectangle" fill="#FFFFFF" fill-rule="nonzero" x="376.543676" y="447.991464" width="247.57" height="129.63"></rect>
            <rect id="Rectangle" fill="#FFFFFF" fill-rule="nonzero" x="676.643676" y="447.991464" width="247.57" height="129.63"></rect>
            <rect id="Rectangle" fill="#FFFFFF" fill-rule="nonzero" x="676.643676" y="447.991464" width="247.57" height="129.63"></rect>
            <g id="Group" transform="translate(136.633676, 120.711461)" stroke="#EE0000" stroke-width="3">
                <path d="M665.57,467.920003 L665.57,399.040003 C665.570001,394.903545 663.926115,390.936651 661.00026,388.012671 C658.074404,385.088692 654.106457,383.44735 649.97,383.450003 L392.19,383.450003 C383.574358,383.450003 376.59,376.465645 376.59,367.850003 L376.59,226.570003 C376.589999,222.433545 378.233885,218.466651 381.15974,215.542671 C384.085596,212.618692 388.053543,210.97735 392.19,210.980003 L705.02,210.980003 C713.631737,210.974483 720.61,203.991742 720.61,195.380003 L720.61,67.8600032 C720.598964,59.2576955 713.622315,52.2899961 705.02,52.2900032 L681.17,52.2900032 C677.031809,52.2926585 673.062345,50.6499444 670.136202,47.7238011 C667.210059,44.7976579 665.567345,40.8281939 665.57,36.6900032 L665.57,15.5900032 C665.570001,11.4535449 663.926115,7.48665122 661.00026,4.56267145 C658.074404,1.63869168 654.106457,-1.42108547e-14 649.97,-1.42108547e-14 L379.37,-1.42108547e-14 C370.759881,-1.42108547e-14 363.78,6.97988396 363.78,15.5900032 L363.78,15.5900032 C363.782655,19.7281939 362.139941,23.6976579 359.213798,26.6238011 C356.287655,29.5499444 352.318191,31.1926585 348.18,31.1900032 L66.51,31.1900032 C57.8998808,31.1900032 50.92,38.169884 50.92,46.7800032 L50.92,195.840003 C50.9200283,204.434526 43.9644941,211.407952 35.37,211.430003 L15.6,211.430003 C6.9843579,211.430003 2.84217094e-14,218.414361 2.84217094e-14,227.030003 L2.84217094e-14,376.570003 C2.84217094e-14,380.706461 1.64388493,384.673355 4.56974025,387.597335 C7.49559556,390.521315 11.4635426,392.162656 15.6,392.160003 L198.16,392.160003" id="Path"></path>
                <circle id="Oval" cx="17.89" cy="229.320003" r="8.72"></circle>
                <circle id="Oval" cx="17.89" cy="374.270003" r="8.72"></circle>
                <circle id="Oval" cx="394.94" cy="365.100003" r="8.72"></circle>
                <circle id="Oval" cx="394.94" cy="228.410003" r="8.72"></circle>
                <circle id="Oval" cx="702.27" cy="192.630003" r="8.72"></circle>
                <circle id="Oval" cx="702.27" cy="70.6200032" r="8.72"></circle>
                <circle id="Oval" cx="683.92" cy="33.9200032" r="8.72"></circle>
                <circle id="Oval" cx="647.22" cy="18.3200032" r="8.72"></circle>
                <circle id="Oval" cx="382.1" cy="18.3200032" r="8.72"></circle>
                <circle id="Oval" cx="345.4" cy="12.8200032" r="8.72"></circle>
                <circle id="Oval" cx="69.27" cy="49.5200032" r="8.72"></circle>
                <circle id="Oval" cx="647.22" cy="401.790003" r="8.72"></circle>
                <circle id="Oval" cx="32.57" cy="193.550003" r="8.72"></circle>
            </g>
            <path d="M144.433676,657.361464 C144.433676,657.361464 172.003676,629.841464 222.003676,629.841464 C272.003676,629.841464 299.553676,657.361464 299.553676,657.361464" id="Path" stroke="#000000" stroke-width="3" stroke-linecap="round"></path>
            <path d="M245.803676,630.331464 L245.803676,588.161464 L199.933676,588.161464 L199.933676,630.331464 C199.933676,630.331464 210.023676,629.491464 221.933676,629.491464 C233.843676,629.491464 245.803676,630.331464 245.803676,630.331464 Z" id="Path" fill="#000000" fill-rule="nonzero"></path>
            <path d="M422.863676,657.821464 C422.863676,657.821464 450.443676,630.301464 500.413676,630.301464 C550.383676,630.301464 578.003676,657.821464 578.003676,657.821464" id="Path" stroke="#EE0000" stroke-width="4.59" stroke-linecap="round"></path>
            <path d="M524.233676,630.761464 L524.233676,588.581464 L478.363676,588.581464 L478.363676,630.761464 C478.363676,630.761464 488.453676,629.911464 500.363676,629.911464 C512.273676,629.911464 524.233676,630.761464 524.233676,630.761464 Z" id="Path" fill="#000000" fill-rule="nonzero"></path>
            <path d="M722.853676,657.821464 C722.853676,657.821464 750.433676,630.301464 800.393676,630.301464 C850.353676,630.301464 877.943676,657.821464 877.943676,657.821464" id="Path" stroke="#000000" stroke-width="3" stroke-linecap="round"></path>
            <path d="M824.223676,630.761464 L824.223676,588.581464 L778.353676,588.581464 L778.353676,630.761464 C778.353676,630.761464 788.443676,629.911464 800.353676,629.911464 C812.263676,629.911464 824.223676,630.761464 824.223676,630.761464 Z" id="Path" fill="#000000" fill-rule="nonzero"></path>
            <path d="M436.233676,770.211464 C431.873676,770.211464 407.963676,768.071464 364.933676,725.901464 C288.933676,651.461464 278.343676,567.801464 282.293676,552.001464 C283.753676,546.171464 289.293676,540.781464 295.643676,534.541464 C306.003676,524.441464 318.703676,512.001464 318.463676,493.751464 C307.693676,488.421464 300.463676,477.981464 298.593676,469.141464 C295.197079,468.880362 292.258088,466.678068 291.053676,463.491464 L290.493676,462.081464 L290.973676,460.651464 C292.241995,456.685109 292.958712,452.563145 293.103676,448.401464 C289.495206,448.14254 286.437987,445.645545 285.463676,442.161464 L284.463676,439.161464 L287.093676,437.411464 C289.638617,435.429589 291.295933,432.521198 291.703676,429.321464 C291.703676,429.041464 291.773676,428.551464 291.823676,427.891464 C292.103676,423.961464 292.763676,414.741464 295.723676,406.411464 C300.473676,392.991464 308.443676,389.461464 314.723676,389.041464 C319.723676,382.431464 326.173676,379.041464 333.823676,379.041464 C339.533676,379.041464 344.823676,380.841464 349.583676,382.421464 C352.583676,383.421464 355.473676,384.421464 357.233676,384.421464 C361.173676,384.421464 364.613676,384.141464 367.643676,383.891464 C370.133676,383.691464 372.473676,383.501464 374.643676,383.501464 C378.883676,383.501464 382.223676,386.501464 386.093676,390.021464 C391.933676,395.291464 399.193676,401.851464 412.253676,401.851464 L415.363676,401.851464 L416.223676,404.851464 C416.883037,407.200696 416.724359,409.704277 415.773676,411.951464 L418.703676,411.951464 L418.193676,416.531464 C417.733676,420.661464 414.753676,428.461464 406.743676,428.461464 C405.023676,428.461464 403.403676,428.461464 401.953676,428.521464 C404.143676,436.781464 404.413676,439.441464 404.453676,440.521464 L413.883676,442.361464 L413.623676,447.151464 C413.563676,448.241464 412.973676,456.791464 409.323676,463.501464 C410.094626,464.440399 410.703026,465.501721 411.123676,466.641464 C411.980927,468.933175 411.651612,471.500331 410.243676,473.501464 C409.643432,474.319635 408.876579,475.001282 407.993676,475.501464 C408.85318,476.754959 409.886901,477.879594 411.063676,478.841464 L412.713676,480.071464 L412.713676,482.141464 C412.708398,485.304109 411.19691,488.275091 408.643676,490.141464 C408.90415,491.120364 409.038571,492.128515 409.043676,493.141464 C409.043676,496.391464 406.913676,498.911464 405.513676,500.571464 L405.513676,500.621464 C405.843676,506.041464 404.513676,510.461464 401.513676,513.771464 C398.203676,517.431464 393.183676,519.281464 386.593676,519.281464 C382.540493,519.386899 378.553155,518.241674 375.173676,516.001464 C374.625206,522.625895 374.6018,529.283341 375.103676,535.911464 C391.843676,541.291464 404.203676,547.141464 412.823676,553.771464 C419.273676,558.771464 423.433676,564.231464 428.823676,572.641464 C434.613676,581.641464 441.183676,591.831464 449.293676,598.591464 L452.023676,600.861464 L451.073676,604.291464 L450.843676,605.051464 C458.723676,613.051464 475.113676,628.501464 489.723676,634.931464 C493.463676,636.581464 497.343676,638.111464 501.263676,639.491464 L548.413676,609.371464 L570.763676,534.281464 C571.436607,531.941033 573.568508,530.321764 576.003676,530.301464 L576.493676,530.301464 L671.863676,537.641464 C673.512165,537.76606 675.01674,538.626877 675.959567,539.98486 C676.902395,541.342842 677.183081,543.053388 676.723676,544.641464 L650.003676,636.001464 L649.863676,636.251464 C649.786856,636.423069 649.700041,636.590022 649.603676,636.751464 C649.487766,636.95709 649.35744,637.15425 649.213676,637.341464 C649.014963,637.597061 648.794108,637.834647 648.553676,638.051464 L648.303676,638.301464 L573.603676,688.111464 C572.699519,688.711214 571.638665,689.03121 570.553676,689.031464 C569.948671,689.030382 569.347738,688.932477 568.773676,688.741464 L546.693676,681.211464 C532.674193,685.230103 518.157705,687.250022 503.573676,687.211464 C495.527182,687.257491 487.493457,686.564582 479.573676,685.141464 C482.573676,701.971464 477.173676,721.081464 463.813676,740.891464 C456.774932,751.263045 448.54181,760.771579 439.283676,769.221464 L438.283676,770.091464 L436.893676,770.231464 C436.893676,770.231464 436.713676,770.211464 436.233676,770.211464 Z" id="Path" fill="#FFFFFF" fill-rule="nonzero"></path>
            <path d="M333.853676,383.211464 C342.853676,383.211464 351.733676,388.561464 357.263676,388.561464 C364.603676,388.561464 370.113676,387.651464 374.703676,387.651464 C382.033676,387.651464 389.373676,405.991464 412.313676,405.991464 C412.313676,405.991464 414.143676,412.421464 407.723676,412.421464 C409.039906,414.718401 411.496526,416.122731 414.143676,416.091464 C414.143676,416.091464 413.233676,424.341464 406.803676,424.341464 C402.723676,424.341464 399.383676,424.341464 396.803676,425.051464 C398.153676,429.871464 400.403676,438.291464 400.403676,440.861464 C400.390711,441.868748 400.286958,442.872813 400.093676,443.861464 L409.643676,445.731464 L409.573676,446.931464 C409.573676,447.481464 408.903676,457.931464 404.283676,463.831464 C405.496079,465.036806 406.508764,466.427561 407.283676,467.951464 C408.203676,470.701464 406.373676,472.541464 403.613676,472.541464 L402.663676,474.701464 C403.563676,476.321464 405.843676,480.051464 408.663676,482.171464 C408.663676,482.171464 408.663676,487.671464 403.153676,487.671464 C404.224414,489.322344 404.857601,491.218465 404.993676,493.181464 C404.993676,495.931464 401.323676,498.681464 401.323676,499.601464 C401.323676,500.521464 404.073676,515.191464 386.643676,515.191464 C378.983676,515.191464 374.693676,511.121464 372.283676,506.191464 C370.933676,512.791464 369.883676,528.191464 371.283676,538.991464 C385.533676,543.411464 400.213676,549.251464 410.283676,556.991464 C416.073676,561.451464 419.923676,566.391464 425.363676,574.831464 C431.313676,584.071464 438.063676,594.551464 446.653676,601.711464 L447.343676,602.281464 L447.103676,603.131464 C447.103676,603.201464 446.773676,604.281464 446.103676,606.071464 C454.103676,614.381464 471.863676,631.541464 488.043676,638.661464 C492.773676,640.741464 497.373676,642.501464 501.783676,644.001464 L552.003676,612.001464 L574.783676,535.431464 C574.946514,534.850405 575.470368,534.444316 576.073676,534.431464 L576.213676,534.431464 L671.623676,541.771464 C672.036053,541.806027 672.411153,542.023826 672.645595,542.364833 C672.880037,542.70584 672.949073,543.134057 672.833676,543.531464 L646.233676,634.351464 C646.233676,634.351464 646.233676,634.351464 646.233676,634.421464 C646.203833,634.503016 646.163493,634.580333 646.113676,634.651464 L646.033676,634.801464 L645.853676,634.981464 L645.733676,635.091464 L645.733676,635.091464 L571.423676,684.631464 C571.198347,684.780932 570.934072,684.86091 570.663676,684.861464 C570.510874,684.862669 570.358892,684.839027 570.213676,684.791464 L546.873676,676.791464 C534.373676,680.791464 518.753676,682.981464 503.683676,682.981464 C494.637742,683.06827 485.61082,682.135723 476.773676,680.201464 C475.900343,680.001464 475.010343,679.771464 474.103676,679.511464 C487.773676,721.431464 436.723676,766.011464 436.723676,766.011464 L436.333676,766.011464 C433.133676,766.011464 410.333676,764.441464 367.913676,722.881464 C293.383676,650.001464 282.633676,567.681464 286.303676,553.001464 C289.663676,539.541464 324.933676,524.001464 322.473676,491.001464 C309.743676,485.891464 302.223676,472.691464 302.223676,464.681464 C301.42514,464.918615 300.596682,465.039853 299.763676,465.041464 C297.631528,465.18511 295.653937,463.924801 294.883676,461.931464 C294.883676,461.931464 298.553676,450.931464 296.723676,443.581464 C295.782426,444.01725 294.760736,444.252239 293.723676,444.271464 C292.113676,444.271464 290.283676,443.581464 289.363676,440.831464 C292.897351,438.178671 295.211902,434.21293 295.783676,429.831464 C296.233676,426.231464 296.693676,393.121464 316.083676,393.111464 L316.883676,393.111464 C321.973676,385.481464 327.883676,383.171464 333.883676,383.171464 M333.883676,374.921464 C325.433676,374.921464 318.303676,378.331464 312.643676,385.081464 C300.163676,386.871464 294.313676,398.081464 291.863676,405.001464 C288.723676,413.861464 288.023676,423.471464 287.733676,427.571464 C287.733676,428.121464 287.663676,428.571464 287.633676,428.811464 C287.355884,430.837747 286.328203,432.686146 284.753676,433.991464 L279.153676,437.351464 L281.573676,443.431464 C282.687143,447.051019 285.323562,450.005123 288.793676,451.521464 C288.458008,454.168234 287.882303,456.778988 287.073676,459.321464 L286.133676,462.181464 L287.253676,464.981464 C288.626709,468.603282 291.569377,471.406173 295.253676,472.601464 C296.52914,476.549462 298.400768,480.279227 300.803676,483.661464 C304.341657,488.745485 308.93223,493.008647 314.263676,496.161464 C313.403676,511.321464 302.473676,522.011464 292.733676,531.551464 C285.923676,538.271464 280.003676,544.001464 278.293676,551.001464 C275.643676,561.601464 278.823676,588.341464 290.013676,619.001464 C300.243676,646.951464 321.013676,688.701464 362.013676,728.891464 C405.073676,771.101464 429.683676,774.381464 436.203676,774.381464 C436.693676,774.381464 437.043676,774.381464 437.203676,774.381464 L439.923676,774.161464 L441.973676,772.371464 C443.973676,770.591464 487.533676,732.031464 484.353676,690.141464 C490.700994,690.993727 497.099452,691.40804 503.503676,691.381464 C518.031692,691.40702 532.496324,689.466068 546.503676,685.611464 L567.333676,692.701464 C568.333858,693.047931 569.385188,693.223716 570.443676,693.221464 C572.344997,693.223338 574.203874,692.659408 575.783676,691.601464 L650.213676,642.001464 L650.943676,641.521464 L651.353676,641.091464 L651.443676,641.011464 C651.838883,640.645215 652.203434,640.247218 652.533676,639.821464 C652.785563,639.479397 653.016005,639.122045 653.223676,638.751464 C653.405794,638.427668 653.56939,638.093798 653.713676,637.751464 C653.875433,637.391221 654.012418,637.02036 654.123676,636.641464 L680.723676,545.841464 C681.540646,543.052418 681.05436,540.043591 679.400403,537.653896 C677.746447,535.264201 675.101741,533.749259 672.203676,533.531464 L576.853676,526.201464 C576.580554,526.186267 576.306798,526.186267 576.033676,526.201464 C571.786716,526.228622 568.054561,529.023682 566.833676,533.091464 L544.923676,606.711464 L500.783676,634.911464 C497.603676,633.751464 494.463676,632.481464 491.413676,631.141464 C478.413676,625.411464 463.673676,611.961464 455.503676,603.841464 L456.743676,599.391464 L452.643676,595.971464 L451.963676,595.401464 C444.343676,589.051464 437.963676,579.141464 432.323676,570.401464 C426.683676,561.661464 422.273676,555.831464 415.323676,550.501464 C406.793676,543.931464 394.883676,538.141464 379.003676,532.851464 C378.813676,529.461464 378.813676,525.851464 378.933676,522.341464 C381.422489,523.100219 384.011825,523.47783 386.613676,523.461464 C394.413676,523.461464 400.463676,521.151464 404.613676,516.581464 C407.043676,513.891464 409.743676,509.281464 409.713676,502.091464 C411.871031,499.614267 413.116583,496.473922 413.243676,493.191464 C413.243676,492.711464 413.243676,492.241464 413.173676,491.781464 C414.046846,490.837101 414.7809,489.77306 415.353676,488.621464 C416.340328,486.615417 416.872949,484.416648 416.913676,482.181464 L416.913676,478.001464 L413.803676,475.671464 C415.858113,472.617373 416.344071,468.770514 415.113676,465.301464 C414.848558,464.555001 414.513748,463.835158 414.113676,463.151464 C416.203625,458.124402 417.443844,452.78504 417.783676,447.351464 L417.843676,446.141464 L418.243676,438.961464 L411.183676,437.581464 L408.183676,437.001464 C407.983676,435.891464 407.693676,434.451464 407.253676,432.581464 C412.833676,432.411464 417.543676,429.271464 420.253676,423.901464 C421.321087,421.727715 422.023795,419.393239 422.333676,416.991464 L423.333676,407.821464 L420.803676,407.821464 C420.799668,406.436678 420.61477,405.058349 420.253676,403.721464 L418.543676,397.721464 L412.313676,397.721464 C400.843676,397.721464 394.513676,392.001464 388.923676,386.951464 C384.793676,383.231464 380.523676,379.371464 374.703676,379.371464 C372.343676,379.371464 369.913676,379.571464 367.343676,379.781464 C364.343676,380.021464 361.033676,380.291464 357.263676,380.291464 C356.183676,380.291464 353.143676,379.291464 350.923676,378.521464 C346.163676,377.001464 340.243676,375.001464 333.853676,375.001464 L333.883676,374.921464 Z" id="Shape" fill="#FFFFFF" fill-rule="nonzero"></path>
            <path d="M286.303676,553.001464 C300.303676,523.001464 330.203676,521.131464 321.033676,481.681464 C321.033676,481.681464 282.963676,417.921464 324.243676,402.331464 C379.413676,381.481464 395.803676,421.591464 395.803676,421.591464 C395.803676,421.591464 400.383676,437.191464 400.383676,440.861464 C400.383676,444.531464 398.553676,448.191464 398.553676,458.291464 L403.313676,462.791464 C403.313676,462.791464 406.683676,466.181464 407.263676,467.921464 C408.183676,470.671464 406.353676,472.511464 403.593676,472.511464 L398.593676,483.971464 C396.753676,489.481464 375.653676,499.571464 373.823676,501.401464 C372.313676,502.911464 368.953676,521.751464 371.353676,537.081464 C371.353676,537.081464 377.353676,558.001464 376.353676,572.001464 C375.353676,586.001464 286.303676,553.001464 286.303676,553.001464 Z" id="Path" fill="#FAB6B6" fill-rule="nonzero"></path>
            <path d="M403.313676,462.791464 C403.313676,462.791464 406.683676,466.181464 407.263676,467.921464 C408.183676,470.671464 406.353676,472.511464 403.593676,472.511464" id="Path" stroke="#FDDBDB" stroke-width="3" stroke-linecap="round"></path>
            <path d="M395.803676,421.591464 C395.803676,421.591464 400.383676,437.191464 400.383676,440.861464 C400.383676,444.531464 398.553676,448.191464 398.553676,458.291464" id="Path" stroke="#FDDBDB" stroke-width="3" stroke-linecap="round"></path>
            <path d="M305.303676,528.001464 C298.253676,537.551464 287.963676,546.361464 286.303676,553.001464 C282.633676,567.681464 293.383676,650.001464 367.813676,723.001464 C413.683676,768.001464 436.623676,766.121464 436.623676,766.121464 C436.623676,766.121464 494.413676,715.661464 470.563676,671.631464 L443.503676,626.171464 L438.003676,619.751464 C438.003676,619.751464 445.333676,608.751464 445.793676,602.751464 C429.283676,588.981464 419.893676,564.491464 408.183676,555.041464 C394.003676,543.601464 371.303676,539.001464 371.313676,539.081464 C315.303676,525.001464 305.303676,528.001464 305.303676,528.001464 Z" id="Path" fill="#FFFFFF" fill-rule="nonzero"></path>
            <path d="M424.303676,636.001464 C392.303676,602.001464 380.303676,578.001464 365.303676,572.001464 C341.503676,562.481464 305.303676,558.001464 283.693676,562.701464 C283.693676,562.701464 286.573676,623.031464 329.933676,681.011464 C373.293676,738.991464 423.303676,761.011464 423.303676,761.011464 C423.303676,761.011464 483.303676,744.011464 476.303676,688.011464 L408.303676,644.011464 C414.335828,643.056611 419.924757,640.258653 424.303676,636.001464 L424.303676,636.001464 Z" id="Path" fill="#FDDBDB" fill-rule="nonzero"></path>
            <path d="M554.503676,892.211464 C517.813676,899.551464 510.503676,915.151464 557.263676,911.481464 C604.023676,907.811464 651.753676,882.121464 647.163676,878.481464 L554.503676,892.211464 Z" id="Path" fill="#EE0000" fill-rule="nonzero"></path>
            <path d="M467.183676,649.121464 L467.893676,645.541464 C470.033676,634.831464 474.563676,616.291464 480.823676,612.541464 C485.033676,610.011464 501.963676,607.191464 518.323676,607.191464 C531.533676,607.191464 542.933676,608.871464 552.223676,612.191464 L555.553676,613.381464 L543.923676,674.701464 L467.183676,649.121464 Z" id="Path" fill="#000000" fill-rule="nonzero"></path>
            <path d="M518.323676,611.321464 C529.213676,611.321464 540.913676,612.531464 550.833676,616.081464 L540.743676,669.291464 L471.943676,646.351464 C473.773676,637.181464 478.363676,618.831464 482.943676,616.081464 C485.753676,614.391464 501.013676,611.321464 518.313676,611.321464 M518.313676,603.061464 L518.313676,603.061464 C502.203676,603.061464 484.053676,605.781464 478.693676,609.001464 C474.693676,611.401464 471.693676,616.571464 468.543676,626.281464 C466.655964,632.345957 465.083855,638.504218 463.833676,644.731464 L462.403676,651.881464 L469.323676,654.181464 L538.123676,677.121464 L547.123676,680.121464 L548.883676,670.831464 L558.983676,617.631464 L560.293676,610.691464 L553.643676,608.311464 C543.903676,604.831464 532.033676,603.071464 518.353676,603.071464 L518.313676,603.061464 Z" id="Shape" fill="#FFFFFF" fill-rule="nonzero"></path>
            <ellipse id="Oval" fill="#FDDBDB" fill-rule="nonzero" cx="504.153676" cy="909.251464" rx="220.01" ry="35.26"></ellipse>
            <path d="M520.443676,908.281485 C519.820499,908.279236 519.203231,908.16053 518.623676,907.931464 L455.563676,883.171464 L396.733676,907.891464 C396.123359,908.150715 395.466771,908.283393 394.803676,908.281485 L392.723676,908.281485 C390.410799,908.25844 388.415608,906.652048 387.899505,904.397371 C387.383403,902.142694 388.481121,899.828326 390.553676,898.801464 L455.553676,867.501464 L522.553676,898.771464 C524.651911,899.775492 525.780619,902.093858 525.276779,904.364718 C524.772939,906.635578 522.769651,908.259043 520.443676,908.281485 L520.443676,908.281485 Z" id="Path" fill="#000000" fill-rule="nonzero"></path>
            <path d="M455.543676,869.161464 L521.923676,900.161464 C523.403918,900.85539 524.204095,902.483856 523.848944,904.079636 C523.493793,905.675417 522.0785,906.810816 520.443676,906.811464 L520.443676,906.811464 C520.009479,906.807224 519.579478,906.725965 519.173676,906.571464 L455.543676,881.571464 L396.153676,906.571464 C395.726613,906.753129 395.267762,906.848298 394.803676,906.851464 L392.723676,906.851464 C391.09977,906.845291 389.6947,905.719872 389.334083,904.1365 C388.973466,902.553128 389.752603,900.93025 391.213676,900.221464 L455.543676,869.221464 M455.543676,865.901464 L454.263676,866.521464 L389.923676,897.521464 C387.203662,898.840003 385.754073,901.861777 386.428006,904.808442 C387.101939,907.755108 389.72093,909.846355 392.743676,909.851481 L394.823676,909.851481 C395.686271,909.853437 396.540252,909.679919 397.333676,909.341464 L455.603676,884.861464 L518.093676,909.401464 C521.346563,910.641024 524.998092,909.093466 526.369673,905.894005 C527.741253,902.694545 526.344355,898.98277 523.203676,897.481464 L456.833676,866.481464 L455.543676,865.881464 L455.543676,865.901464 Z" id="Shape" fill="#FFFFFF" fill-rule="nonzero"></path>
            <line x1="456.343676" y1="778.001464" x2="456.343676" y2="878.251464" id="Path" stroke="#000000" stroke-width="9.17"></line>
            <path d="M469.653676,677.081464 C487.993676,684.421464 471.483676,788.081464 400.843676,758.731464 C400.843676,758.731464 409.733676,777.541464 481.893676,777.541464 C554.053676,777.541464 639.363676,697.271464 652.213676,681.671464 C665.063676,666.071464 656.793676,643.141464 636.613676,636.721464 C616.433676,630.301464 469.653676,677.081464 469.653676,677.081464 Z" id="Path" fill="#000000" fill-rule="nonzero"></path>
            <path d="M640.743676,638.091464 C640.743676,638.091464 649.913676,639.931464 662.743676,636.261464 C673.893676,633.071464 699.433676,620.661464 709.523676,620.661464 C719.613676,620.661464 722.373676,630.761464 722.373676,630.761464 C722.373676,630.761464 628.443676,693.461464 619.903676,683.671464 C611.363676,673.881464 607.693676,661.031464 616.903676,655.531464 C626.113676,650.031464 633.423676,647.321464 640.743676,638.091464 Z" id="Path" stroke="#EE0000" stroke-width="3" fill="#EE0000" fill-rule="nonzero" stroke-linecap="round"></path>
            <path d="M621.003676,683.511464 C612.473676,673.711464 604.493676,661.511464 613.673676,655.981464 C622.853676,650.451464 634.323676,646.401464 641.673676,637.181464" id="Path" stroke="#FFFFFF" stroke-width="3" stroke-linecap="round" stroke-linejoin="round"></path>
            <path d="M615.513676,835.791464 C615.513676,787.171464 643.033676,711.941464 658.363676,667.931464 L586.153676,701.851464 C586.153676,701.851464 560.473676,754.141464 560.473676,831.211464 C560.473676,831.211464 570.563676,842.211464 591.663676,842.211464 C612.763676,842.211464 615.513676,835.791464 615.513676,835.791464 Z" id="Path" fill="#000000" fill-rule="nonzero"></path>
            <polygon id="Path" stroke="#EE0000" stroke-width="3" fill="#EE0000" fill-rule="nonzero" stroke-linecap="round" stroke-linejoin="round" points="553.133676 616.541464 487.083676 658.741464 570.563676 687.171464 647.163676 636.261464 673.763676 545.441464 671.013676 543.601464 645.333676 634.421464 571.023676 683.051464"></polygon>
            <polygon id="Path" stroke="#EE0000" stroke-width="3" fill="#000000" fill-rule="nonzero" stroke-linecap="round" stroke-linejoin="round" points="570.563676 683.511464 644.873676 633.971464 553.133676 612.871464 487.083676 655.071464"></polygon>
            <path d="M488.453676,636.261464 C499.453676,636.261464 522.403676,618.831464 526.983676,618.831464 C531.563676,618.831464 544.413676,624.331464 548.983676,624.331464 L556.323676,634.431464 L536.323676,642.001464 C536.323676,642.001464 517.603676,658.211464 499.323676,663.001464 C489.393676,665.601464 477.483676,661.471464 473.613676,657.271464 C462.613676,645.341464 471.043676,635.341464 471.043676,635.341464 L488.453676,636.261464 Z" id="Path" fill="#FAB6B6" fill-rule="nonzero"></path>
            <polygon id="Path" stroke="#EE0000" stroke-width="3" fill="#000000" fill-rule="nonzero" stroke-linecap="round" stroke-linejoin="round" points="671.473676 543.141464 644.873676 633.971464 553.133676 612.871464 576.063676 535.811464"></polygon>
            <polygon id="Path" fill="#FFFFFF" fill-rule="nonzero" points="561.803676 607.571464 580.983676 543.111464 662.433676 549.381464 640.103676 625.581464"></polygon>
            <polyline id="Path" stroke="#EE0000" stroke-width="3" stroke-linecap="round" points="636.383676 606.911464 573.743676 595.261464 585.903676 555.261464"></polyline>
            <path d="M546.003676,653.371464 C549.463676,649.561464 546.713676,641.311464 548.543676,639.471464 C550.373676,637.631464 558.633676,627.541464 561.383676,627.541464 C564.133676,627.541464 565.973676,630.301464 566.893676,630.301464 C567.813676,630.301464 574.233676,627.541464 575.153676,627.541464 C576.073676,627.541464 582.483676,632.131464 582.483676,632.131464 C582.483676,632.131464 588.653676,641.571464 588.783676,643.271464 C588.913676,644.971464 586.153676,654.151464 581.573676,657.821464 C576.993676,661.491464 568.723676,664.241464 564.143676,666.991464 C559.563676,669.741464 540.253676,659.711464 546.003676,653.371464 Z" id="Path" fill="#FAB6B6" fill-rule="nonzero"></path>
            <path d="M321.003676,481.681464 C330.173676,521.131464 292.563676,528.471464 284.303676,558.741464 C280.303676,573.341464 293.353676,650.011464 367.783676,722.951464 C413.653676,767.951464 436.593676,766.071464 436.593676,766.071464 C436.593676,766.071464 494.383676,715.611464 470.533676,671.581464" id="Path" stroke="#EE0000" stroke-width="3"></path>
            <path d="M517.813676,652.771464 C526.063676,651.861464 533.403676,643.601464 536.163676,642.681464 C538.923676,641.761464 547.163676,639.011464 546.253676,637.181464 C545.343676,635.351464 541.663676,633.511464 531.573676,636.261464 C521.483676,639.011464 530.653676,629.841464 530.653676,629.841464" id="Path" stroke="#F56D6D" stroke-width="4" stroke-linecap="round" stroke-linejoin="round"></path>
            <path d="M549.003676,653.691464 L485.653676,649.331464 L444.303676,606.001464 C444.303676,606.001464 436.743676,636.671464 408.303676,644.001464 L475.103676,688.311464 C475.103676,688.311464 547.623676,679.831464 564.103676,666.981464" id="Path" fill="#FAB6B6" fill-rule="nonzero"></path>
            <polyline id="Path" stroke="#FDDBDB" stroke-width="4" stroke-linecap="round" stroke-linejoin="round" points="549.003676 653.691464 485.653676 649.331464 445.303676 608.001464"></polyline>
            <path d="M546.003676,653.371464 C549.463676,649.561464 546.713676,641.311464 548.543676,639.471464 C550.373676,637.631464 558.633676,627.541464 561.383676,627.541464 C564.133676,627.541464 565.973676,630.301464 566.893676,630.301464 C567.813676,630.301464 574.233676,627.541464 575.153676,627.541464 C576.073676,627.541464 582.483676,632.131464 582.483676,632.131464" id="Path" stroke="#FDDBDB" stroke-width="4" stroke-linecap="round" stroke-linejoin="round"></path>
            <path d="M409.303676,645.001464 L475.103676,688.321464 C475.103676,688.321464 547.623676,679.841464 564.103676,666.991464" id="Path" stroke="#F56D6D" stroke-width="4" stroke-linecap="round" stroke-linejoin="round"></path>
            <path d="M588.783676,643.271464 C588.913676,644.981464 586.153676,654.151464 581.573676,657.821464 C576.993676,661.491464 568.723676,664.241464 564.143676,666.991464" id="Path" stroke="#F56D6D" stroke-width="4" stroke-linecap="round" stroke-linejoin="round"></path>
            <path d="M488.453676,636.261464 C499.453676,636.261464 522.403676,618.831464 526.983676,618.831464 C531.563676,618.831464 544.413676,624.331464 548.983676,624.331464" id="Path" stroke="#FDDBDB" stroke-width="4" stroke-linecap="round" stroke-linejoin="round"></path>
            <path d="M327.743676,528.801464 C350.993676,530.491464 398.373676,547.261464 408.183676,555.071464 C419.953676,564.441464 429.283676,589.011464 445.793676,602.781464 C445.793676,602.781464 435.243676,640.851464 403.593676,645.891464 C381.123676,633.511464 372.403676,617.451464 365.523676,622.501464" id="Path" stroke="#EE0000" stroke-width="3" stroke-linecap="round"></path>
            <path d="M542.583676,766.531464 C580.653676,752.311464 602.213676,732.591464 617.803676,711.531464" id="Path" stroke="#FFFFFF" stroke-width="3" stroke-linecap="round" stroke-linejoin="round"></path>
            <path d="M316.903676,393.151464 C329.743676,373.891464 348.093676,388.561464 357.263676,388.561464 C364.603676,388.561464 370.113676,387.651464 374.703676,387.651464 C382.033676,387.651464 389.373676,405.991464 412.313676,405.991464 C412.313676,405.991464 414.143676,412.421464 407.723676,412.421464 C409.039906,414.718401 411.496526,416.122731 414.143676,416.091464 C414.143676,416.091464 413.233676,424.341464 406.803676,424.341464 C400.373676,424.341464 395.803676,424.341464 393.043676,427.091464 C390.283676,429.841464 395.803676,435.351464 384.793676,441.771464 C373.783676,448.191464 380.203676,459.201464 385.703676,464.711464 C391.203676,470.221464 392.133676,479.391464 396.703676,479.391464 C396.703676,479.391464 398.543676,473.881464 402.213676,473.881464 C402.213676,473.881464 404.963676,479.391464 408.633676,482.141464 C408.633676,482.141464 408.633676,487.641464 403.123676,487.641464 C404.194414,489.292344 404.827601,491.188465 404.963676,493.151464 C404.963676,495.901464 401.293676,498.651464 401.293676,499.571464 C401.293676,500.491464 404.043676,515.161464 386.613676,515.161464 C369.183676,515.161464 369.183676,494.061464 369.183676,490.391464 C369.183676,486.721464 372.073676,472.931464 372.853676,463.791464 C374.293676,447.001464 364.593676,440.861464 358.173676,444.531464 C351.753676,448.201464 353.293676,463.001464 360.923676,466.531464 C360.923676,466.531464 352.673676,493.141464 333.403676,493.141464 C314.133676,493.141464 302.213676,474.791464 302.213676,464.701464 C302.213676,464.701464 296.713676,466.531464 294.873676,461.951464 C294.873676,461.951464 298.543676,450.951464 296.713676,443.601464 C296.713676,443.601464 291.203676,446.351464 289.373676,440.851464 C292.907351,438.198671 295.221902,434.23293 295.793676,429.851464 C296.253676,426.211464 296.723676,392.231464 316.903676,393.151464 Z" id="Path" fill="#000000" fill-rule="nonzero"></path>
            <path d="M458.183676,777.541464 C560.013676,777.541464 597.623676,729.831464 597.623676,729.831464 C567.353676,708.731464 531.623676,723.411464 477.443676,704.151464 C423.263676,684.891464 350.843676,603.231464 291.213676,621.581464 C311.403676,682.131464 386.623676,777.541464 458.183676,777.541464 Z" id="Path" stroke="#FFFFFF" stroke-width="7.34"></path>
            <path d="M458.183676,777.541464 C560.013676,777.541464 597.623676,729.831464 597.623676,729.831464 C567.353676,708.731464 531.623676,723.411464 477.443676,704.151464 C423.263676,684.891464 350.843676,603.231464 291.213676,621.581464 C311.403676,682.131464 386.623676,777.541464 458.183676,777.541464 Z" id="Path" fill="#FDDBDB" fill-rule="nonzero"></path>
            <path d="M458.183676,777.541464 C560.013676,777.541464 597.623676,729.831464 597.623676,729.831464 C567.353676,708.731464 531.623676,723.411464 477.443676,704.151464 C423.263676,684.891464 350.843676,603.231464 291.213676,621.581464 C311.403676,682.131464 386.623676,777.541464 458.183676,777.541464 Z" id="Path" fill="#EE0000" fill-rule="nonzero"></path>
            <path d="M540.743676,628.921464 C535.863919,628.405982 530.943434,628.405982 526.063676,628.921464" id="Path" stroke="#F56D6D" stroke-width="4" stroke-linecap="round" stroke-linejoin="round"></path>
            <polyline id="Path" stroke="#EE0000" stroke-width="3" stroke-linecap="round" stroke-linejoin="round" points="584.323676 586.261464 596.253676 573.421464 598.083676 582.591464 602.673676 577.091464 608.173676 586.261464 621.013676 577.091464 624.683676 581.671464 641.203676 567.001464"></polyline>
            <path d="M618.723676,679.381464 C618.723676,691.301464 639.823676,698.641464 676.523676,677.541464 C713.223676,656.441464 725.363676,636.131464 718.723676,625.251464 C709.233676,609.721464 679.283676,646.251464 663.673676,654.611464 C649.913676,662.001464 618.723676,662.001464 618.723676,679.381464 Z" id="Path" fill="#FFFFFF" fill-rule="nonzero"></path>
            <path d="M622.393676,683.051464 C622.393676,694.971464 643.493676,696.811464 680.193676,681.211464 C719.143676,664.661464 729.033676,639.801464 722.393676,628.921464 C712.303676,612.411464 681.103676,650.921464 667.393676,658.281464 C653.683676,665.641464 622.393676,665.621464 622.393676,683.051464 Z" id="Path" stroke="#EE0000" stroke-width="3" fill="#FFFFFF" fill-rule="nonzero" stroke-linecap="round"></path>
            <path d="M554.503676,861.001464 C549.923676,870.171464 550.833676,897.001464 551.753676,902.531464 C551.753676,902.531464 555.423676,908.951464 572.853676,908.041464 C590.283676,907.131464 642.573676,892.441464 647.163676,886.941464 C646.973676,886.511464 647.163676,875.681464 647.163676,875.681464 C647.163676,875.681464 634.843676,869.101464 626.063676,865.591464 C620.080663,863.184794 614.739806,859.418805 610.463676,854.591464 C610.463676,854.591464 605.883676,870.181464 590.283676,872.941464 C574.683676,875.701464 579.283676,867.431464 574.693676,864.681464 C570.103676,861.931464 554.503676,861.001464 554.503676,861.001464 Z" id="Path" stroke="#EE0000" stroke-width="3" fill="#FFFFFF" fill-rule="nonzero" stroke-linecap="round" stroke-linejoin="round"></path>
            <path d="M554.503676,857.351464 C549.923676,866.531464 550.833676,887.631464 551.753676,893.131464 C551.753676,893.131464 555.423676,899.551464 572.853676,898.631464 C590.283676,897.711464 642.573676,882.121464 647.163676,876.631464 C642.573676,866.541464 635.233676,865.631464 626.063676,861.951464 C620.080663,859.544794 614.739806,855.778805 610.463676,850.951464 C610.463676,850.951464 605.883676,866.551464 590.283676,869.301464 C574.683676,872.051464 579.283676,863.791464 574.693676,861.041464 C570.103676,858.291464 554.503676,857.351464 554.503676,857.351464 Z" id="Path" stroke="#EE0000" stroke-width="3" fill="#EE0000" fill-rule="nonzero" stroke-linecap="round" stroke-linejoin="round"></path>
            <line x1="658.633676" y1="630.301464" x2="573.773676" y2="688.551464" id="Path" stroke="#FFFFFF" stroke-width="3" stroke-linecap="round" stroke-linejoin="round"></line>
            <path d="M608.463676,723.001464 C611.606587,724.106439 614.978568,724.395466 618.263676,723.841464" id="Path" stroke="#FFFFFF" stroke-width="3" stroke-linecap="round" stroke-linejoin="round"></path>
            <path d="M344.313676,407.641464 C350.893676,414.221464 356.533676,415.161464 356.533676,415.161464 C356.533676,415.161464 355.593676,409.521464 359.353676,407.641464 C359.353676,407.641464 362.173676,412.341464 366.873676,411.401464" id="Path" stroke="#FFFFFF" stroke-width="3" stroke-linecap="round" stroke-linejoin="round"></path>
            <polygon id="Path" fill="#EE0000" fill-rule="nonzero" points="366.303676 439.001464 407.303676 446.161464 407.303676 448.301464 374.303676 447.001464"></polygon>
            <path d="M408.003676,448.701464 C403.233676,447.841464 378.493676,446.821464 373.913676,446.821464 L366.573676,439.481464 L408.183676,446.821464 C408.183676,446.821464 407.263676,463.331464 399.013676,466.081464" id="Path" stroke="#EE0000" stroke-width="3" stroke-linecap="round" stroke-linejoin="round"></path>
            <line x1="411.803676" y1="444.501464" x2="371.803676" y2="437.501464" id="Path" stroke="#FFFFFF" stroke-width="3" stroke-linecap="round"></line>
        </g>
    </g>
</svg>
