<?xml version="1.0" encoding="UTF-8"?><svg width="300px" height="223px" xmlns="http://www.w3.org/2000/svg" xmlns:xlink="http://www.w3.org/1999/xlink" viewBox="0 0 761.14 505.19"><defs><style>.k{fill:url(#d);}.l,.m,.n,.o,.p,.q{fill:none;}.m,.n,.o,.p,.q{stroke-linecap:round;}.m,.n,.p,.q{stroke-linejoin:round;}.m,.n,.q{stroke-width:3px;}.m,.o,.p{stroke:#e0e0e0;}.n{stroke:#aaabac;}.r{fill:#0095c4;}.s{fill:#91d3e7;}.t{fill:#aaabac;}.u{fill:#c6c7c8;}.v,.w{fill:#36373a;}.x{fill:#46b6d8;}.y{fill:#baace5;mix-blend-mode:multiply;opacity:.44;}.o{stroke-miterlimit:10;}.o,.p{stroke-width:2px;}.a`{isolation:isolate;}.q{stroke:#444548;}.w{opacity:.75;}.aa{fill:#daf0f8;opacity:.24;}</style><pattern id="d" x="0" y="0" width="28.8" height="28.8" patternTransform="translate(-1152.32 2448.7)" patternUnits="userSpaceOnUse" viewBox="0 0 28.8 28.8"><g><rect class="l" x="0" width="28.8" height="28.8"/><g><path d="M28.8,30.24c.8,0,1.44-.64,1.44-1.44s-.64-1.44-1.44-1.44-1.44,.64-1.44,1.44,.64,1.44,1.44,1.44Z"/><path d="M14.4,30.24c.8,0,1.44-.64,1.44-1.44s-.65-1.44-1.44-1.44-1.44,.64-1.44,1.44,.64,1.44,1.44,1.44Z"/><path d="M28.8,15.84c.8,0,1.44-.65,1.44-1.44s-.64-1.44-1.44-1.44-1.44,.64-1.44,1.44,.64,1.44,1.44,1.44Z"/><path d="M14.4,15.84c.8,0,1.44-.65,1.44-1.44s-.65-1.44-1.44-1.44-1.44,.64-1.44,1.44,.64,1.44,1.44,1.44Z"/><path d="M7.2,23.04c.79,0,1.44-.64,1.44-1.44s-.65-1.44-1.44-1.44-1.44,.64-1.44,1.44,.64,1.44,1.44,1.44Z"/><path d="M21.6,23.04c.79,0,1.44-.64,1.44-1.44s-.65-1.44-1.44-1.44-1.44,.64-1.44,1.44,.64,1.44,1.44,1.44Z"/><path d="M7.2,8.64c.79,0,1.44-.64,1.44-1.44s-.65-1.44-1.44-1.44-1.44,.64-1.44,1.44,.64,1.44,1.44,1.44Z"/><path d="M21.6,8.64c.79,0,1.44-.64,1.44-1.44s-.65-1.44-1.44-1.44-1.44,.64-1.44,1.44,.64,1.44,1.44,1.44Z"/></g><g><path d="M0,30.24c.8,0,1.44-.64,1.44-1.44S.79,27.36,0,27.36s-1.44,.64-1.44,1.44S-.8,30.24,0,30.24Z"/><path d="M0,15.84c.8,0,1.44-.65,1.44-1.44S.79,12.96,0,12.96s-1.44,.64-1.44,1.44S-.8,15.84,0,15.84Z"/></g><g><path d="M28.8,1.44C29.59,1.44,30.24,.79,30.24,0s-.64-1.44-1.44-1.44S27.36-.8,27.36,0s.64,1.44,1.44,1.44Z"/><path d="M14.4,1.44C15.19,1.44,15.84,.79,15.84,0s-.65-1.44-1.44-1.44S12.96-.8,12.96,0s.64,1.44,1.44,1.44Z"/></g><path d="M0,1.44C.79,1.44,1.44,.79,1.44,0S.79-1.44,0-1.44-1.44-.8-1.44,0-.8,1.44,0,1.44Z"/></g></pattern></defs><g class="a`"><g id="a"/><g id="b"><g id="c"><g><g><path class="s" d="M161.13,140.86c-17.87,29.76-56.48,39.39-86.24,21.52-29.76-17.87-39.39-56.49-21.52-86.24,17.87-29.76,56.48-39.39,86.24-21.52,29.76,17.87,39.39,56.48,21.52,86.24Z"/><path class="x" d="M161.13,140.86c-13.82,23.01-40.03,33.99-64.97,29.52-7.32-1.31-3.88-1.47-6.08-7.08-7.64-19.46,5.3-29.41,31.06-41.01,17.02-7.66,21.57-6.93,25.49-20.17,8.39-28.37-36.78-65.38-7.02-47.5,29.76,17.87,39.39,56.48,21.52,86.24Z"/><path class="o" d="M55.44,129.6c-5.81-15.71-4.7-33.82,4.6-49.29,8.13-13.53,20.97-22.49,35.16-26.03"/><path id="e" class="k" d="M153.37,151.72c-16.93-4.05-40.4-11.34-61.94-21.08,0,0,4.42,22.9,43.97,34.06,0,0,8.61-4.71,11.19-7.17,1.62-1.54,6.78-5.81,6.78-5.81Z"/><g><path id="f" class="n" d="M174.51,124.54c13.72,10.9,20.83,20.47,18.2,26.27-5.43,12.01-50.52,3.35-100.7-19.35C41.82,108.76,5.54,80.63,10.97,68.62c3.36-7.43,21.91-6.95,47.46-.12"/><path id="g" class="q" d="M175.3,123.63c13.72,10.9,20.83,20.47,18.2,26.27-5.43,12.01-50.52,3.35-100.7-19.35C42.62,107.85,6.34,79.72,11.77,67.71c3.36-7.43,21.91-6.95,47.46-.12"/></g></g><path class="s" d="M267.07,.29l2.74,4.38c1.3,2.08,3.06,3.84,5.13,5.13l4.38,2.74c.38,.24,.38,.79,0,1.03l-4.38,2.74c-2.08,1.3-3.84,3.06-5.13,5.13l-2.74,4.38c-.24,.38-.79,.38-1.03,0l-2.74-4.38c-1.3-2.08-3.06-3.84-5.13-5.13l-4.38-2.74c-.38-.24-.38-.79,0-1.03l4.38-2.74c2.08-1.3,3.84-3.06,5.13-5.13l2.74-4.38c.24-.38,.79-.38,1.03,0Z"/><path class="s" d="M336.29,21.55l1.74,2.79c.83,1.32,1.94,2.44,3.26,3.26l2.79,1.74c.24,.15,.24,.51,0,.66l-2.79,1.74c-1.32,.83-2.44,1.94-3.26,3.26l-1.74,2.79c-.15,.24-.51,.24-.66,0l-1.74-2.79c-.83-1.32-1.94-2.44-3.26-3.26l-2.79-1.74c-.24-.15-.24-.51,0-.66l2.79-1.74c1.32-.83,2.44-1.94,3.26-3.26l1.74-2.79c.15-.24,.51-.24,.66,0Z"/><path class="s" d="M592.44,21.55l1.74,2.79c.83,1.32,1.94,2.44,3.26,3.26l2.79,1.74c.24,.15,.24,.51,0,.66l-2.79,1.74c-1.32,.83-2.44,1.94-3.26,3.26l-1.74,2.79c-.15,.24-.51,.24-.66,0l-1.74-2.79c-.83-1.32-1.94-2.44-3.26-3.26l-2.79-1.74c-.24-.15-.24-.51,0-.66l2.79-1.74c1.32-.83,2.44-1.94,3.26-3.26l1.74-2.79c.15-.24,.51-.24,.66,0Z"/><g><circle class="v" cx="72.93" cy="366.91" r="72.93"/><g><path d="M63.64,418.1c-8.97-27.46,6.01-56.99,33.47-65.96,27.46-8.97,56.99,6.01,65.96,33.47,8.97,27.46-6.01,56.99-33.47,65.96-27.46,8.97-56.99-6.01-65.96-33.47Z"/><path class="s" d="M59.8,414.26c-8.97-27.46,6.01-56.99,33.47-65.96,27.46-8.97,56.99,6.01,65.96,33.47,8.97,27.46-6.01,56.99-33.47,65.96-27.46,8.97-56.99-6.01-65.96-33.47Z"/><path class="p" d="M99.19,363.29c-9.2,4.67-16.61,12.84-20.07,23.42-3.25,9.94-2.42,20.24,1.57,29.07"/></g></g><g><path id="h" class="m" d="M664.74,94.49l-31.63,13.03"/><path id="i" class="m" d="M742.9,61l-59.55,26.05"/><path id="j" class="m" d="M759.04,61.31c1.72-4.29-.37-9.17-4.67-10.88-4.29-1.72-9.16,.37-10.88,4.66-1.72,4.29,.37,9.17,4.67,10.88,4.29,1.72,9.16-.37,10.88-4.66Z"/></g><path class="s" d="M186.04,450.02l2.74,4.38c1.3,2.08,3.06,3.84,5.13,5.13l4.38,2.74c.38,.24,.38,.79,0,1.03l-4.38,2.74c-2.08,1.3-3.84,3.06-5.13,5.13l-2.74,4.38c-.24,.38-.79,.38-1.03,0l-2.74-4.38c-1.3-2.08-3.06-3.84-5.13-5.13l-4.38-2.74c-.38-.24-.38-.79,0-1.03l4.38-2.74c2.08-1.3,3.84-3.06,5.13-5.13l2.74-4.38c.24-.38,.79-.38,1.03,0Z"/><path class="s" d="M665.77,165.18l2.74,4.38c1.3,2.08,3.06,3.84,5.13,5.13l4.38,2.74c.38,.24,.38,.79,0,1.03l-4.38,2.74c-2.08,1.3-3.84,3.06-5.13,5.13l-2.74,4.38c-.24,.38-.79,.38-1.03,0l-2.74-4.38c-1.3-2.08-3.06-3.84-5.13-5.13l-4.38-2.74c-.38-.24-.38-.79,0-1.03l4.38-2.74c2.08-1.3,3.84-3.06,5.13-5.13l2.74-4.38c.24-.38,.79-.38,1.03,0Z"/><g><g><path class="r" d="M598.27,410.61c-66.12,95.17-196.87,118.71-292.03,52.6-95.17-66.12-118.71-196.87-52.6-292.04,66.12-95.17,196.87-118.71,292.03-52.59,95.17,66.12,118.72,196.87,52.6,292.03Z"/><path class="o" d="M248.68,349.71c-15.87-53.61-8.15-113.68,26.23-163.16,30.06-43.27,74.82-70.26,122.88-78.91"/><circle class="aa" cx="530.7" cy="210.24" r="46.85" transform="translate(203.53 678.01) rotate(-76.64)"/><path class="aa" d="M510.52,269.38c1.79,14.22-10.17,26.18-24.4,24.39-9.69-1.22-17.51-9.05-18.73-18.74-1.79-14.22,10.17-26.18,24.4-24.38,9.69,1.22,17.51,9.05,18.73,18.74Z"/><path class="y" d="M635.8,292.15c0,114.61-92.91,207.53-207.53,207.53-55.07,0-105.13-21.45-142.28-56.45-40.17-37.84,119.97-6.03,191.37-104.21,67.08-92.23,59.69-231.34,97.21-194.04,37.81,37.59,61.22,89.65,61.22,147.18Z"/></g><g><path class="w" d="M714.37,466.77c-28.18,40.57-83.92,50.6-124.49,22.42-40.57-28.19-50.6-83.92-22.42-124.49,28.19-40.57,83.92-50.6,124.49-22.42,40.57,28.19,50.6,83.92,22.42,124.49Z"/><path d="M701.5,459.78c-22.21,31.97-66.14,39.88-98.11,17.67-31.97-22.21-39.88-66.14-17.67-98.11,22.21-31.97,66.14-39.88,98.11-17.67,31.97,22.21,39.88,66.14,17.67,98.11Z"/><path class="t" d="M696.5,454.78c-22.21,31.97-66.14,39.88-98.11,17.67-31.97-22.21-39.88-66.14-17.67-98.11,22.21-31.97,66.14-39.88,98.11-17.67,31.97,22.21,39.88,66.14,17.67,98.11Z"/><path class="u" d="M695.25,402.8c0,12.95-10.49,23.44-23.44,23.44s-23.44-10.5-23.44-23.44,10.5-23.44,23.44-23.44,23.44,10.49,23.44,23.44Z"/><circle class="u" cx="641.3" cy="377.64" r="10.88" transform="translate(-98.47 458.97) rotate(-36.77)"/></g></g></g></g></g></g></svg>