<?xml version="1.0" encoding="UTF-8"?>
<svg width="433px" height="42px" viewBox="0 0 433 42" version="1.1" xmlns="http://www.w3.org/2000/svg" xmlns:xlink="http://www.w3.org/1999/xlink">
    <!-- Generator: Sketch 63.1 (92452) - https://sketch.com -->
    <title>Group 5</title>
    <desc>Created with Sketch.</desc>
    <g id="Symbols" stroke="none" stroke-width="1" fill="none" fill-rule="evenodd">
        <g id="RHACM_Header_1440" transform="translate(-78.000000, -18.000000)" fill-rule="nonzero">
            <g id="RHACM_Header">
                <g id="Group-3">
                    <g id="Group-5" transform="translate(78.000000, 18.000000)">
                        <g id="Group" transform="translate(36.000000, 5.000000)" fill="#FFFFFF">
                            <path d="M0.8208,13.8 L0.8208,1.48 L7.1216,1.48 C7.75520317,1.48 8.33893066,1.57679903 8.8728,1.7704 C9.40666934,1.96400097 9.86426476,2.23386494 10.2456,2.58 C10.6269352,2.92613506 10.9261322,3.33973093 11.1432,3.8208 C11.3602678,4.30186907 11.4688,4.82986379 11.4688,5.4048 C11.4688,6.17920387 11.2576021,6.87146362 10.8352,7.4816 C10.4127979,8.09173638 9.85547013,8.55519842 9.1632,8.872 L11.856,13.8 L8.4768,13.8 L6.1536,9.312 L3.848,9.312 L3.848,13.8 L0.8208,13.8 Z M6.84,4.0672 L3.848,4.0672 L3.848,6.848 L6.84,6.848 C7.30933568,6.848 7.6877319,6.71893462 7.9752,6.4608 C8.2626681,6.20266538 8.4064,5.86826872 8.4064,5.4576 C8.4064,5.04693128 8.2626681,4.71253462 7.9752,4.4544 C7.6877319,4.19626538 7.30933568,4.0672 6.84,4.0672 Z M20.7248,12.568 C20.1381304,13.0608025 19.5368031,13.4186656 18.9208,13.6416 C18.3047969,13.8645344 17.6096039,13.976 16.8352,13.976 C16.1311965,13.976 15.4682698,13.8528012 14.8464,13.6064 C14.2245302,13.3599988 13.6877356,13.0197355 13.236,12.5856 C12.7842644,12.1514645 12.4264013,11.6381363 12.1624,11.0456 C11.8983987,10.4530637 11.7664,9.82240334 11.7664,9.1536 C11.7664,8.48479666 11.8925321,7.8541363 12.1448,7.2616 C12.3970679,6.6690637 12.7402645,6.1557355 13.1744,5.7216 C13.6085355,5.2874645 14.1218637,4.94720123 14.7144,4.7008 C15.3069363,4.45439877 15.9434633,4.3312 16.624,4.3312 C17.3045367,4.3312 17.9322638,4.46026538 18.5072,4.7184 C19.0821362,4.97653462 19.5778646,5.3285311 19.9944,5.7744 C20.4109354,6.2202689 20.7365322,6.75706353 20.9712,7.3848 C21.2058678,8.01253647 21.3232,8.6901297 21.3232,9.4176 L21.3232,10.1216 L14.688,10.1216 C14.8757343,10.5557355 15.1690647,10.9106653 15.568,11.1864 C15.9669353,11.4621347 16.436264,11.6 16.976,11.6 C17.3632019,11.6 17.7151984,11.5384006 18.032,11.4152 C18.3488016,11.2919994 18.6186655,11.1189344 18.8416,10.896 L20.7248,12.568 Z M16.5712,6.6544 C16.1018643,6.6544 15.6970684,6.78346538 15.3568,7.0416 C15.0165316,7.29973462 14.7760007,7.66346432 14.6352,8.1328 L18.5248,8.1328 C18.3722659,7.6869311 18.1229351,7.32906802 17.7768,7.0592 C17.4306649,6.78933198 17.0288023,6.6544 16.5712,6.6544 Z M29.4176,13.8 L29.4176,13.1136 C29.0538648,13.3717346 28.6608021,13.5711993 28.2384,13.712 C27.8159979,13.8528007 27.3760023,13.9232 26.9184,13.9232 C26.26133,13.9232 25.6424029,13.8000012 25.0616,13.5536 C24.4807971,13.3071988 23.9762688,12.9669355 23.548,12.5328 C23.1197312,12.0986645 22.7824012,11.5912029 22.536,11.0104 C22.2895988,10.4295971 22.1664,9.80480334 22.1664,9.136 C22.1664,8.46719666 22.2925321,7.8424029 22.5448,7.2616 C22.7970679,6.6807971 23.1402645,6.17626881 23.5744,5.748 C24.0085355,5.31973119 24.5218637,4.98240123 25.1144,4.736 C25.7069363,4.48959877 26.3375967,4.3664 27.0064,4.3664 C27.4405355,4.3664 27.8570647,4.41919947 28.256,4.5248 C28.6549353,4.63040053 29.0303982,4.78293234 29.3824,4.9824 L29.3824,1.48 L32.2336,0.864 L32.2336,13.8 L29.4176,13.8 Z M24.9648,9.136 C24.9648,9.80480334 25.2023976,10.3650644 25.6776,10.8168 C26.1528024,11.2685356 26.7306633,11.4944 27.4112,11.4944 C27.8101353,11.4944 28.173865,11.4328006 28.5024,11.3096 C28.830935,11.1863994 29.1242654,11.0016012 29.3824,10.7552 L29.3824,7.4992 C29.1359988,7.27626555 28.8426684,7.10026731 28.5024,6.9712 C28.1621316,6.84213269 27.7984019,6.7776 27.4112,6.7776 C26.7189299,6.7776 26.1381357,7.00346441 25.6688,7.4552 C25.1994643,7.90693559 24.9648,8.46719666 24.9648,9.136 Z M37.2464,13.8 L37.2464,1.48 L40.2736,1.48 L40.2736,6.2144 L45.3424,6.2144 L45.3424,1.48 L48.3696,1.48 L48.3696,13.8 L45.3424,13.8 L45.3424,8.9776 L40.2736,8.9776 L40.2736,13.8 L37.2464,13.8 Z M52.9088,13.9584 C51.9231951,13.9584 51.1136032,13.688536 50.48,13.1488 C49.8463968,12.609064 49.5296,11.9168042 49.5296,11.072 C49.5296,10.1919956 49.8669299,9.50560246 50.5416,9.0128 C51.21627,8.51999754 52.1578606,8.2736 53.3664,8.2736 C53.7301351,8.2736 54.0879982,8.29706643 54.44,8.344 C54.7920017,8.39093357 55.1381316,8.45546626 55.4784,8.5376 L55.4784,8.08 C55.4784,7.61066432 55.3288015,7.26160114 55.0296,7.0328 C54.7303985,6.80399886 54.2874696,6.6896 53.7008,6.6896 C53.3370648,6.6896 52.9264023,6.74826608 52.4688,6.8656 C52.0111977,6.98293392 51.483203,7.17066538 50.8848,7.4288 L49.864,5.3344 C50.6149371,4.99413163 51.3511964,4.73893418 52.0728,4.5688 C52.7944036,4.39866582 53.5071965,4.3136 54.2112,4.3136 C55.5018731,4.3136 56.5050631,4.62159692 57.2208,5.2376 C57.9365369,5.85360308 58.2944,6.71892776 58.2944,7.8336 L58.2944,13.8 L55.4784,13.8 L55.4784,13.2368 C55.1029314,13.4949346 54.7069354,13.6797328 54.2904,13.7912 C53.8738646,13.9026672 53.4133358,13.9584 52.9088,13.9584 Z M52.24,11.0192 C52.24,11.3125348 52.3690654,11.5413325 52.6272,11.7056 C52.8853346,11.8698675 53.2431977,11.952 53.7008,11.952 C54.0410684,11.952 54.3607985,11.9168004 54.66,11.8464 C54.9592015,11.7759996 55.2319988,11.6645341 55.4784,11.512 L55.4784,10.3152 C55.208532,10.2447996 54.9328014,10.1920002 54.6512,10.1568 C54.3695986,10.1215998 54.0821348,10.104 53.7888,10.104 C53.2959975,10.104 52.914668,10.1831992 52.6448,10.3416 C52.374932,10.5000008 52.24,10.7258652 52.24,11.0192 Z M60.792,10.9664 L60.792,6.8656 L58.9088,6.8656 L58.9088,4.4896 L60.792,4.4896 L60.792,2.096 L63.6432,1.48 L63.6432,4.4896 L66.248,4.4896 L66.248,6.8656 L63.6432,6.8656 L63.6432,10.4032 C63.6432,10.8138687 63.7341324,11.1042658 63.916,11.2744 C64.0978676,11.4445342 64.4175977,11.5296 64.8752,11.5296 C65.0981344,11.5296 65.3093323,11.5149335 65.5088,11.4856 C65.7082676,11.4562665 65.9253321,11.4064004 66.16,11.336 L66.16,13.6416 C65.9018654,13.7237337 65.5733353,13.7911997 65.1744,13.844 C64.7754647,13.8968003 64.441068,13.9232 64.1712,13.9232 C63.0565277,13.9232 62.2146695,13.6738692 61.6456,13.1752 C61.0765305,12.6765308 60.792,11.9402715 60.792,10.9664 Z" id="RedHat"></path>
                        </g>
                        <path d="M38.358,38 L39.654,34.472 L44.838,34.472 L46.116,38 L48.438,38 L43.56,25.4 L41.058,25.4 L36.108,38 L38.358,38 Z M44.208,32.78 L40.284,32.78 L42.264,27.416 L44.208,32.78 Z M53.478,38.09 C54.042,38.09 54.567,37.976 55.053,37.748 C55.539,37.52 55.938,37.202 56.25,36.794 L56.25,36.794 L56.25,38 L58.266,38 L58.266,24.788 L56.232,25.13 L56.232,30.098 C55.896,29.726 55.503,29.435 55.053,29.225 C54.603,29.015 54.12,28.91 53.604,28.91 C53.016,28.91 52.464,29.03 51.948,29.27 C51.432,29.51 50.985,29.834 50.607,30.242 C50.229,30.65 49.932,31.136 49.716,31.7 C49.5,32.264 49.392,32.864 49.392,33.5 C49.392,34.136 49.497,34.733 49.707,35.291 C49.917,35.849 50.205,36.335 50.571,36.749 C50.937,37.163 51.372,37.49 51.876,37.73 C52.38,37.97 52.914,38.09 53.478,38.09 Z M54.09,36.38 C53.334,36.38 52.698,36.104 52.182,35.552 C51.666,35 51.408,34.316 51.408,33.5 C51.408,32.672 51.663,31.985 52.173,31.439 C52.683,30.893 53.322,30.62 54.09,30.62 C54.51,30.62 54.906,30.707 55.278,30.881 C55.65,31.055 55.968,31.292 56.232,31.592 L56.232,31.592 L56.232,35.39 C55.968,35.714 55.653,35.96 55.287,36.128 C54.921,36.296 54.522,36.38 54.09,36.38 Z M65.376,38 L69.084,28.982 L66.942,28.982 L64.44,35.57 L61.938,28.982 L59.724,28.982 L63.414,38 L65.376,38 Z M73.278,38.144 C73.794,38.144 74.268,38.06 74.7,37.892 C75.132,37.724 75.552,37.454 75.96,37.082 L75.96,37.082 L75.96,38 L77.976,38 L77.976,32.114 C77.976,31.07 77.652,30.263 77.004,29.693 C76.356,29.123 75.45,28.838 74.286,28.838 C73.686,28.838 73.08,28.913 72.468,29.063 C71.856,29.213 71.214,29.444 70.542,29.756 L70.542,29.756 L71.262,31.232 C71.778,30.992 72.252,30.815 72.684,30.701 C73.116,30.587 73.518,30.53 73.89,30.53 C74.574,30.53 75.09,30.683 75.438,30.989 C75.786,31.295 75.96,31.742 75.96,32.33 L75.96,32.33 L75.96,33.32 C75.552,33.128 75.15,32.987 74.754,32.897 C74.358,32.807 73.95,32.762 73.53,32.762 C72.474,32.762 71.637,33.002 71.019,33.482 C70.401,33.962 70.092,34.604 70.092,35.408 C70.092,36.212 70.389,36.869 70.983,37.379 C71.577,37.889 72.342,38.144 73.278,38.144 Z M73.836,36.722 C73.284,36.722 72.84,36.599 72.504,36.353 C72.168,36.107 72,35.78 72,35.372 C72,34.976 72.168,34.661 72.504,34.427 C72.84,34.193 73.296,34.076 73.872,34.076 C74.268,34.076 74.634,34.109 74.97,34.175 C75.306,34.241 75.636,34.352 75.96,34.508 L75.96,34.508 L75.96,35.984 C75.66,36.236 75.333,36.422 74.979,36.542 C74.625,36.662 74.244,36.722 73.836,36.722 Z M82.476,38 L82.476,31.556 C82.716,31.208 83.001,30.941 83.331,30.755 C83.661,30.569 84.03,30.476 84.438,30.476 C85.038,30.476 85.518,30.674 85.878,31.07 C86.238,31.466 86.418,31.988 86.418,32.636 L86.418,32.636 L86.418,38 L88.452,38 L88.452,32.06 C88.452,31.124 88.161,30.353 87.579,29.747 C86.997,29.141 86.25,28.838 85.338,28.838 C84.738,28.838 84.195,28.976 83.709,29.252 C83.223,29.528 82.812,29.93 82.476,30.458 L82.476,30.458 L82.476,28.982 L80.442,28.982 L80.442,38 L82.476,38 Z M95.058,38.18 C95.742,38.18 96.396,38.039 97.02,37.757 C97.644,37.475 98.166,37.094 98.586,36.614 L98.586,36.614 L97.362,35.39 C97.098,35.714 96.777,35.96 96.399,36.128 C96.021,36.296 95.616,36.38 95.184,36.38 C94.428,36.38 93.798,36.104 93.294,35.552 C92.79,35 92.538,34.316 92.538,33.5 C92.538,32.696 92.79,32.015 93.294,31.457 C93.798,30.899 94.41,30.62 95.13,30.62 C95.562,30.62 95.97,30.71 96.354,30.89 C96.738,31.07 97.086,31.334 97.398,31.682 L97.398,31.682 L98.658,30.368 C98.214,29.888 97.677,29.516 97.047,29.252 C96.417,28.988 95.754,28.856 95.058,28.856 C94.422,28.856 93.825,28.976 93.267,29.216 C92.709,29.456 92.226,29.783 91.818,30.197 C91.41,30.611 91.089,31.103 90.855,31.673 C90.621,32.243 90.504,32.852 90.504,33.5 C90.504,34.148 90.621,34.76 90.855,35.336 C91.089,35.912 91.41,36.41 91.818,36.83 C92.226,37.25 92.709,37.58 93.267,37.82 C93.825,38.06 94.422,38.18 95.058,38.18 Z M104.508,38.18 C105.204,38.18 105.837,38.072 106.407,37.856 C106.977,37.64 107.538,37.304 108.09,36.848 L108.09,36.848 L106.758,35.606 C106.506,35.87 106.191,36.077 105.813,36.227 C105.435,36.377 105.036,36.452 104.616,36.452 C103.932,36.452 103.335,36.218 102.825,35.75 C102.315,35.282 102.012,34.694 101.916,33.986 L101.916,33.986 L108.576,33.986 L108.576,33.482 C108.576,32.81 108.468,32.189 108.252,31.619 C108.036,31.049 107.739,30.56 107.361,30.152 C106.983,29.744 106.533,29.423 106.011,29.189 C105.489,28.955 104.922,28.838 104.31,28.838 C103.686,28.838 103.104,28.958 102.564,29.198 C102.024,29.438 101.559,29.765 101.169,30.179 C100.779,30.593 100.473,31.085 100.251,31.655 C100.029,32.225 99.918,32.84 99.918,33.5 C99.918,34.148 100.038,34.76 100.278,35.336 C100.518,35.912 100.842,36.41 101.25,36.83 C101.658,37.25 102.144,37.58 102.708,37.82 C103.272,38.06 103.872,38.18 104.508,38.18 Z M106.65,32.744 L101.952,32.744 C102.072,32.06 102.342,31.514 102.762,31.106 C103.182,30.698 103.692,30.494 104.292,30.494 C104.892,30.494 105.405,30.704 105.831,31.124 C106.257,31.544 106.53,32.084 106.65,32.744 L106.65,32.744 Z M114.318,38.09 C114.882,38.09 115.407,37.976 115.893,37.748 C116.379,37.52 116.778,37.202 117.09,36.794 L117.09,36.794 L117.09,38 L119.106,38 L119.106,24.788 L117.072,25.13 L117.072,30.098 C116.736,29.726 116.343,29.435 115.893,29.225 C115.443,29.015 114.96,28.91 114.444,28.91 C113.856,28.91 113.304,29.03 112.788,29.27 C112.272,29.51 111.825,29.834 111.447,30.242 C111.069,30.65 110.772,31.136 110.556,31.7 C110.34,32.264 110.232,32.864 110.232,33.5 C110.232,34.136 110.337,34.733 110.547,35.291 C110.757,35.849 111.045,36.335 111.411,36.749 C111.777,37.163 112.212,37.49 112.716,37.73 C113.22,37.97 113.754,38.09 114.318,38.09 Z M114.93,36.38 C114.174,36.38 113.538,36.104 113.022,35.552 C112.506,35 112.248,34.316 112.248,33.5 C112.248,32.672 112.503,31.985 113.013,31.439 C113.523,30.893 114.162,30.62 114.93,30.62 C115.35,30.62 115.746,30.707 116.118,30.881 C116.49,31.055 116.808,31.292 117.072,31.592 L117.072,31.592 L117.072,35.39 C116.808,35.714 116.493,35.96 116.127,36.128 C115.761,36.296 115.362,36.38 114.93,36.38 Z M131.85,38.18 C132.786,38.18 133.683,37.982 134.541,37.586 C135.399,37.19 136.122,36.65 136.71,35.966 L136.71,35.966 L135.288,34.598 C134.856,35.126 134.349,35.531 133.767,35.813 C133.185,36.095 132.57,36.236 131.922,36.236 C131.31,36.236 130.734,36.119 130.194,35.885 C129.654,35.651 129.189,35.333 128.799,34.931 C128.409,34.529 128.103,34.049 127.881,33.491 C127.659,32.933 127.548,32.336 127.548,31.7 C127.548,31.052 127.659,30.449 127.881,29.891 C128.103,29.333 128.403,28.85 128.781,28.442 C129.159,28.034 129.612,27.713 130.14,27.479 C130.668,27.245 131.238,27.128 131.85,27.128 C132.51,27.128 133.14,27.281 133.74,27.587 C134.34,27.893 134.862,28.322 135.306,28.874 L135.306,28.874 L136.764,27.434 C136.188,26.738 135.465,26.192 134.595,25.796 C133.725,25.4 132.81,25.202 131.85,25.202 C130.938,25.202 130.083,25.37 129.285,25.706 C128.487,26.042 127.797,26.501 127.215,27.083 C126.633,27.665 126.174,28.352 125.838,29.144 C125.502,29.936 125.334,30.788 125.334,31.7 C125.334,32.6 125.502,33.446 125.838,34.238 C126.174,35.03 126.633,35.717 127.215,36.299 C127.797,36.881 128.487,37.34 129.285,37.676 C130.083,38.012 130.938,38.18 131.85,38.18 Z M140.724,38 L140.724,24.788 L138.69,25.13 L138.69,38 L140.724,38 Z M146.286,38.144 C146.898,38.144 147.447,38.003 147.933,37.721 C148.419,37.439 148.83,37.034 149.166,36.506 L149.166,36.506 L149.166,38 L151.2,38 L151.2,28.982 L149.166,28.982 L149.166,35.39 C148.926,35.762 148.638,36.041 148.302,36.227 C147.966,36.413 147.594,36.506 147.186,36.506 C146.586,36.506 146.106,36.308 145.746,35.912 C145.386,35.516 145.206,34.994 145.206,34.346 L145.206,34.346 L145.206,28.982 L143.172,28.982 L143.172,34.922 C143.172,35.87 143.463,36.644 144.045,37.244 C144.627,37.844 145.374,38.144 146.286,38.144 Z M156.78,38.18 C157.296,38.18 157.779,38.105 158.229,37.955 C158.679,37.805 159.069,37.598 159.399,37.334 C159.729,37.07 159.987,36.758 160.173,36.398 C160.359,36.038 160.452,35.654 160.452,35.246 C160.452,34.574 160.233,34.028 159.795,33.608 C159.357,33.188 158.688,32.894 157.788,32.726 L157.788,32.726 L156.204,32.438 C155.724,32.354 155.391,32.24 155.205,32.096 C155.019,31.952 154.926,31.736 154.926,31.448 C154.926,31.112 155.067,30.851 155.349,30.665 C155.631,30.479 156.006,30.386 156.474,30.386 C156.93,30.386 157.38,30.455 157.824,30.593 C158.268,30.731 158.724,30.95 159.192,31.25 L159.192,31.25 L160.146,29.918 C159.57,29.546 158.991,29.273 158.409,29.099 C157.827,28.925 157.224,28.838 156.6,28.838 C155.556,28.838 154.713,29.093 154.071,29.603 C153.429,30.113 153.108,30.788 153.108,31.628 C153.108,32.3 153.327,32.843 153.765,33.257 C154.203,33.671 154.854,33.956 155.718,34.112 L155.718,34.112 L157.32,34.382 C157.752,34.466 158.067,34.589 158.265,34.751 C158.463,34.913 158.562,35.132 158.562,35.408 C158.562,35.768 158.394,36.059 158.058,36.281 C157.722,36.503 157.284,36.614 156.744,36.614 C156.288,36.614 155.838,36.536 155.394,36.38 C154.95,36.224 154.434,35.96 153.846,35.588 L153.846,35.588 L152.892,36.956 C153.372,37.352 153.945,37.655 154.611,37.865 C155.277,38.075 156,38.18 156.78,38.18 Z M166.212,38.144 C166.476,38.144 166.767,38.123 167.085,38.081 C167.403,38.039 167.694,37.976 167.958,37.892 L167.958,37.892 L167.958,36.182 C167.694,36.266 167.475,36.323 167.301,36.353 C167.127,36.383 166.938,36.398 166.734,36.398 C166.278,36.398 165.954,36.305 165.762,36.119 C165.57,35.933 165.474,35.618 165.474,35.174 L165.474,35.174 L165.474,30.602 L167.994,30.602 L167.994,28.982 L165.474,28.982 L165.474,26.066 L163.44,26.498 L163.44,28.982 L161.622,28.982 L161.622,30.602 L163.44,30.602 L163.44,35.624 C163.44,36.452 163.677,37.079 164.151,37.505 C164.625,37.931 165.312,38.144 166.212,38.144 Z M173.952,38.18 C174.648,38.18 175.281,38.072 175.851,37.856 C176.421,37.64 176.982,37.304 177.534,36.848 L177.534,36.848 L176.202,35.606 C175.95,35.87 175.635,36.077 175.257,36.227 C174.879,36.377 174.48,36.452 174.06,36.452 C173.376,36.452 172.779,36.218 172.269,35.75 C171.759,35.282 171.456,34.694 171.36,33.986 L171.36,33.986 L178.02,33.986 L178.02,33.482 C178.02,32.81 177.912,32.189 177.696,31.619 C177.48,31.049 177.183,30.56 176.805,30.152 C176.427,29.744 175.977,29.423 175.455,29.189 C174.933,28.955 174.366,28.838 173.754,28.838 C173.13,28.838 172.548,28.958 172.008,29.198 C171.468,29.438 171.003,29.765 170.613,30.179 C170.223,30.593 169.917,31.085 169.695,31.655 C169.473,32.225 169.362,32.84 169.362,33.5 C169.362,34.148 169.482,34.76 169.722,35.336 C169.962,35.912 170.286,36.41 170.694,36.83 C171.102,37.25 171.588,37.58 172.152,37.82 C172.716,38.06 173.316,38.18 173.952,38.18 Z M176.094,32.744 L171.396,32.744 C171.516,32.06 171.786,31.514 172.206,31.106 C172.626,30.698 173.136,30.494 173.736,30.494 C174.336,30.494 174.849,30.704 175.275,31.124 C175.701,31.544 175.974,32.084 176.094,32.744 L176.094,32.744 Z M182.124,38 L182.124,32.06 C182.352,31.592 182.664,31.226 183.06,30.962 C183.456,30.698 183.894,30.566 184.374,30.566 C184.566,30.566 184.761,30.584 184.959,30.62 C185.157,30.656 185.334,30.71 185.49,30.782 L185.49,30.782 L185.49,29 C185.334,28.94 185.19,28.898 185.058,28.874 C184.926,28.85 184.776,28.832 184.608,28.82 C184.044,28.82 183.549,29.003 183.123,29.369 C182.697,29.735 182.364,30.26 182.124,30.944 L182.124,30.944 L182.124,28.982 L180.09,28.982 L180.09,38 L182.124,38 Z M193.464,38 L193.464,28.118 L197.946,37.1 L202.41,28.172 L202.41,38 L204.444,38 L204.444,25.4 L201.636,25.4 L197.964,33.032 L194.274,25.4 L191.466,25.4 L191.466,38 L193.464,38 Z M209.97,38.144 C210.486,38.144 210.96,38.06 211.392,37.892 C211.824,37.724 212.244,37.454 212.652,37.082 L212.652,37.082 L212.652,38 L214.668,38 L214.668,32.114 C214.668,31.07 214.344,30.263 213.696,29.693 C213.048,29.123 212.142,28.838 210.978,28.838 C210.378,28.838 209.772,28.913 209.16,29.063 C208.548,29.213 207.906,29.444 207.234,29.756 L207.234,29.756 L207.954,31.232 C208.47,30.992 208.944,30.815 209.376,30.701 C209.808,30.587 210.21,30.53 210.582,30.53 C211.266,30.53 211.782,30.683 212.13,30.989 C212.478,31.295 212.652,31.742 212.652,32.33 L212.652,32.33 L212.652,33.32 C212.244,33.128 211.842,32.987 211.446,32.897 C211.05,32.807 210.642,32.762 210.222,32.762 C209.166,32.762 208.329,33.002 207.711,33.482 C207.093,33.962 206.784,34.604 206.784,35.408 C206.784,36.212 207.081,36.869 207.675,37.379 C208.269,37.889 209.034,38.144 209.97,38.144 Z M210.528,36.722 C209.976,36.722 209.532,36.599 209.196,36.353 C208.86,36.107 208.692,35.78 208.692,35.372 C208.692,34.976 208.86,34.661 209.196,34.427 C209.532,34.193 209.988,34.076 210.564,34.076 C210.96,34.076 211.326,34.109 211.662,34.175 C211.998,34.241 212.328,34.352 212.652,34.508 L212.652,34.508 L212.652,35.984 C212.352,36.236 212.025,36.422 211.671,36.542 C211.317,36.662 210.936,36.722 210.528,36.722 Z M219.168,38 L219.168,31.556 C219.408,31.208 219.693,30.941 220.023,30.755 C220.353,30.569 220.722,30.476 221.13,30.476 C221.73,30.476 222.21,30.674 222.57,31.07 C222.93,31.466 223.11,31.988 223.11,32.636 L223.11,32.636 L223.11,38 L225.144,38 L225.144,32.06 C225.144,31.124 224.853,30.353 224.271,29.747 C223.689,29.141 222.942,28.838 222.03,28.838 C221.43,28.838 220.887,28.976 220.401,29.252 C219.915,29.528 219.504,29.93 219.168,30.458 L219.168,30.458 L219.168,28.982 L217.134,28.982 L217.134,38 L219.168,38 Z M230.346,38.144 C230.862,38.144 231.336,38.06 231.768,37.892 C232.2,37.724 232.62,37.454 233.028,37.082 L233.028,37.082 L233.028,38 L235.044,38 L235.044,32.114 C235.044,31.07 234.72,30.263 234.072,29.693 C233.424,29.123 232.518,28.838 231.354,28.838 C230.754,28.838 230.148,28.913 229.536,29.063 C228.924,29.213 228.282,29.444 227.61,29.756 L227.61,29.756 L228.33,31.232 C228.846,30.992 229.32,30.815 229.752,30.701 C230.184,30.587 230.586,30.53 230.958,30.53 C231.642,30.53 232.158,30.683 232.506,30.989 C232.854,31.295 233.028,31.742 233.028,32.33 L233.028,32.33 L233.028,33.32 C232.62,33.128 232.218,32.987 231.822,32.897 C231.426,32.807 231.018,32.762 230.598,32.762 C229.542,32.762 228.705,33.002 228.087,33.482 C227.469,33.962 227.16,34.604 227.16,35.408 C227.16,36.212 227.457,36.869 228.051,37.379 C228.645,37.889 229.41,38.144 230.346,38.144 Z M230.904,36.722 C230.352,36.722 229.908,36.599 229.572,36.353 C229.236,36.107 229.068,35.78 229.068,35.372 C229.068,34.976 229.236,34.661 229.572,34.427 C229.908,34.193 230.364,34.076 230.94,34.076 C231.336,34.076 231.702,34.109 232.038,34.175 C232.374,34.241 232.704,34.352 233.028,34.508 L233.028,34.508 L233.028,35.984 C232.728,36.236 232.401,36.422 232.047,36.542 C231.693,36.662 231.312,36.722 230.904,36.722 Z M241.722,41.906 C243.078,41.906 244.125,41.594 244.863,40.97 C245.601,40.346 245.97,39.458 245.97,38.306 L245.97,38.306 L245.97,28.982 L243.954,28.982 L243.954,30.134 C243.618,29.738 243.222,29.435 242.766,29.225 C242.31,29.015 241.824,28.91 241.308,28.91 C240.72,28.91 240.168,29.027 239.652,29.261 C239.136,29.495 238.689,29.816 238.311,30.224 C237.933,30.632 237.636,31.118 237.42,31.682 C237.204,32.246 237.096,32.846 237.096,33.482 C237.096,34.118 237.201,34.715 237.411,35.273 C237.621,35.831 237.909,36.314 238.275,36.722 C238.641,37.13 239.076,37.454 239.58,37.694 C240.084,37.934 240.618,38.054 241.182,38.054 C241.734,38.054 242.253,37.94 242.739,37.712 C243.225,37.484 243.624,37.172 243.936,36.776 L243.936,36.776 L243.936,38.306 C243.936,38.954 243.741,39.449 243.351,39.791 C242.961,40.133 242.388,40.304 241.632,40.304 C241.188,40.304 240.738,40.241 240.282,40.115 C239.826,39.989 239.34,39.794 238.824,39.53 L238.824,39.53 L238.104,41.042 C238.632,41.318 239.205,41.531 239.823,41.681 C240.441,41.831 241.074,41.906 241.722,41.906 Z M241.794,36.362 C241.038,36.362 240.402,36.086 239.886,35.534 C239.37,34.982 239.112,34.298 239.112,33.482 C239.112,32.654 239.367,31.97 239.877,31.43 C240.387,30.89 241.026,30.62 241.794,30.62 C242.214,30.62 242.61,30.707 242.982,30.881 C243.354,31.055 243.672,31.292 243.936,31.592 L243.936,31.592 L243.936,35.372 C243.672,35.696 243.357,35.942 242.991,36.11 C242.625,36.278 242.226,36.362 241.794,36.362 Z M252.648,38.18 C253.344,38.18 253.977,38.072 254.547,37.856 C255.117,37.64 255.678,37.304 256.23,36.848 L256.23,36.848 L254.898,35.606 C254.646,35.87 254.331,36.077 253.953,36.227 C253.575,36.377 253.176,36.452 252.756,36.452 C252.072,36.452 251.475,36.218 250.965,35.75 C250.455,35.282 250.152,34.694 250.056,33.986 L250.056,33.986 L256.716,33.986 L256.716,33.482 C256.716,32.81 256.608,32.189 256.392,31.619 C256.176,31.049 255.879,30.56 255.501,30.152 C255.123,29.744 254.673,29.423 254.151,29.189 C253.629,28.955 253.062,28.838 252.45,28.838 C251.826,28.838 251.244,28.958 250.704,29.198 C250.164,29.438 249.699,29.765 249.309,30.179 C248.919,30.593 248.613,31.085 248.391,31.655 C248.169,32.225 248.058,32.84 248.058,33.5 C248.058,34.148 248.178,34.76 248.418,35.336 C248.658,35.912 248.982,36.41 249.39,36.83 C249.798,37.25 250.284,37.58 250.848,37.82 C251.412,38.06 252.012,38.18 252.648,38.18 Z M254.79,32.744 L250.092,32.744 C250.212,32.06 250.482,31.514 250.902,31.106 C251.322,30.698 251.832,30.494 252.432,30.494 C253.032,30.494 253.545,30.704 253.971,31.124 C254.397,31.544 254.67,32.084 254.79,32.744 L254.79,32.744 Z M260.82,38 L260.82,31.502 C261.048,31.166 261.312,30.911 261.612,30.737 C261.912,30.563 262.242,30.476 262.602,30.476 C263.154,30.476 263.595,30.665 263.925,31.043 C264.255,31.421 264.42,31.922 264.42,32.546 L264.42,32.546 L264.42,38 L266.454,38 L266.454,32.114 C266.454,32.018 266.451,31.922 266.445,31.826 C266.439,31.73 266.43,31.634 266.418,31.538 C266.658,31.19 266.928,30.926 267.228,30.746 C267.528,30.566 267.864,30.476 268.236,30.476 C268.788,30.476 269.229,30.665 269.559,31.043 C269.889,31.421 270.054,31.922 270.054,32.546 L270.054,32.546 L270.054,38 L272.088,38 L272.088,32.114 C272.088,31.154 271.812,30.368 271.26,29.756 C270.708,29.144 270,28.838 269.136,28.838 C268.5,28.838 267.927,28.985 267.417,29.279 C266.907,29.573 266.484,30.008 266.148,30.584 C265.92,30.056 265.572,29.633 265.104,29.315 C264.636,28.997 264.102,28.838 263.502,28.838 C262.95,28.838 262.449,28.973 261.999,29.243 C261.549,29.513 261.156,29.906 260.82,30.422 L260.82,30.422 L260.82,28.982 L258.786,28.982 L258.786,38 L260.82,38 Z M278.73,38.18 C279.426,38.18 280.059,38.072 280.629,37.856 C281.199,37.64 281.76,37.304 282.312,36.848 L282.312,36.848 L280.98,35.606 C280.728,35.87 280.413,36.077 280.035,36.227 C279.657,36.377 279.258,36.452 278.838,36.452 C278.154,36.452 277.557,36.218 277.047,35.75 C276.537,35.282 276.234,34.694 276.138,33.986 L276.138,33.986 L282.798,33.986 L282.798,33.482 C282.798,32.81 282.69,32.189 282.474,31.619 C282.258,31.049 281.961,30.56 281.583,30.152 C281.205,29.744 280.755,29.423 280.233,29.189 C279.711,28.955 279.144,28.838 278.532,28.838 C277.908,28.838 277.326,28.958 276.786,29.198 C276.246,29.438 275.781,29.765 275.391,30.179 C275.001,30.593 274.695,31.085 274.473,31.655 C274.251,32.225 274.14,32.84 274.14,33.5 C274.14,34.148 274.26,34.76 274.5,35.336 C274.74,35.912 275.064,36.41 275.472,36.83 C275.88,37.25 276.366,37.58 276.93,37.82 C277.494,38.06 278.094,38.18 278.73,38.18 Z M280.872,32.744 L276.174,32.744 C276.294,32.06 276.564,31.514 276.984,31.106 C277.404,30.698 277.914,30.494 278.514,30.494 C279.114,30.494 279.627,30.704 280.053,31.124 C280.479,31.544 280.752,32.084 280.872,32.744 L280.872,32.744 Z M286.902,38 L286.902,31.556 C287.142,31.208 287.427,30.941 287.757,30.755 C288.087,30.569 288.456,30.476 288.864,30.476 C289.464,30.476 289.944,30.674 290.304,31.07 C290.664,31.466 290.844,31.988 290.844,32.636 L290.844,32.636 L290.844,38 L292.878,38 L292.878,32.06 C292.878,31.124 292.587,30.353 292.005,29.747 C291.423,29.141 290.676,28.838 289.764,28.838 C289.164,28.838 288.621,28.976 288.135,29.252 C287.649,29.528 287.238,29.93 286.902,30.458 L286.902,30.458 L286.902,28.982 L284.868,28.982 L284.868,38 L286.902,38 Z M299.232,38.144 C299.496,38.144 299.787,38.123 300.105,38.081 C300.423,38.039 300.714,37.976 300.978,37.892 L300.978,37.892 L300.978,36.182 C300.714,36.266 300.495,36.323 300.321,36.353 C300.147,36.383 299.958,36.398 299.754,36.398 C299.298,36.398 298.974,36.305 298.782,36.119 C298.59,35.933 298.494,35.618 298.494,35.174 L298.494,35.174 L298.494,30.602 L301.014,30.602 L301.014,28.982 L298.494,28.982 L298.494,26.066 L296.46,26.498 L296.46,28.982 L294.642,28.982 L294.642,30.602 L296.46,30.602 L296.46,35.624 C296.46,36.452 296.697,37.079 297.171,37.505 C297.645,37.931 298.332,38.144 299.232,38.144 Z M310.104,38 L310.104,30.602 L312.534,30.602 L312.534,28.982 L310.104,28.982 L310.104,27.416 C310.104,26.972 310.212,26.645 310.428,26.435 C310.644,26.225 310.986,26.12 311.454,26.12 C311.634,26.12 311.802,26.132 311.958,26.156 C312.114,26.18 312.306,26.216 312.534,26.264 L312.534,26.264 L312.534,24.536 C312.366,24.488 312.159,24.446 311.913,24.41 C311.667,24.374 311.424,24.356 311.184,24.356 C310.176,24.356 309.405,24.617 308.871,25.139 C308.337,25.661 308.07,26.408 308.07,27.38 L308.07,27.38 L308.07,28.982 L306.126,28.982 L306.126,30.602 L308.07,30.602 L308.07,38 L310.104,38 Z M318.366,38.18 C319.002,38.18 319.599,38.06 320.157,37.82 C320.715,37.58 321.195,37.253 321.597,36.839 C321.999,36.425 322.317,35.93 322.551,35.354 C322.785,34.778 322.902,34.16 322.902,33.5 C322.902,32.84 322.788,32.225 322.56,31.655 C322.332,31.085 322.014,30.593 321.606,30.179 C321.198,29.765 320.718,29.438 320.166,29.198 C319.614,28.958 319.014,28.838 318.366,28.838 C317.73,28.838 317.133,28.958 316.575,29.198 C316.017,29.438 315.537,29.765 315.135,30.179 C314.733,30.593 314.415,31.085 314.181,31.655 C313.947,32.225 313.83,32.84 313.83,33.5 C313.83,34.16 313.947,34.775 314.181,35.345 C314.415,35.915 314.733,36.41 315.135,36.83 C315.537,37.25 316.017,37.58 316.575,37.82 C317.133,38.06 317.73,38.18 318.366,38.18 Z M318.366,36.416 C317.634,36.416 317.031,36.143 316.557,35.597 C316.083,35.051 315.846,34.358 315.846,33.518 C315.846,32.666 316.083,31.964 316.557,31.412 C317.031,30.86 317.634,30.584 318.366,30.584 C319.086,30.584 319.686,30.86 320.166,31.412 C320.646,31.964 320.886,32.666 320.886,33.518 C320.886,34.346 320.649,35.036 320.175,35.588 C319.701,36.14 319.098,36.416 318.366,36.416 Z M327.042,38 L327.042,32.06 C327.27,31.592 327.582,31.226 327.978,30.962 C328.374,30.698 328.812,30.566 329.292,30.566 C329.484,30.566 329.679,30.584 329.877,30.62 C330.075,30.656 330.252,30.71 330.408,30.782 L330.408,30.782 L330.408,29 C330.252,28.94 330.108,28.898 329.976,28.874 C329.844,28.85 329.694,28.832 329.526,28.82 C328.962,28.82 328.467,29.003 328.041,29.369 C327.615,29.735 327.282,30.26 327.042,30.944 L327.042,30.944 L327.042,28.982 L325.008,28.982 L325.008,38 L327.042,38 Z M338.544,38 L338.544,32.078 L344.016,38 L346.878,38 L340.668,31.466 L346.644,25.4 L344.016,25.4 L338.544,31.16 L338.544,25.4 L336.384,25.4 L336.384,38 L338.544,38 Z M351.216,38.144 C351.828,38.144 352.377,38.003 352.863,37.721 C353.349,37.439 353.76,37.034 354.096,36.506 L354.096,36.506 L354.096,38 L356.13,38 L356.13,28.982 L354.096,28.982 L354.096,35.39 C353.856,35.762 353.568,36.041 353.232,36.227 C352.896,36.413 352.524,36.506 352.116,36.506 C351.516,36.506 351.036,36.308 350.676,35.912 C350.316,35.516 350.136,34.994 350.136,34.346 L350.136,34.346 L350.136,28.982 L348.102,28.982 L348.102,34.922 C348.102,35.87 348.393,36.644 348.975,37.244 C349.557,37.844 350.304,38.144 351.216,38.144 Z M363.294,38.09 C363.882,38.09 364.434,37.97 364.95,37.73 C365.466,37.49 365.916,37.166 366.3,36.758 C366.684,36.35 366.984,35.864 367.2,35.3 C367.416,34.736 367.524,34.136 367.524,33.5 C367.524,32.864 367.419,32.267 367.209,31.709 C366.999,31.151 366.711,30.665 366.345,30.251 C365.979,29.837 365.544,29.51 365.04,29.27 C364.536,29.03 364.002,28.91 363.438,28.91 C362.874,28.91 362.349,29.024 361.863,29.252 C361.377,29.48 360.978,29.792 360.666,30.188 L360.666,30.188 L360.666,24.788 L358.632,25.13 L358.632,38 L360.63,38 L360.63,36.83 C360.954,37.238 361.347,37.55 361.809,37.766 C362.271,37.982 362.766,38.09 363.294,38.09 Z M362.826,36.38 C362.394,36.38 361.992,36.293 361.62,36.119 C361.248,35.945 360.93,35.702 360.666,35.39 L360.666,35.39 L360.666,31.628 C360.93,31.292 361.245,31.04 361.611,30.872 C361.977,30.704 362.382,30.62 362.826,30.62 C363.582,30.62 364.218,30.896 364.734,31.448 C365.25,32 365.508,32.684 365.508,33.5 C365.508,34.328 365.253,35.015 364.743,35.561 C364.233,36.107 363.594,36.38 362.826,36.38 Z M373.806,38.18 C374.502,38.18 375.135,38.072 375.705,37.856 C376.275,37.64 376.836,37.304 377.388,36.848 L377.388,36.848 L376.056,35.606 C375.804,35.87 375.489,36.077 375.111,36.227 C374.733,36.377 374.334,36.452 373.914,36.452 C373.23,36.452 372.633,36.218 372.123,35.75 C371.613,35.282 371.31,34.694 371.214,33.986 L371.214,33.986 L377.874,33.986 L377.874,33.482 C377.874,32.81 377.766,32.189 377.55,31.619 C377.334,31.049 377.037,30.56 376.659,30.152 C376.281,29.744 375.831,29.423 375.309,29.189 C374.787,28.955 374.22,28.838 373.608,28.838 C372.984,28.838 372.402,28.958 371.862,29.198 C371.322,29.438 370.857,29.765 370.467,30.179 C370.077,30.593 369.771,31.085 369.549,31.655 C369.327,32.225 369.216,32.84 369.216,33.5 C369.216,34.148 369.336,34.76 369.576,35.336 C369.816,35.912 370.14,36.41 370.548,36.83 C370.956,37.25 371.442,37.58 372.006,37.82 C372.57,38.06 373.17,38.18 373.806,38.18 Z M375.948,32.744 L371.25,32.744 C371.37,32.06 371.64,31.514 372.06,31.106 C372.48,30.698 372.99,30.494 373.59,30.494 C374.19,30.494 374.703,30.704 375.129,31.124 C375.555,31.544 375.828,32.084 375.948,32.744 L375.948,32.744 Z M381.978,38 L381.978,32.06 C382.206,31.592 382.518,31.226 382.914,30.962 C383.31,30.698 383.748,30.566 384.228,30.566 C384.42,30.566 384.615,30.584 384.813,30.62 C385.011,30.656 385.188,30.71 385.344,30.782 L385.344,30.782 L385.344,29 C385.188,28.94 385.044,28.898 384.912,28.874 C384.78,28.85 384.63,28.832 384.462,28.82 C383.898,28.82 383.403,29.003 382.977,29.369 C382.551,29.735 382.218,30.26 381.978,30.944 L381.978,30.944 L381.978,28.982 L379.944,28.982 L379.944,38 L381.978,38 Z M389.052,38 L389.052,31.556 C389.292,31.208 389.577,30.941 389.907,30.755 C390.237,30.569 390.606,30.476 391.014,30.476 C391.614,30.476 392.094,30.674 392.454,31.07 C392.814,31.466 392.994,31.988 392.994,32.636 L392.994,32.636 L392.994,38 L395.028,38 L395.028,32.06 C395.028,31.124 394.737,30.353 394.155,29.747 C393.573,29.141 392.826,28.838 391.914,28.838 C391.314,28.838 390.771,28.976 390.285,29.252 C389.799,29.528 389.388,29.93 389.052,30.458 L389.052,30.458 L389.052,28.982 L387.018,28.982 L387.018,38 L389.052,38 Z M401.67,38.18 C402.366,38.18 402.999,38.072 403.569,37.856 C404.139,37.64 404.7,37.304 405.252,36.848 L405.252,36.848 L403.92,35.606 C403.668,35.87 403.353,36.077 402.975,36.227 C402.597,36.377 402.198,36.452 401.778,36.452 C401.094,36.452 400.497,36.218 399.987,35.75 C399.477,35.282 399.174,34.694 399.078,33.986 L399.078,33.986 L405.738,33.986 L405.738,33.482 C405.738,32.81 405.63,32.189 405.414,31.619 C405.198,31.049 404.901,30.56 404.523,30.152 C404.145,29.744 403.695,29.423 403.173,29.189 C402.651,28.955 402.084,28.838 401.472,28.838 C400.848,28.838 400.266,28.958 399.726,29.198 C399.186,29.438 398.721,29.765 398.331,30.179 C397.941,30.593 397.635,31.085 397.413,31.655 C397.191,32.225 397.08,32.84 397.08,33.5 C397.08,34.148 397.2,34.76 397.44,35.336 C397.68,35.912 398.004,36.41 398.412,36.83 C398.82,37.25 399.306,37.58 399.87,37.82 C400.434,38.06 401.034,38.18 401.67,38.18 Z M403.812,32.744 L399.114,32.744 C399.234,32.06 399.504,31.514 399.924,31.106 C400.344,30.698 400.854,30.494 401.454,30.494 C402.054,30.494 402.567,30.704 402.993,31.124 C403.419,31.544 403.692,32.084 403.812,32.744 L403.812,32.744 Z M411.696,38.144 C411.96,38.144 412.251,38.123 412.569,38.081 C412.887,38.039 413.178,37.976 413.442,37.892 L413.442,37.892 L413.442,36.182 C413.178,36.266 412.959,36.323 412.785,36.353 C412.611,36.383 412.422,36.398 412.218,36.398 C411.762,36.398 411.438,36.305 411.246,36.119 C411.054,35.933 410.958,35.618 410.958,35.174 L410.958,35.174 L410.958,30.602 L413.478,30.602 L413.478,28.982 L410.958,28.982 L410.958,26.066 L408.924,26.498 L408.924,28.982 L407.106,28.982 L407.106,30.602 L408.924,30.602 L408.924,35.624 C408.924,36.452 409.161,37.079 409.635,37.505 C410.109,37.931 410.796,38.144 411.696,38.144 Z M419.436,38.18 C420.132,38.18 420.765,38.072 421.335,37.856 C421.905,37.64 422.466,37.304 423.018,36.848 L423.018,36.848 L421.686,35.606 C421.434,35.87 421.119,36.077 420.741,36.227 C420.363,36.377 419.964,36.452 419.544,36.452 C418.86,36.452 418.263,36.218 417.753,35.75 C417.243,35.282 416.94,34.694 416.844,33.986 L416.844,33.986 L423.504,33.986 L423.504,33.482 C423.504,32.81 423.396,32.189 423.18,31.619 C422.964,31.049 422.667,30.56 422.289,30.152 C421.911,29.744 421.461,29.423 420.939,29.189 C420.417,28.955 419.85,28.838 419.238,28.838 C418.614,28.838 418.032,28.958 417.492,29.198 C416.952,29.438 416.487,29.765 416.097,30.179 C415.707,30.593 415.401,31.085 415.179,31.655 C414.957,32.225 414.846,32.84 414.846,33.5 C414.846,34.148 414.966,34.76 415.206,35.336 C415.446,35.912 415.77,36.41 416.178,36.83 C416.586,37.25 417.072,37.58 417.636,37.82 C418.2,38.06 418.8,38.18 419.436,38.18 Z M421.578,32.744 L416.88,32.744 C417,32.06 417.27,31.514 417.69,31.106 C418.11,30.698 418.62,30.494 419.22,30.494 C419.82,30.494 420.333,30.704 420.759,31.124 C421.185,31.544 421.458,32.084 421.578,32.744 L421.578,32.744 Z M428.652,38.18 C429.168,38.18 429.651,38.105 430.101,37.955 C430.551,37.805 430.941,37.598 431.271,37.334 C431.601,37.07 431.859,36.758 432.045,36.398 C432.231,36.038 432.324,35.654 432.324,35.246 C432.324,34.574 432.105,34.028 431.667,33.608 C431.229,33.188 430.56,32.894 429.66,32.726 L429.66,32.726 L428.076,32.438 C427.596,32.354 427.263,32.24 427.077,32.096 C426.891,31.952 426.798,31.736 426.798,31.448 C426.798,31.112 426.939,30.851 427.221,30.665 C427.503,30.479 427.878,30.386 428.346,30.386 C428.802,30.386 429.252,30.455 429.696,30.593 C430.14,30.731 430.596,30.95 431.064,31.25 L431.064,31.25 L432.018,29.918 C431.442,29.546 430.863,29.273 430.281,29.099 C429.699,28.925 429.096,28.838 428.472,28.838 C427.428,28.838 426.585,29.093 425.943,29.603 C425.301,30.113 424.98,30.788 424.98,31.628 C424.98,32.3 425.199,32.843 425.637,33.257 C426.075,33.671 426.726,33.956 427.59,34.112 L427.59,34.112 L429.192,34.382 C429.624,34.466 429.939,34.589 430.137,34.751 C430.335,34.913 430.434,35.132 430.434,35.408 C430.434,35.768 430.266,36.059 429.93,36.281 C429.594,36.503 429.156,36.614 428.616,36.614 C428.16,36.614 427.71,36.536 427.266,36.38 C426.822,36.224 426.306,35.96 425.718,35.588 L425.718,35.588 L424.764,36.956 C425.244,37.352 425.817,37.655 426.483,37.865 C427.149,38.075 427.872,38.18 428.652,38.18 Z" id="AdvancedClusterManagementforKubernetes" fill="#FFFFFF"></path>
                        <g id="red-hat-1">
                            <path d="M19.3439979,13.3285556 C21.2483846,13.3285556 24.0059364,12.9313333 24.0059364,10.6595278 C24.0121349,10.4841403 23.9967844,10.3086546 23.9602312,10.1370278 L22.8252167,5.19466667 C22.5631731,4.10688889 22.3331232,3.61341667 20.4287365,2.65855556 C18.952456,1.90077778 15.7302338,0.648 14.7780405,0.648 C13.894405,0.648 13.6354085,1.79383333 12.578093,1.79383333 C11.5603888,1.79383333 10.8047281,0.938277778 9.85101129,0.938277778 C8.9369057,0.938277778 8.34273706,1.56466667 7.88263725,2.848 C7.88263725,2.848 6.60288941,6.47188889 6.43530339,6.99744444 C6.41017775,7.09411244 6.39990286,7.19405811 6.4048332,7.29383333 C6.4048332,8.70244444 11.9351721,13.3209167 19.3439979,13.3209167 M24.2999737,11.5823056 C24.5635408,12.8350833 24.5635408,12.9649444 24.5635408,13.1299444 C24.5635408,15.2688333 22.1655372,16.4559167 19.0133964,16.4559167 C11.8894668,16.4605 5.64917258,12.2743889 5.64917258,9.50911111 C5.64807131,9.12357606 5.72584997,8.74191283 5.87769898,8.38772222 C3.32125033,8.51605556 0,8.97438889 0,11.9107778 C0,16.7202222 11.3653796,22.648 20.3617021,22.648 C27.2601524,22.648 29,19.5191111 29,17.0486944 C29,15.1053611 27.3241397,12.89925 24.3030208,11.5823056" id="Shape" fill="#EE0000"></path>
                            <path d="M24.7352398,11.4920259 C25,12.817385 25,12.9547698 25,13.1293292 C25,15.3921375 22.5911412,16.648 19.4247316,16.648 C12.2685539,16.6528449 6,12.224206 6,9.2987182 C5.99890533,8.89084667 6.07703607,8.48707128 6.22957246,8.11236017 L6.7912314,6.648 C6.76557461,6.74801992 6.75422611,6.85152998 6.75756247,6.9550954 C6.75756247,8.44531624 12.3129356,13.3313657 19.7568296,13.3313657 C21.6698369,13.3313657 24.4398715,12.9143625 24.4398715,10.5093206 C24.4462241,10.3232334 24.4308035,10.1370296 24.3939593,9.95493258 L24.7352398,11.4920259 Z" id="Path" fill="#000000"></path>
                        </g>
                    </g>
                </g>
            </g>
        </g>
    </g>
</svg>