<svg width="433" height="42" xmlns="http://www.w3.org/2000/svg"><g fill-rule="nonzero" fill="none"><path d="M36.82 18.8V6.48h6.302c.633 0 1.217.097 1.75.29a4.09 4.09 0 011.374.81c.38.346.68.76.897 1.24.217.482.326 1.01.326 1.585 0 .774-.211 1.466-.634 2.077a4.034 4.034 0 01-1.672 1.39l2.693 4.928h-3.38l-2.322-4.488h-2.306V18.8h-3.027zm6.02-9.733h-2.992v2.781h2.992c.47 0 .848-.13 1.135-.387.288-.258.431-.593.431-1.003 0-.411-.143-.745-.43-1.004-.288-.258-.667-.387-1.136-.387zm13.885 8.501c-.587.493-1.188.85-1.804 1.074-.616.223-1.311.334-2.086.334a5.35 5.35 0 01-1.989-.37 4.9 4.9 0 01-1.61-1.02 4.848 4.848 0 01-1.074-1.54 4.596 4.596 0 01-.396-1.892c0-.67.127-1.3.379-1.892a4.826 4.826 0 011.03-1.54 4.709 4.709 0 011.54-1.021 4.923 4.923 0 011.909-.37 4.545 4.545 0 013.37 1.443c.417.446.743.983.977 1.61a5.76 5.76 0 01.352 2.034v.704h-6.635c.188.434.481.789.88 1.064.399.276.868.414 1.408.414.387 0 .74-.062 1.056-.185.317-.123.587-.296.81-.519l1.883 1.672zm-4.154-5.914c-.47 0-.874.13-1.214.388-.34.258-.581.621-.722 1.09h3.89a2.247 2.247 0 00-.748-1.073 1.905 1.905 0 00-1.206-.405zM65.418 18.8v-.686a4.468 4.468 0 01-1.18.598c-.422.14-.862.211-1.32.211a4.705 4.705 0 01-3.37-1.39 4.831 4.831 0 01-1.012-1.523 4.75 4.75 0 01-.37-1.874c0-.669.127-1.294.379-1.874a4.774 4.774 0 011.03-1.514 4.78 4.78 0 011.54-1.012 4.878 4.878 0 011.891-.37c.435 0 .851.053 1.25.159.399.105.774.258 1.126.457V6.48l2.852-.616V18.8h-2.816zm-4.453-4.664c0 .669.237 1.23.713 1.68.475.453 1.053.678 1.733.678.4 0 .763-.061 1.091-.184a2.57 2.57 0 00.88-.555V12.5a2.749 2.749 0 00-.88-.528 3.05 3.05 0 00-1.09-.193c-.693 0-1.274.225-1.743.677-.47.452-.704 1.012-.704 1.681zM73.246 18.8V6.48h3.028v4.734h5.068V6.48h3.028V18.8h-3.028v-4.822h-5.068V18.8h-3.028zm15.663.158c-.986 0-1.795-.27-2.429-.81-.634-.539-.95-1.231-.95-2.076 0-.88.337-1.566 1.012-2.06.674-.492 1.616-.738 2.824-.738.364 0 .722.023 1.074.07.352.047.698.111 1.038.194v-.458c0-.47-.15-.818-.448-1.047-.3-.229-.743-.343-1.33-.343-.363 0-.774.058-1.231.176-.458.117-.986.305-1.584.563l-1.021-2.095c.75-.34 1.487-.595 2.209-.765a9.295 9.295 0 012.138-.255c1.29 0 2.294.308 3.01.924.716.616 1.073 1.48 1.073 2.596V18.8h-2.816v-.563a3.84 3.84 0 01-1.188.554 5.34 5.34 0 01-1.381.167zm-.669-2.939c0 .294.13.522.387.687.258.164.616.246 1.074.246.34 0 .66-.035.959-.106.3-.07.572-.181.818-.334v-1.197a6.436 6.436 0 00-.827-.158 6.947 6.947 0 00-.862-.053c-.493 0-.874.08-1.144.238-.27.158-.405.384-.405.677zm8.552-.053v-4.1h-1.883V9.49h1.883V7.096l2.851-.616v3.01h2.605v2.376h-2.605v3.537c0 .41.091.701.273.871.182.17.502.256.96.256.222 0 .433-.015.633-.044.2-.03.416-.08.651-.15v2.306c-.258.082-.587.15-.986.202-.399.053-.733.08-1.003.08-1.114 0-1.956-.25-2.525-.749-.57-.498-.854-1.235-.854-2.209zM38.358 38l1.296-3.528h5.184L46.116 38h2.322L43.56 25.4h-2.502L36.108 38h2.25zm5.85-5.22h-3.924l1.98-5.364 1.944 5.364zm9.27 5.31c.564 0 1.089-.114 1.575-.342a3.18 3.18 0 001.197-.954V38h2.016V24.788l-2.034.342v4.968a3.66 3.66 0 00-1.179-.873 3.384 3.384 0 00-1.449-.315c-.588 0-1.14.12-1.656.36s-.963.564-1.341.972a4.471 4.471 0 00-.891 1.458 4.99 4.99 0 00-.324 1.8c0 .636.105 1.233.315 1.791.21.558.498 1.044.864 1.458.366.414.801.741 1.305.981a3.68 3.68 0 001.602.36zm.612-1.71a2.509 2.509 0 01-1.908-.828c-.516-.552-.774-1.236-.774-2.052 0-.828.255-1.515.765-2.061s1.149-.819 1.917-.819c.42 0 .816.087 1.188.261.372.174.69.411.954.711v3.798c-.264.324-.579.57-.945.738a2.835 2.835 0 01-1.197.252zM65.376 38l3.708-9.018h-2.142L64.44 35.57l-2.502-6.588h-2.214L63.414 38h1.962zm7.902.144c.516 0 .99-.084 1.422-.252a4.078 4.078 0 001.26-.81V38h2.016v-5.886c0-1.044-.324-1.851-.972-2.421-.648-.57-1.554-.855-2.718-.855-.6 0-1.206.075-1.818.225-.612.15-1.254.381-1.926.693l.72 1.476c.516-.24.99-.417 1.422-.531a4.744 4.744 0 011.206-.171c.684 0 1.2.153 1.548.459.348.306.522.753.522 1.341v.99a5.506 5.506 0 00-2.43-.558c-1.056 0-1.893.24-2.511.72-.618.48-.927 1.122-.927 1.926 0 .804.297 1.461.891 1.971.594.51 1.359.765 2.295.765zm.558-1.422c-.552 0-.996-.123-1.332-.369a1.157 1.157 0 01-.504-.981c0-.396.168-.711.504-.945.336-.234.792-.351 1.368-.351.396 0 .762.033 1.098.099.336.066.666.177.99.333v1.476c-.3.252-.627.438-.981.558-.354.12-.735.18-1.143.18zM82.476 38v-6.444c.24-.348.525-.615.855-.801.33-.186.699-.279 1.107-.279.6 0 1.08.198 1.44.594.36.396.54.918.54 1.566V38h2.034v-5.94c0-.936-.291-1.707-.873-2.313-.582-.606-1.329-.909-2.241-.909-.6 0-1.143.138-1.629.414-.486.276-.897.678-1.233 1.206v-1.476h-2.034V38h2.034zm12.582.18c.684 0 1.338-.141 1.962-.423a4.523 4.523 0 001.566-1.143l-1.224-1.224c-.264.324-.585.57-.963.738a2.958 2.958 0 01-1.215.252c-.756 0-1.386-.276-1.89-.828-.504-.552-.756-1.236-.756-2.052 0-.804.252-1.485.756-2.043s1.116-.837 1.836-.837c.432 0 .84.09 1.224.27.384.18.732.444 1.044.792l1.26-1.314a4.569 4.569 0 00-1.611-1.116 5.095 5.095 0 00-1.989-.396c-.636 0-1.233.12-1.791.36a4.515 4.515 0 00-1.449.981 4.525 4.525 0 00-.963 1.476 4.763 4.763 0 00-.351 1.827c0 .648.117 1.26.351 1.836a4.445 4.445 0 002.412 2.484c.558.24 1.155.36 1.791.36zm9.45 0c.696 0 1.329-.108 1.899-.324.57-.216 1.131-.552 1.683-1.008l-1.332-1.242a2.62 2.62 0 01-.945.621c-.378.15-.777.225-1.197.225a2.564 2.564 0 01-1.791-.702 2.836 2.836 0 01-.909-1.764h6.66v-.504c0-.672-.108-1.293-.324-1.863a4.452 4.452 0 00-.891-1.467 4.11 4.11 0 00-3.051-1.314 4.283 4.283 0 00-3.141 1.341c-.39.414-.696.906-.918 1.476a5.04 5.04 0 00-.333 1.845c0 .648.12 1.26.36 1.836.24.576.564 1.074.972 1.494a4.549 4.549 0 003.258 1.35zm2.142-5.436h-4.698c.12-.684.39-1.23.81-1.638.42-.408.93-.612 1.53-.612s1.113.21 1.539.63c.426.42.699.96.819 1.62zm7.668 5.346c.564 0 1.089-.114 1.575-.342a3.18 3.18 0 001.197-.954V38h2.016V24.788l-2.034.342v4.968a3.66 3.66 0 00-1.179-.873 3.384 3.384 0 00-1.449-.315c-.588 0-1.14.12-1.656.36s-.963.564-1.341.972a4.471 4.471 0 00-.891 1.458 4.99 4.99 0 00-.324 1.8c0 .636.105 1.233.315 1.791.21.558.498 1.044.864 1.458.366.414.801.741 1.305.981a3.68 3.68 0 001.602.36zm.612-1.71a2.509 2.509 0 01-1.908-.828c-.516-.552-.774-1.236-.774-2.052 0-.828.255-1.515.765-2.061s1.149-.819 1.917-.819c.42 0 .816.087 1.188.261.372.174.69.411.954.711v3.798c-.264.324-.579.57-.945.738a2.835 2.835 0 01-1.197.252zm16.92 1.8a6.35 6.35 0 002.691-.594 6.3 6.3 0 002.169-1.62l-1.422-1.368a4.472 4.472 0 01-1.521 1.215 4.178 4.178 0 01-1.845.423 4.299 4.299 0 01-1.728-.351 4.304 4.304 0 01-1.395-.954 4.351 4.351 0 01-.918-1.44 4.8 4.8 0 01-.333-1.791c0-.648.111-1.251.333-1.809a4.62 4.62 0 01.9-1.449 4.086 4.086 0 011.359-.963 4.172 4.172 0 011.71-.351c.66 0 1.29.153 1.89.459a4.79 4.79 0 011.566 1.287l1.458-1.44a5.988 5.988 0 00-2.169-1.638 6.551 6.551 0 00-2.745-.594 6.542 6.542 0 00-4.635 1.881 6.435 6.435 0 00-1.377 2.061 6.476 6.476 0 00-.504 2.556c0 .9.168 1.746.504 2.538a6.435 6.435 0 001.377 2.061 6.542 6.542 0 004.635 1.881zm8.874-.18V24.788l-2.034.342V38h2.034zm5.562.144c.612 0 1.161-.141 1.647-.423.486-.282.897-.687 1.233-1.215V38h2.034v-9.018h-2.034v6.408c-.24.372-.528.651-.864.837a2.265 2.265 0 01-1.116.279c-.6 0-1.08-.198-1.44-.594-.36-.396-.54-.918-.54-1.566v-5.364h-2.034v5.94c0 .948.291 1.722.873 2.322.582.6 1.329.9 2.241.9zm10.494.036c.516 0 .999-.075 1.449-.225.45-.15.84-.357 1.17-.621.33-.264.588-.576.774-.936.186-.36.279-.744.279-1.152 0-.672-.219-1.218-.657-1.638-.438-.42-1.107-.714-2.007-.882l-1.584-.288c-.48-.084-.813-.198-.999-.342-.186-.144-.279-.36-.279-.648 0-.336.141-.597.423-.783.282-.186.657-.279 1.125-.279.456 0 .906.069 1.35.207.444.138.9.357 1.368.657l.954-1.332a6.795 6.795 0 00-1.737-.819 6.281 6.281 0 00-1.809-.261c-1.044 0-1.887.255-2.529.765-.642.51-.963 1.185-.963 2.025 0 .672.219 1.215.657 1.629.438.414 1.089.699 1.953.855l1.602.27c.432.084.747.207.945.369a.804.804 0 01.297.657c0 .36-.168.651-.504.873-.336.222-.774.333-1.314.333-.456 0-.906-.078-1.35-.234-.444-.156-.96-.42-1.548-.792l-.954 1.368c.48.396 1.053.699 1.719.909.666.21 1.389.315 2.169.315zm9.432-.036c.264 0 .555-.021.873-.063.318-.042.609-.105.873-.189v-1.71a5.133 5.133 0 01-.657.171c-.174.03-.363.045-.567.045-.456 0-.78-.093-.972-.279-.192-.186-.288-.501-.288-.945v-4.572h2.52v-1.62h-2.52v-2.916l-2.034.432v2.484h-1.818v1.62h1.818v5.022c0 .828.237 1.455.711 1.881.474.426 1.161.639 2.061.639zm7.74.036c.696 0 1.329-.108 1.899-.324.57-.216 1.131-.552 1.683-1.008l-1.332-1.242a2.62 2.62 0 01-.945.621c-.378.15-.777.225-1.197.225a2.564 2.564 0 01-1.791-.702 2.836 2.836 0 01-.909-1.764h6.66v-.504c0-.672-.108-1.293-.324-1.863a4.452 4.452 0 00-.891-1.467 4.11 4.11 0 00-3.051-1.314 4.283 4.283 0 00-3.141 1.341c-.39.414-.696.906-.918 1.476a5.04 5.04 0 00-.333 1.845c0 .648.12 1.26.36 1.836.24.576.564 1.074.972 1.494a4.549 4.549 0 003.258 1.35zm2.142-5.436h-4.698c.12-.684.39-1.23.81-1.638.42-.408.93-.612 1.53-.612s1.113.21 1.539.63c.426.42.699.96.819 1.62zm6.03 5.256v-5.94c.228-.468.54-.834.936-1.098a2.318 2.318 0 011.314-.396c.192 0 .387.018.585.054.198.036.375.09.531.162V29c-.156-.06-.3-.102-.432-.126a4.215 4.215 0 00-.45-.054 2.21 2.21 0 00-1.485.549c-.426.366-.759.891-.999 1.575v-1.962h-2.034V38h2.034zm11.34 0v-9.882l4.482 8.982 4.464-8.928V38h2.034V25.4h-2.808l-3.672 7.632-3.69-7.632h-2.808V38h1.998zm16.506.144c.516 0 .99-.084 1.422-.252a4.078 4.078 0 001.26-.81V38h2.016v-5.886c0-1.044-.324-1.851-.972-2.421-.648-.57-1.554-.855-2.718-.855-.6 0-1.206.075-1.818.225-.612.15-1.254.381-1.926.693l.72 1.476c.516-.24.99-.417 1.422-.531a4.744 4.744 0 011.206-.171c.684 0 1.2.153 1.548.459.348.306.522.753.522 1.341v.99a5.506 5.506 0 00-2.43-.558c-1.056 0-1.893.24-2.511.72-.618.48-.927 1.122-.927 1.926 0 .804.297 1.461.891 1.971.594.51 1.359.765 2.295.765zm.558-1.422c-.552 0-.996-.123-1.332-.369a1.157 1.157 0 01-.504-.981c0-.396.168-.711.504-.945.336-.234.792-.351 1.368-.351.396 0 .762.033 1.098.099.336.066.666.177.99.333v1.476c-.3.252-.627.438-.981.558-.354.12-.735.18-1.143.18zm8.64 1.278v-6.444c.24-.348.525-.615.855-.801.33-.186.699-.279 1.107-.279.6 0 1.08.198 1.44.594.36.396.54.918.54 1.566V38h2.034v-5.94c0-.936-.291-1.707-.873-2.313-.582-.606-1.329-.909-2.241-.909-.6 0-1.143.138-1.629.414-.486.276-.897.678-1.233 1.206v-1.476h-2.034V38h2.034zm11.178.144c.516 0 .99-.084 1.422-.252a4.078 4.078 0 001.26-.81V38h2.016v-5.886c0-1.044-.324-1.851-.972-2.421-.648-.57-1.554-.855-2.718-.855-.6 0-1.206.075-1.818.225-.612.15-1.254.381-1.926.693l.72 1.476c.516-.24.99-.417 1.422-.531a4.744 4.744 0 011.206-.171c.684 0 1.2.153 1.548.459.348.306.522.753.522 1.341v.99a5.506 5.506 0 00-2.43-.558c-1.056 0-1.893.24-2.511.72-.618.48-.927 1.122-.927 1.926 0 .804.297 1.461.891 1.971.594.51 1.359.765 2.295.765zm.558-1.422c-.552 0-.996-.123-1.332-.369a1.157 1.157 0 01-.504-.981c0-.396.168-.711.504-.945.336-.234.792-.351 1.368-.351.396 0 .762.033 1.098.099.336.066.666.177.99.333v1.476c-.3.252-.627.438-.981.558-.354.12-.735.18-1.143.18zm10.818 5.184c1.356 0 2.403-.312 3.141-.936.738-.624 1.107-1.512 1.107-2.664v-9.324h-2.016v1.152a3.422 3.422 0 00-2.646-1.224c-.588 0-1.14.117-1.656.351a4.137 4.137 0 00-1.341.963 4.471 4.471 0 00-.891 1.458 4.99 4.99 0 00-.324 1.8c0 .636.105 1.233.315 1.791.21.558.498 1.041.864 1.449.366.408.801.732 1.305.972a3.68 3.68 0 001.602.36 3.62 3.62 0 001.557-.342c.486-.228.885-.54 1.197-.936v1.53c0 .648-.195 1.143-.585 1.485-.39.342-.963.513-1.719.513-.444 0-.894-.063-1.35-.189a7.78 7.78 0 01-1.458-.585l-.72 1.512a7.527 7.527 0 001.719.639c.618.15 1.251.225 1.899.225zm.072-5.544a2.509 2.509 0 01-1.908-.828c-.516-.552-.774-1.236-.774-2.052 0-.828.255-1.512.765-2.052s1.149-.81 1.917-.81c.42 0 .816.087 1.188.261.372.174.69.411.954.711v3.78c-.264.324-.579.57-.945.738a2.835 2.835 0 01-1.197.252zm10.854 1.818c.696 0 1.329-.108 1.899-.324.57-.216 1.131-.552 1.683-1.008l-1.332-1.242a2.62 2.62 0 01-.945.621c-.378.15-.777.225-1.197.225a2.564 2.564 0 01-1.791-.702 2.836 2.836 0 01-.909-1.764h6.66v-.504c0-.672-.108-1.293-.324-1.863a4.452 4.452 0 00-.891-1.467 4.11 4.11 0 00-3.051-1.314 4.283 4.283 0 00-3.141 1.341c-.39.414-.696.906-.918 1.476a5.04 5.04 0 00-.333 1.845c0 .648.12 1.26.36 1.836.24.576.564 1.074.972 1.494a4.549 4.549 0 003.258 1.35zm2.142-5.436h-4.698c.12-.684.39-1.23.81-1.638.42-.408.93-.612 1.53-.612s1.113.21 1.539.63c.426.42.699.96.819 1.62zM260.82 38v-6.498c.228-.336.492-.591.792-.765.3-.174.63-.261.99-.261.552 0 .993.189 1.323.567.33.378.495.879.495 1.503V38h2.034v-5.886a4.616 4.616 0 00-.036-.576c.24-.348.51-.612.81-.792.3-.18.636-.27 1.008-.27.552 0 .993.189 1.323.567.33.378.495.879.495 1.503V38h2.034v-5.886c0-.96-.276-1.746-.828-2.358-.552-.612-1.26-.918-2.124-.918a3.38 3.38 0 00-1.719.441c-.51.294-.933.729-1.269 1.305a2.883 2.883 0 00-1.044-1.269 2.783 2.783 0 00-1.602-.477c-.552 0-1.053.135-1.503.405-.45.27-.843.663-1.179 1.179v-1.44h-2.034V38h2.034zm17.91.18c.696 0 1.329-.108 1.899-.324.57-.216 1.131-.552 1.683-1.008l-1.332-1.242a2.62 2.62 0 01-.945.621c-.378.15-.777.225-1.197.225a2.564 2.564 0 01-1.791-.702 2.836 2.836 0 01-.909-1.764h6.66v-.504c0-.672-.108-1.293-.324-1.863a4.452 4.452 0 00-.891-1.467 4.11 4.11 0 00-3.051-1.314 4.283 4.283 0 00-3.141 1.341c-.39.414-.696.906-.918 1.476a5.04 5.04 0 00-.333 1.845c0 .648.12 1.26.36 1.836.24.576.564 1.074.972 1.494a4.549 4.549 0 003.258 1.35zm2.142-5.436h-4.698c.12-.684.39-1.23.81-1.638.42-.408.93-.612 1.53-.612s1.113.21 1.539.63c.426.42.699.96.819 1.62zm6.03 5.256v-6.444c.24-.348.525-.615.855-.801.33-.186.699-.279 1.107-.279.6 0 1.08.198 1.44.594.36.396.54.918.54 1.566V38h2.034v-5.94c0-.936-.291-1.707-.873-2.313-.582-.606-1.329-.909-2.241-.909-.6 0-1.143.138-1.629.414-.486.276-.897.678-1.233 1.206v-1.476h-2.034V38h2.034zm12.33.144c.264 0 .555-.021.873-.063.318-.042.609-.105.873-.189v-1.71a5.133 5.133 0 01-.657.171c-.174.03-.363.045-.567.045-.456 0-.78-.093-.972-.279-.192-.186-.288-.501-.288-.945v-4.572h2.52v-1.62h-2.52v-2.916l-2.034.432v2.484h-1.818v1.62h1.818v5.022c0 .828.237 1.455.711 1.881.474.426 1.161.639 2.061.639zM310.104 38v-7.398h2.43v-1.62h-2.43v-1.566c0-.444.108-.771.324-.981.216-.21.558-.315 1.026-.315.18 0 .348.012.504.036.156.024.348.06.576.108v-1.728a4.875 4.875 0 00-.621-.126 5.03 5.03 0 00-.729-.054c-1.008 0-1.779.261-2.313.783-.534.522-.801 1.269-.801 2.241v1.602h-1.944v1.62h1.944V38h2.034zm8.262.18c.636 0 1.233-.12 1.791-.36a4.412 4.412 0 001.44-.981c.402-.414.72-.909.954-1.485a4.878 4.878 0 00.351-1.854c0-.66-.114-1.275-.342-1.845a4.409 4.409 0 00-2.394-2.457 4.465 4.465 0 00-1.8-.36c-.636 0-1.233.12-1.791.36a4.412 4.412 0 00-1.44.981c-.402.414-.72.906-.954 1.476a4.81 4.81 0 00-.351 1.845c0 .66.117 1.275.351 1.845a4.71 4.71 0 00.954 1.485c.402.42.882.75 1.44.99.558.24 1.155.36 1.791.36zm0-1.764c-.732 0-1.335-.273-1.809-.819-.474-.546-.711-1.239-.711-2.079 0-.852.237-1.554.711-2.106a2.28 2.28 0 011.809-.828c.72 0 1.32.276 1.8.828.48.552.72 1.254.72 2.106 0 .828-.237 1.518-.711 2.07a2.28 2.28 0 01-1.809.828zM327.042 38v-5.94c.228-.468.54-.834.936-1.098a2.318 2.318 0 011.314-.396c.192 0 .387.018.585.054.198.036.375.09.531.162V29c-.156-.06-.3-.102-.432-.126a4.215 4.215 0 00-.45-.054 2.21 2.21 0 00-1.485.549c-.426.366-.759.891-.999 1.575v-1.962h-2.034V38h2.034zm11.502 0v-5.922L344.016 38h2.862l-6.21-6.534 5.976-6.066h-2.628l-5.472 5.76V25.4h-2.16V38h2.16zm12.672.144c.612 0 1.161-.141 1.647-.423.486-.282.897-.687 1.233-1.215V38h2.034v-9.018h-2.034v6.408c-.24.372-.528.651-.864.837a2.265 2.265 0 01-1.116.279c-.6 0-1.08-.198-1.44-.594-.36-.396-.54-.918-.54-1.566v-5.364h-2.034v5.94c0 .948.291 1.722.873 2.322.582.6 1.329.9 2.241.9zm12.078-.054c.588 0 1.14-.12 1.656-.36s.966-.564 1.35-.972c.384-.408.684-.894.9-1.458a4.99 4.99 0 00.324-1.8c0-.636-.105-1.233-.315-1.791a4.649 4.649 0 00-.864-1.458 4.044 4.044 0 00-1.305-.981 3.68 3.68 0 00-1.602-.36c-.564 0-1.089.114-1.575.342-.486.228-.885.54-1.197.936v-5.4l-2.034.342V38h1.998v-1.17c.324.408.717.72 1.179.936.462.216.957.324 1.485.324zm-.468-1.71a2.81 2.81 0 01-1.206-.261 2.775 2.775 0 01-.954-.729v-3.762a2.54 2.54 0 01.945-.756 2.878 2.878 0 011.215-.252c.756 0 1.392.276 1.908.828.516.552.774 1.236.774 2.052 0 .828-.255 1.515-.765 2.061s-1.149.819-1.917.819zm10.98 1.8c.696 0 1.329-.108 1.899-.324.57-.216 1.131-.552 1.683-1.008l-1.332-1.242a2.62 2.62 0 01-.945.621c-.378.15-.777.225-1.197.225a2.564 2.564 0 01-1.791-.702 2.836 2.836 0 01-.909-1.764h6.66v-.504c0-.672-.108-1.293-.324-1.863a4.452 4.452 0 00-.891-1.467 4.11 4.11 0 00-3.051-1.314 4.283 4.283 0 00-3.141 1.341c-.39.414-.696.906-.918 1.476a5.04 5.04 0 00-.333 1.845c0 .648.12 1.26.36 1.836.24.576.564 1.074.972 1.494a4.549 4.549 0 003.258 1.35zm2.142-5.436h-4.698c.12-.684.39-1.23.81-1.638.42-.408.93-.612 1.53-.612s1.113.21 1.539.63c.426.42.699.96.819 1.62zm6.03 5.256v-5.94c.228-.468.54-.834.936-1.098a2.318 2.318 0 011.314-.396c.192 0 .387.018.585.054.198.036.375.09.531.162V29c-.156-.06-.3-.102-.432-.126a4.215 4.215 0 00-.45-.054 2.21 2.21 0 00-1.485.549c-.426.366-.759.891-.999 1.575v-1.962h-2.034V38h2.034zm7.074 0v-6.444c.24-.348.525-.615.855-.801.33-.186.699-.279 1.107-.279.6 0 1.08.198 1.44.594.36.396.54.918.54 1.566V38h2.034v-5.94c0-.936-.291-1.707-.873-2.313-.582-.606-1.329-.909-2.241-.909-.6 0-1.143.138-1.629.414-.486.276-.897.678-1.233 1.206v-1.476h-2.034V38h2.034zm12.618.18c.696 0 1.329-.108 1.899-.324.57-.216 1.131-.552 1.683-1.008l-1.332-1.242a2.62 2.62 0 01-.945.621c-.378.15-.777.225-1.197.225a2.564 2.564 0 01-1.791-.702 2.836 2.836 0 01-.909-1.764h6.66v-.504c0-.672-.108-1.293-.324-1.863a4.452 4.452 0 00-.891-1.467 4.11 4.11 0 00-3.051-1.314 4.283 4.283 0 00-3.141 1.341c-.39.414-.696.906-.918 1.476a5.04 5.04 0 00-.333 1.845c0 .648.12 1.26.36 1.836.24.576.564 1.074.972 1.494a4.549 4.549 0 003.258 1.35zm2.142-5.436h-4.698c.12-.684.39-1.23.81-1.638.42-.408.93-.612 1.53-.612s1.113.21 1.539.63c.426.42.699.96.819 1.62zm7.884 5.4c.264 0 .555-.021.873-.063.318-.042.609-.105.873-.189v-1.71a5.133 5.133 0 01-.657.171c-.174.03-.363.045-.567.045-.456 0-.78-.093-.972-.279-.192-.186-.288-.501-.288-.945v-4.572h2.52v-1.62h-2.52v-2.916l-2.034.432v2.484h-1.818v1.62h1.818v5.022c0 .828.237 1.455.711 1.881.474.426 1.161.639 2.061.639zm7.74.036c.696 0 1.329-.108 1.899-.324.57-.216 1.131-.552 1.683-1.008l-1.332-1.242a2.62 2.62 0 01-.945.621c-.378.15-.777.225-1.197.225a2.564 2.564 0 01-1.791-.702 2.836 2.836 0 01-.909-1.764h6.66v-.504c0-.672-.108-1.293-.324-1.863a4.452 4.452 0 00-.891-1.467 4.11 4.11 0 00-3.051-1.314 4.283 4.283 0 00-3.141 1.341c-.39.414-.696.906-.918 1.476a5.04 5.04 0 00-.333 1.845c0 .648.12 1.26.36 1.836.24.576.564 1.074.972 1.494a4.549 4.549 0 003.258 1.35zm2.142-5.436h-4.698c.12-.684.39-1.23.81-1.638.42-.408.93-.612 1.53-.612s1.113.21 1.539.63c.426.42.699.96.819 1.62zm7.074 5.436c.516 0 .999-.075 1.449-.225.45-.15.84-.357 1.17-.621.33-.264.588-.576.774-.936.186-.36.279-.744.279-1.152 0-.672-.219-1.218-.657-1.638-.438-.42-1.107-.714-2.007-.882l-1.584-.288c-.48-.084-.813-.198-.999-.342-.186-.144-.279-.36-.279-.648 0-.336.141-.597.423-.783.282-.186.657-.279 1.125-.279.456 0 .906.069 1.35.207.444.138.9.357 1.368.657l.954-1.332a6.795 6.795 0 00-1.737-.819 6.281 6.281 0 00-1.809-.261c-1.044 0-1.887.255-2.529.765-.642.51-.963 1.185-.963 2.025 0 .672.219 1.215.657 1.629.438.414 1.089.699 1.953.855l1.602.27c.432.084.747.207.945.369a.804.804 0 01.297.657c0 .36-.168.651-.504.873-.336.222-.774.333-1.314.333-.456 0-.906-.078-1.35-.234-.444-.156-.96-.42-1.548-.792l-.954 1.368c.48.396 1.053.699 1.719.909.666.21 1.389.315 2.169.315z" fill="#FFF"/><path d="M19.344 13.329c1.904 0 4.662-.398 4.662-2.67.006-.175-.01-.35-.046-.522l-1.135-4.942c-.262-1.088-.492-1.582-2.396-2.536C18.952 1.9 15.73.648 14.778.648c-.884 0-1.143 1.146-2.2 1.146-1.018 0-1.773-.856-2.727-.856-.914 0-1.508.627-1.968 1.91 0 0-1.28 3.624-1.448 4.15a.985.985 0 00-.03.296c0 1.408 5.53 6.027 12.939 6.027m4.956-1.739c.264 1.253.264 1.383.264 1.548 0 2.139-2.398 3.326-5.55 3.326-7.125.005-13.365-4.182-13.365-6.947a2.826 2.826 0 01.229-1.121C3.32 8.516 0 8.974 0 11.91c0 4.81 11.365 10.737 20.362 10.737 6.898 0 8.638-3.129 8.638-5.6 0-1.943-1.676-4.149-4.697-5.466" fill="#E00"/><path d="M24.735 11.492C25 12.817 25 12.955 25 13.129c0 2.263-2.409 3.519-5.575 3.519C12.269 16.653 6 12.224 6 9.298a3.127 3.127 0 01.23-1.186l.561-1.464c-.025.1-.037.204-.033.307 0 1.49 5.555 6.376 12.999 6.376 1.913 0 4.683-.417 4.683-2.822a2.386 2.386 0 00-.046-.554l.341 1.537z" fill="#000"/></g></svg>