<?xml version="1.0" encoding="UTF-8"?>
<svg width="24px" height="24px" viewBox="0 0 24 24" version="1.1" xmlns="http://www.w3.org/2000/svg" xmlns:xlink="http://www.w3.org/1999/xlink">
    <!-- Generator: sketchtool 63.1 (101010) - https://sketch.com -->
    <title>85BFF5CC-6D73-4717-8B6E-8682912CF897</title>
    <desc>Created with sketchtool.</desc>
    <g id="Getting-Started-welcome-comm-icon" stroke="none" stroke-width="1" fill="none" fill-rule="evenodd">
        <g id="01.00-Getting-Started-welcome-comm-icon" transform="translate(-574.000000, -1269.000000)" fill="#3C3F42" fill-rule="nonzero">
            <g id="comment-alt-regular" transform="translate(574.000000, 1269.000000)">
                <path d="M21,0 L3,0 C1.3453125,0 0,1.3453125 0,3 L0,16.5 C0,18.1546875 1.3453125,19.5 3,19.5 L7.5,19.5 L7.5,23.4375 C7.5,23.7703125 7.771875,24 8.0625,24 C8.175,24 8.2921875,23.9671875 8.3953125,23.8875 L14.25,19.5 L21,19.5 C22.6546875,19.5 24,18.1546875 24,16.5 L24,3 C24,1.3453125 22.6546875,0 21,0 Z M21.75,16.5 C21.75,16.9125 21.4125,17.25 21,17.25 L13.5,17.25 L12.9,17.7 L9.75,20.0625 L9.75,17.25 L3,17.25 C2.5875,17.25 2.25,16.9125 2.25,16.5 L2.25,3 C2.25,2.5875 2.5875,2.25 3,2.25 L21,2.25 C21.4125,2.25 21.75,2.5875 21.75,3 L21.75,16.5 Z" id="Shape"></path>
            </g>
        </g>
    </g>
</svg>