<?xml version="1.0" encoding="UTF-8"?>
<svg width="38px" height="38px" viewBox="0 0 38 38" version="1.1" xmlns="http://www.w3.org/2000/svg" xmlns:xlink="http://www.w3.org/1999/xlink">
    <!-- Generator: sketchtool 62 (101010) - https://sketch.com -->
    <title>7E25C64D-4E51-467C-A626-99543754F5AA</title>
    <desc>Created with sketchtool.</desc>
    <g id="Asset-Artboard-Page" stroke="none" stroke-width="1" fill="none" fill-rule="evenodd">
        <g id="pictograms/infrastructure/integration-01-copy-pictograms/deployment/rocket" fill="#C9190B">
            <path d="M15.3929795,29.7255043 L15.5865449,29.8295612 C15.5897987,29.8313241 15.5930403,29.8331332 15.5962688,29.8349886 C16.4678938,30.3384886 17.0913313,31.1507387 17.3525813,32.1244887 C17.6138313,33.0970512 17.4796438,34.1123637 16.9761438,34.9851763 L16.9227063,35.0766138 C16.3574563,36.0563013 14.8457688,36.9136763 13.4421437,37.6238013 C13.3803937,37.6558638 13.3138937,37.6701138 13.2497687,37.6701138 C13.0930187,37.6701138 12.9433937,37.5846138 12.8673937,37.4361763 C12.7605187,37.2248013 12.8460187,36.9683013 13.0562062,36.8614263 C13.7698937,36.5004263 15.6687063,35.5409263 16.1817063,34.6491137 L16.2363313,34.5564887 C16.6246438,33.8831762 16.7279563,33.0970512 16.5272688,32.3453637 C16.3257014,31.5936358 15.8447373,30.9673996 15.1718505,30.5777706 C15.1707456,30.5766471 15.1694595,30.575905 15.1681755,30.5751554 C14.494863,30.1868429 13.708738,30.0823429 12.9570504,30.2842179 C12.2053629,30.4860929 11.5771754,30.9682179 11.1876754,31.6427178 L11.1864879,31.6439053 L11.1318629,31.7365303 C10.6188629,32.6271553 10.7364254,34.7492178 10.7815504,35.5472177 C10.7946129,35.7835302 10.6141129,35.9842177 10.3789879,35.9984677 L10.3540504,35.9984677 L10.3540504,35.9984677 C10.1296129,35.9984677 9.94080036,35.8227177 9.92773786,35.5947177 C9.83986286,34.0248428 9.82680036,32.2875303 10.3932379,31.3066554 L10.4490504,31.2128429 C10.9501754,30.3424054 11.7636129,29.7189679 12.7349879,29.4589054 C13.632738,29.2188477 14.5679259,29.3126954 15.3929795,29.7255043 Z M31.9494492,1.44910628 C32.5538866,1.79704378 32.9136991,2.42166877 32.9136991,3.11991876 L32.9136991,10.6082936 C32.9125116,14.8262936 31.6133867,18.867356 29.1540743,22.294481 L25.0738244,27.9814184 L28.0971993,33.2171058 C28.1541993,33.3156683 28.1696368,33.4320433 28.1399493,33.5412933 C28.1102618,33.6517308 28.0390118,33.7443558 27.9404493,33.8013558 L23.1785745,36.5468557 C23.1120745,36.5860432 23.0384495,36.6038557 22.966012,36.6038557 C22.8175745,36.6038557 22.673887,36.5278557 22.595512,36.3901057 C22.4767621,36.1858558 22.5468246,35.9246058 22.752262,35.8058558 L27.1436369,33.2741058 L24.196262,28.1702309 C24.1119495,28.0241684 24.1214495,27.8436684 24.2188245,27.7071059 L28.4593868,21.795731 C30.8130117,18.5146685 32.0586992,14.6469811 32.0586992,10.6082936 L32.0586992,3.11991876 C32.0586992,2.73160626 31.8580117,2.38366877 31.5219492,2.18891877 C31.1870742,1.99535628 30.7868867,1.99654378 30.4520117,2.18891877 L23.9646995,5.93429371 C20.4675121,7.95423118 17.7386373,10.9657311 16.0749498,14.6446061 L13.0765124,21.273231 C13.0064499,21.4264185 12.85445,21.524981 12.6870125,21.524981 L6.79226271,21.524981 L6.79463771,26.6074809 C6.79463771,26.8437934 6.60345022,27.0349809 6.36713773,27.0349809 C6.13082524,27.0349809 5.93963774,26.8437934 5.93963774,26.6074809 L5.93726274,21.097481 C5.93726274,20.9846685 5.98238774,20.8754185 6.06313774,20.7946685 C6.14270024,20.715106 6.25076273,20.669981 6.36476273,20.669981 L12.410325,20.669981 L15.2959499,14.2919186 C17.0332623,10.4503561 19.8832622,7.30348119 23.536012,5.19448123 L30.0233242,1.44910628 C30.6265742,1.10116879 31.3461992,1.10116879 31.9494492,1.44910628 Z M25.7796753,12.1388627 L25.7796753,12.1400502 C27.5906128,13.1850502 28.2140504,15.5089877 27.1690503,17.3199252 C26.6619878,18.1974877 25.8438003,18.8244876 24.8653003,19.0869251 C24.5387378,19.1748001 24.2074253,19.2175501 23.8773003,19.2175501 C23.2206127,19.2175501 22.5722377,19.0453626 21.9868002,18.7081126 C21.1104252,18.2010502 20.4822377,17.3840502 20.2209877,16.4055502 C19.9573627,15.4270502 20.0927377,14.4046127 20.5986127,13.5270502 C21.6448002,11.7173002 23.9675503,11.0974252 25.7796753,12.1388627 Z M23.8891752,12.4868002 C22.8726752,12.4868002 21.8834877,13.0140502 21.3396127,13.9557377 C20.9465502,14.6349877 20.8432377,15.4258627 21.0463002,16.1846752 C21.2493627,16.9423002 21.7362377,17.5752377 22.4154877,17.9671127 C23.0935502,18.3589877 23.8844252,18.4646752 24.6444252,18.2616127 C25.4020503,18.0585502 26.0361753,17.5716752 26.4280503,16.8924252 C27.2079299,15.5419298 26.7886398,13.8225439 25.5042002,12.9738539 L25.3521753,12.8798627 C24.8914253,12.6138627 24.3867377,12.4868002 23.8891752,12.4868002 Z" id="Fill-9"></path>
        </g>
    </g>
</svg>