<?xml version="1.0" encoding="UTF-8"?>
<svg width="24px" height="24px" viewBox="0 0 24 24" version="1.1" xmlns="http://www.w3.org/2000/svg" xmlns:xlink="http://www.w3.org/1999/xlink">
    <!-- Generator: sketchtool 63.1 (101010) - https://sketch.com -->
    <title>CB2BB114-F60E-43CB-AB0F-6215215D4198</title>
    <desc>Created with sketchtool.</desc>
    <g id="Getting-Started-welcome-sup-icon" stroke="none" stroke-width="1" fill="none" fill-rule="evenodd">
        <g id="01.00-Getting-Started-welcome-sup-icon" transform="translate(-1045.000000, -1269.000000)" fill="#3C3F42" fill-rule="nonzero">
            <g id="question-circle-regular" transform="translate(1045.000000, 1269.000000)">
                <path d="M12,0 C5.37304839,0 0,5.37498387 0,12 C0,18.6288871 5.37304839,24 12,24 C18.6269516,24 24,18.6288871 24,12 C24,5.37498387 18.6269516,0 12,0 Z M12,21.6774194 C6.65167742,21.6774194 2.32258065,17.3501129 2.32258065,12 C2.32258065,6.65346774 6.65187097,2.32258065 12,2.32258065 C17.3463387,2.32258065 21.6774194,6.65182258 21.6774194,12 C21.6774194,17.3482258 17.3501129,21.6774194 12,21.6774194 Z M17.1892258,9.32903226 C17.1892258,12.5734839 13.6849839,12.6234194 13.6849839,13.8224032 L13.6849839,14.1290323 C13.6849839,14.4496935 13.425,14.7096774 13.1043387,14.7096774 L10.8956129,14.7096774 C10.5749516,14.7096774 10.3149677,14.4496935 10.3149677,14.1290323 L10.3149677,13.7100484 C10.3149677,11.9804516 11.6262581,11.2890484 12.6171774,10.7334677 C13.4669032,10.2570968 13.9876935,9.93309677 13.9876935,9.30222581 C13.9876935,8.46774194 12.9232258,7.91385484 12.0626613,7.91385484 C10.9406129,7.91385484 10.422629,8.445 9.6945,9.36396774 C9.49819355,9.61170968 9.13998387,9.65772581 8.88808065,9.46674194 L7.54175806,8.44587097 C7.29464516,8.25851613 7.23929032,7.91041935 7.41382258,7.6541129 C8.55706452,5.97537097 10.0132258,5.03225806 12.2803548,5.03225806 C14.6547581,5.03225806 17.1892258,6.88567742 17.1892258,9.32903226 L17.1892258,9.32903226 Z M14.0322581,17.4193548 C14.0322581,18.5399516 13.1205968,19.4516129 12,19.4516129 C10.8794032,19.4516129 9.96774194,18.5399516 9.96774194,17.4193548 C9.96774194,16.2987581 10.8794032,15.3870968 12,15.3870968 C13.1205968,15.3870968 14.0322581,16.2987581 14.0322581,17.4193548 Z" id="Shape"></path>
            </g>
        </g>
    </g>
</svg>