<?xml version="1.0" encoding="UTF-8"?>
<svg width="24px" height="24px" viewBox="0 0 24 24" version="1.1" xmlns="http://www.w3.org/2000/svg" xmlns:xlink="http://www.w3.org/1999/xlink">
    <!-- Generator: sketchtool 63.1 (101010) - https://sketch.com -->
    <title>35AC638D-2F5F-41C9-96C1-CBC4A932B682</title>
    <desc>Created with sketchtool.</desc>
    <g id="Getting-Started-welcome-slack-icon" stroke="none" stroke-width="1" fill="none" fill-rule="evenodd">
        <g id="01.00-Getting-Started-welcome-slack-icon" transform="translate(-809.000000, -1269.000000)" fill="#3C3F42" fill-rule="nonzero">
            <g id="slack-brands(1)" transform="translate(809.000000, 1269.000000)">
                <path d="M5.04214286,15.1660714 C5.04214286,16.5535714 3.90857143,17.6871429 2.52107143,17.6871429 C1.13357143,17.6871429 0,16.5535714 0,15.1660714 C0,13.7785714 1.13357143,12.645 2.52107143,12.645 L5.04214286,12.645 L5.04214286,15.1660714 Z M6.31285714,15.1660714 C6.31285714,13.7785714 7.44642857,12.645 8.83392857,12.645 C10.2214286,12.645 11.355,13.7785714 11.355,15.1660714 L11.355,21.4789286 C11.355,22.8664286 10.2214286,24 8.83392857,24 C7.44642857,24 6.31285714,22.8664286 6.31285714,21.4789286 L6.31285714,15.1660714 Z M8.83392857,5.04214286 C7.44642857,5.04214286 6.31285714,3.90857143 6.31285714,2.52107143 C6.31285714,1.13357143 7.44642857,0 8.83392857,0 C10.2214286,0 11.355,1.13357143 11.355,2.52107143 L11.355,5.04214286 L8.83392857,5.04214286 L8.83392857,5.04214286 Z M8.83392857,6.31285714 C10.2214286,6.31285714 11.355,7.44642857 11.355,8.83392857 C11.355,10.2214286 10.2214286,11.355 8.83392857,11.355 L2.52107143,11.355 C1.13357143,11.355 0,10.2214286 0,8.83392857 C0,7.44642857 1.13357143,6.31285714 2.52107143,6.31285714 L8.83392857,6.31285714 L8.83392857,6.31285714 Z M18.9578571,8.83392857 C18.9578571,7.44642857 20.0914286,6.31285714 21.4789286,6.31285714 C22.8664286,6.31285714 24,7.44642857 24,8.83392857 C24,10.2214286 22.8664286,11.355 21.4789286,11.355 L18.9578571,11.355 L18.9578571,8.83392857 L18.9578571,8.83392857 Z M17.6871429,8.83392857 C17.6871429,10.2214286 16.5535714,11.355 15.1660714,11.355 C13.7785714,11.355 12.645,10.2214286 12.645,8.83392857 L12.645,2.52107143 C12.645,1.13357143 13.7785714,0 15.1660714,0 C16.5535714,0 17.6871429,1.13357143 17.6871429,2.52107143 L17.6871429,8.83392857 Z M15.1660714,18.9578571 C16.5535714,18.9578571 17.6871429,20.0914286 17.6871429,21.4789286 C17.6871429,22.8664286 16.5535714,24 15.1660714,24 C13.7785714,24 12.645,22.8664286 12.645,21.4789286 L12.645,18.9578571 L15.1660714,18.9578571 Z M15.1660714,17.6871429 C13.7785714,17.6871429 12.645,16.5535714 12.645,15.1660714 C12.645,13.7785714 13.7785714,12.645 15.1660714,12.645 L21.4789286,12.645 C22.8664286,12.645 24,13.7785714 24,15.1660714 C24,16.5535714 22.8664286,17.6871429 21.4789286,17.6871429 L15.1660714,17.6871429 Z" id="Shape"></path>
            </g>
        </g>
    </g>
</svg>