<?xml version="1.0" encoding="UTF-8"?>
<svg width="38px" height="38px" viewBox="0 0 38 38" version="1.1" xmlns="http://www.w3.org/2000/svg" xmlns:xlink="http://www.w3.org/1999/xlink">
    <!-- Generator: sketchtool 62 (101010) - https://sketch.com -->
    <title>38C77931-860A-4BF7-BE9C-E37A91D9A929</title>
    <desc>Created with sketchtool.</desc>
    <g id="Asset-Artboard-Page" stroke="none" stroke-width="1" fill="none" fill-rule="evenodd">
        <g id="pictograms/infrastructure/integration-01-copy-2-pictograms/networking/networking-01" fill="#C9190B">
            <path d="M21.9687506,19.4291627 C21.9687506,20.8304127 20.8287505,21.9704128 19.4275004,21.9704128 C18.0262504,21.9704128 16.8862503,20.8304127 16.8862503,19.4291627 C16.8862503,18.0279126 18.0262504,16.8879125 19.4275004,16.8879125 C20.8287505,16.8879125 21.9687506,18.0279126 21.9687506,19.4291627 M10.829881,28.6166125 C11.7074435,28.3814874 12.620631,28.5026124 13.406756,28.957425 C14.192881,29.4098625 14.7545685,30.14255 14.9896935,31.018925 C15.223631,31.8953 15.1036935,32.8108625 14.6500685,33.5958001 C14.1964435,34.3819251 13.463756,34.9436126 12.587381,35.1787376 C12.295256,35.2571126 11.998381,35.2963001 11.703881,35.2963001 C11.114881,35.2963001 10.5341935,35.1419251 10.010506,34.8391126 C9.22438097,34.3854876 8.66269347,33.6528001 8.42756847,32.776425 C8.19363097,31.9012375 8.31356847,30.985675 8.76719347,30.19955 C9.22081847,29.413425 9.95350597,28.8517375 10.829881,28.6166125 Z M25.4477676,28.956474 C26.2338926,28.502849 27.1482676,28.3829115 28.0246426,28.616849 C28.9010176,28.851974 29.633705,29.4136615 30.08733,30.1997865 C30.540955,30.9847239 30.66208,31.9002864 30.426955,32.7766614 C30.19183,33.6530364 29.6301425,34.3857238 28.8440176,34.8393488 C28.3203301,35.1409738 27.7396426,35.2953488 27.1518301,35.2953488 C26.8573301,35.2953488 26.5604551,35.2573488 26.2671426,35.1789738 C25.3907676,34.9438488 24.6580801,34.3821613 24.2056426,33.5960364 C23.7508302,32.8110989 23.6308927,31.8955364 23.8648302,31.0191614 C24.0999552,30.1427865 24.6616426,29.410099 25.4477676,28.956474 Z M11.7121935,29.3576125 C10.834631,29.3576125 9.97725598,29.812425 9.50819348,30.62705 C8.80756848,31.8406751 9.22438098,33.3974876 10.438006,34.0981127 C11.649256,34.7999252 13.209631,34.3819252 13.9090685,33.1683001 C14.6096934,31.9558626 14.1928809,30.3978625 12.979256,29.6972375 C12.580256,29.4668625 12.143256,29.3576125 11.7121935,29.3576125 Z M27.1423302,29.3566615 C26.7112677,29.3566615 26.2742677,29.467099 25.8752677,29.697474 C24.6616427,30.3980991 24.2448302,31.9549116 24.9454552,33.1685366 C25.6448927,34.3821617 27.2040802,34.8001617 28.4165177,34.0983492 C29.6301427,33.3977241 30.0481427,31.8409116 29.3463302,30.6272866 C28.8772677,29.8126615 28.0210802,29.3566615 27.1423302,29.3566615 Z M34.2711321,16.0330311 C36.1438195,16.0330311 37.667382,17.5565936 37.667382,19.429281 C37.667382,21.3019684 36.1438195,22.8255309 34.2711321,22.8255309 C32.3984447,22.8255309 30.8748822,21.3019684 30.8748822,19.429281 C30.8748822,17.5565936 32.3984447,16.0330311 34.2711321,16.0330311 Z M19.4274999,16.0329122 C21.3001873,16.0329122 22.8237498,17.5564747 22.8237498,19.4291621 C22.8237498,21.3018495 21.3001873,22.825412 19.4274999,22.825412 C17.5548124,22.825412 16.03125,21.3018495 16.03125,19.4291621 C16.03125,17.5564747 17.5548124,16.0329122 19.4274999,16.0329122 Z M4.58374988,16.0329122 C6.45643731,16.0329122 7.97999975,17.5564747 7.97999975,19.4291621 C7.97999975,21.3018495 6.45643731,22.825412 4.58374988,22.825412 C2.71106244,22.825412 1.1875,21.3018495 1.1875,19.4291621 C1.1875,17.5564747 2.71106244,16.0329122 4.58374988,16.0329122 Z M34.2711324,16.8880312 C32.8698823,16.8880312 31.7298823,18.0280312 31.7298823,19.4292813 C31.7298823,20.8305313 32.8698823,21.9705314 34.2711324,21.9705314 C35.6723824,21.9705314 36.8123825,20.8305313 36.8123825,19.4292813 C36.8123825,18.0280312 35.6723824,16.8880312 34.2711324,16.8880312 Z M4.58375016,16.8879122 C3.18250009,16.8879122 2.04250003,18.0279123 2.04250003,19.4291624 C2.04250003,20.8304124 3.18250009,21.9704125 4.58375016,21.9704125 C5.98500023,21.9704125 7.12500028,20.8304124 7.12500028,19.4291624 C7.12500028,18.0279123 5.98500023,16.8879122 4.58375016,16.8879122 Z M26.2673815,3.67911241 C27.1437565,3.44517491 28.059319,3.56511241 28.8442565,4.01992492 C29.6303815,4.47236244 30.192069,5.20504996 30.427194,6.08142498 C30.6611315,6.9578 30.541194,7.87336253 30.087569,8.65830005 C29.633944,9.44442507 28.9012565,10.0061126 28.0248815,10.2412376 C27.7327565,10.3196126 27.4358815,10.3588001 27.1413815,10.3588001 C26.5523815,10.3588001 25.971694,10.2044251 25.4480065,9.90161259 C24.6618815,9.44798757 24.100194,8.71530005 23.865069,7.83892503 C23.6311315,6.9637375 23.751069,6.04817498 24.204694,5.26204996 C24.658319,4.47592494 25.3910065,3.91423742 26.2673815,3.67911241 Z M10.0102688,4.0189749 C10.7952062,3.56534991 11.7095812,3.44541241 12.5871437,3.67934991 C13.4635187,3.9144749 14.1962062,4.47616238 14.6498312,5.26228736 C15.1034562,6.04722483 15.2245812,6.9627873 14.9894562,7.83916227 C14.7543312,8.71553724 14.1926437,9.44822472 13.4065187,9.90184971 C12.8828312,10.2034747 12.3021437,10.3578497 11.7143312,10.3578497 C11.4198312,10.3578497 11.1229562,10.3198497 10.8296437,10.2414747 C9.95326876,10.0063497 9.22058127,9.44466222 8.76814378,8.65853725 C8.31333129,7.87359977 8.19339379,6.9580373 8.42733129,6.08166233 C8.66245628,5.20528736 9.22414377,4.47259988 10.0102688,4.0189749 Z M27.149694,4.4201124 C26.2721315,4.4201124 25.4147565,4.87492492 24.945694,5.68954996 C24.245069,6.90317501 24.6618815,8.45998758 25.8755065,9.16061261 C27.087944,9.86242514 28.6471315,9.44442512 29.346569,8.23080007 C30.047194,7.01836252 29.6303815,5.46036245 28.4167565,4.75973742 C28.0177565,4.52936241 27.5807565,4.4201124 27.149694,4.4201124 Z M11.7048313,4.41916242 C11.2737688,4.41916242 10.8367688,4.52959992 10.4377688,4.75997493 C9.22414379,5.46059995 8.8073313,7.01741249 9.50795629,8.23103752 C10.2085813,9.44466255 11.7665813,9.86266256 12.9790188,9.16085005 C14.1926438,8.46022503 14.6106438,6.90341249 13.9088313,5.68978745 C13.4397688,4.87516243 12.5835813,4.41916242 11.7048313,4.41916242 Z" id="Fill-1"></path>
        </g>
    </g>
</svg>