<?xml version="1.0" encoding="UTF-8"?>
<svg width="36px" height="36px" viewBox="0 0 36 36" version="1.1" xmlns="http://www.w3.org/2000/svg" xmlns:xlink="http://www.w3.org/1999/xlink">
    <!-- Generator: sketchtool 62 (101010) - https://sketch.com -->
    <title>2C3392EC-F226-4D1D-B7E7-26EA0F9715FA</title>
    <desc>Created with sketchtool.</desc>
    <g id="Getting-Started-welcome-1-icon" stroke="none" stroke-width="1" fill="none" fill-rule="evenodd" stroke-linejoin="round">
        <g id="01.00-Getting-Started-welcome-1-icon" transform="translate(-355.000000, -448.000000)" stroke="#C9190B" stroke-width="0.912">
            <path d="M369.6,469.4 L376.4,469.4 L376.4,462.6 L369.6,462.6 L369.6,469.4 Z M383.2,483 L390,483 L390,476.2 L383.2,476.2 L383.2,483 Z M356,455.8 L362.8,455.8 L362.8,449 L356,449 L356,455.8 Z M366.2,466 L362.8,466 C359.045267,466 356,469.045267 356,472.8 C356,476.555867 359.045267,479.6 362.8,479.6 L379.8,479.6 M366.2,452.4 L383.2,452.4 C386.954733,452.4 390,455.444133 390,459.2 C390,462.954733 386.954733,466 383.2,466 L379.8,466" id="Stroke-1"></path>
        </g>
    </g>
</svg>