<?xml version="1.0" encoding="utf-8"?>
<svg xmlns="http://www.w3.org/2000/svg" xmlns:xlink="http://www.w3.org/1999/xlink">
    <symbol viewBox="0 0 41.5 41.3" id="circle">
       <circle cx="20.8" cy="20.7" r="19.1"/>
    </symbol>
    <symbol viewBox="0 0 32 32" id="application">
        <defs>
            <path d="M9.15790909,0.388652727 C9.34294959,0.388652727 9.49295455,0.538657687 9.49295455,0.723698182 L9.49295455,0.723698182 L9.49295455,9.10430182 C9.49295455,9.28934231 9.34294959,9.43934727 9.15790909,9.43934727 L9.15790909,9.43934727 L0.670090909,9.43934727 C0.485050414,9.43934727 0.335045455,9.28934231 0.335045455,9.10430182 L0.335045455,9.10430182 L0.335045455,0.723698182 C0.335045455,0.634838602 0.370344785,0.54961848 0.433177996,0.486785269 C0.496011207,0.423952058 0.58123133,0.388652727 0.670090909,0.388652727 L0.670090909,0.388652727 Z M8.82286364,1.05874364 L1.00513636,1.05874364 L1.00513636,8.76925636 L8.82286364,8.76925636 L8.82286364,1.05874364 Z M7.68817636,1.76457273 C7.81347599,1.71188622 7.95819063,1.74012322 8.05449273,1.83604909 C8.08477645,1.86703284 8.10901629,1.90339261 8.12596909,1.94326364 C8.14378395,1.98412348 8.15291153,2.02824015 8.15277429,2.07281455 C8.15277429,2.25785504 8.00276777,2.40786156 7.81772727,2.40786156 C7.77315288,2.40799881 7.72903621,2.39887122 7.68817636,2.38105636 C7.64830533,2.36410356 7.61194557,2.33986372 7.58096182,2.30958 C7.51811065,2.24680706 7.48276002,2.16164419 7.48268026,2.07281455 C7.48254301,2.02824015 7.4916706,1.98412348 7.50948545,1.94326364 C7.54303374,1.8623857 7.60729843,1.79812101 7.68817636,1.76457273 Z M6.84663636,1.74479983 C6.95589926,1.72330549 7.06870143,1.75750188 7.14763636,1.83604909 C7.24180322,1.93011922 7.27135562,2.0710098 7.22292578,2.19499018 C7.17449594,2.31897057 7.05726946,2.40252565 6.92427273,2.40786 L6.92427273,2.40786 L6.91087091,2.40786 C6.72583041,2.40786 6.57582389,2.25785504 6.57582389,2.07281455 C6.57568665,2.02824015 6.58481423,1.98412348 6.60262909,1.94326364 C6.64592978,1.84067007 6.73737346,1.76629417 6.84663636,1.74479983 Z" id="path-application"></path>
        </defs>
        <g id="Topology" stroke="none" stroke-width="1" fill="none" fill-rule="evenodd">
            <g id="Artboard" transform="translate(-1245.000000, -946.000000)">
                <g id="Application" transform="translate(1245.000000, 946.000000)">
                    <circle id="Oval" stroke="#6929C4" stroke-width="1.404" fill="#FFFFFF" cx="15.795" cy="15.795" r="15.093"></circle>
                    <circle id="Oval" fill="#FAFAFA" cx="15.795" cy="15.795" r="10.53"></circle>
                    <g id="02_Software/App/App_outline" transform="translate(10.881000, 10.881000)">
                        <mask id="mask-2" fill="white">
                            <use xlink:href="#path-application"></use>
                        </mask>
                        <use id="Combined-Shape" fill="#000000" fill-rule="evenodd" xlink:href="#path-application"></use>
                    </g>
                </g>
            </g>
        </g>
    </symbol>
    <symbol viewBox="0 0 32 32" id="ansiblejob">
        <g id="Topology" stroke="none" stroke-width="1" fill="none" fill-rule="evenodd">
            <g id="Artboard" transform="translate(-1506.000000, -635.000000)">
                <g id="Group-4" transform="translate(1506.000000, 635.000000)">
                    <circle id="Oval-Copy-30" stroke="#CCBB54" stroke-width="1.404" fill="#FFFFFF" cx="15.795" cy="15.795" r="15.093"></circle>
                    <circle id="Oval-Copy-29" fill="#FAFAFA" cx="15.53" cy="15.53" r="10.53"></circle>
                    <g id="Ansible_32x32" transform="translate(9.000000, 9.000000)" fill-rule="nonzero">
                        <ellipse id="Oval" fill="#000000" transform="translate(6.492031, 6.494512) rotate(-80.819458) translate(-6.492031, -6.494512) " cx="6.49203097" cy="6.49451188" rx="5.64435844" ry="5.61408855"></ellipse>
                        <path d="M9.14627118,8.74914771 L6.91790958,3.35710227 C6.86585364,3.21160575 6.72716358,3.11584469 6.5734463,3.11926136 C6.41685687,3.11432555 6.2743969,3.20983849 6.21870056,3.35710227 L3.77293785,9.27210229 L4.60949153,9.27210229 L5.57751411,6.83460225 L8.46615819,9.18198864 C8.58293784,9.27653411 8.66666665,9.319375 8.77536725,9.319375 C8.88310593,9.32196525 8.98731637,9.28067542 9.0643462,9.20487685 C9.14137607,9.12907836 9.18469212,9.02519979 9.18446595,8.91681818 C9.18113109,8.85917545 9.16822181,8.80250122 9.14627118,8.74914771 L9.14627118,8.74914771 Z M6.57564972,4.32545453 L8.02180791,7.92039771 L5.83384181,6.18755682 L6.57564972,4.32545453 Z" id="Shape" fill="#FFFFFF"></path>
                    </g>
                </g>
            </g>
        </g>
    </symbol>    
    <symbol viewBox="0 0 32 32" id="chart">
        <g id="Topology" stroke="none" stroke-width="1" fill="none" fill-rule="evenodd">
            <g id="Artboard" transform="translate(-1371.000000, -1018.000000)">
                <g id="HelmChart" transform="translate(1371.000000, 1018.000000)">
                    <circle id="Oval" stroke="#6FDC8C" stroke-width="1.404" fill="#FFFFFF" cx="15.795" cy="15.795" r="15.093"></circle>
                    <circle id="Oval" fill="#FAFAFA" cx="15.795" cy="15.795" r="10.53"></circle>
                    <path d="M19.0292065,13.0240898 C19.6013817,13.6913098 19.9706585,14.5376297 20.0413874,15.4674 L20.3814,15.4674 C20.5623285,15.4674 20.709,15.6140715 20.709,15.795 C20.709,15.9759285 20.5623285,16.1226 20.3814,16.1226 L20.0413874,16.1226 C19.9706585,17.0523703 19.6013817,17.8986902 19.0292065,18.5659102 L19.2697227,18.8064264 C19.3976585,18.9343621 19.3976585,19.141787 19.2697227,19.2697227 C19.141787,19.3976585 18.9343621,19.3976585 18.8064264,19.2697227 L18.5659102,19.0292065 C17.8986902,19.6013817 17.0523703,19.9706585 16.1226,20.0413874 L16.1226,20.3814 C16.1226,20.5623285 15.9759285,20.709 15.795,20.709 C15.6140715,20.709 15.4674,20.5623285 15.4674,20.3814 L15.4674,20.0413874 C14.5376297,19.9706585 13.6913098,19.6013817 13.0240898,19.0292065 L12.7835736,19.2697227 C12.6556379,19.3976585 12.448213,19.3976585 12.3202773,19.2697227 C12.1923415,19.141787 12.1923415,18.9343621 12.3202773,18.8064264 L12.5607935,18.5659102 C11.9886183,17.8986902 11.6193415,17.0523703 11.5486126,16.1226 L11.2086,16.1226 C11.0276715,16.1226 10.881,15.9759285 10.881,15.795 C10.881,15.6140715 11.0276715,15.4674 11.2086,15.4674 L11.5486126,15.4674 C11.6193415,14.5376297 11.9886183,13.6913098 12.5607935,13.0240898 L12.3202773,12.7835736 C12.1923415,12.6556379 12.1923415,12.448213 12.3202773,12.3202773 C12.448213,12.1923415 12.6556379,12.1923415 12.7835736,12.3202773 L13.0240898,12.5607935 C13.6913098,11.9886183 14.5376297,11.6193415 15.4674,11.5486126 L15.4674,11.2086 C15.4674,11.0276715 15.6140715,10.881 15.795,10.881 C15.9759285,10.881 16.1226,11.0276715 16.1226,11.2086 L16.1226,11.5486126 C17.0523703,11.6193415 17.8986902,11.9886183 18.5659102,12.5607935 L18.8064264,12.3202773 C18.9343621,12.1923415 19.141787,12.1923415 19.2697227,12.3202773 C19.3976585,12.448213 19.3976585,12.6556379 19.2697227,12.7835736 L19.0292065,13.0240898 Z M13.0257088,18.1009948 L15.0041036,16.1226 L12.2060906,16.1226 C12.2735993,16.8717407 12.5703722,17.5547724 13.0257088,18.1009948 Z M13.4890052,18.5642912 C14.0352276,19.0196278 14.7182593,19.3164007 15.4674,19.3839094 L15.4674,16.5858964 L13.4890052,18.5642912 Z M18.5642912,13.4890052 L16.5858964,15.4674 L19.3839094,15.4674 C19.3164007,14.7182593 19.0196278,14.0352276 18.5642912,13.4890052 Z M18.1009948,13.0257088 C17.5547724,12.5703722 16.8717407,12.2735993 16.1226,12.2060906 L16.1226,15.0041036 L18.1009948,13.0257088 Z M13.0257088,13.4890052 C12.5703722,14.0352276 12.2735993,14.7182593 12.2060906,15.4674 L15.0041036,15.4674 L13.0257088,13.4890052 Z M13.4890052,13.0257088 L15.4674,15.0041036 L15.4674,12.2060906 C14.7182593,12.2735993 14.0352276,12.5703722 13.4890052,13.0257088 Z M18.5642912,18.1009948 C19.0196278,17.5547724 19.3164007,16.8717407 19.3839094,16.1226 L16.5858964,16.1226 L18.5642912,18.1009948 Z M18.1009948,18.5642912 L16.1226,16.5858964 L16.1226,19.3839094 C16.8717407,19.3164007 17.5547724,19.0196278 18.1009948,18.5642912 Z M15.795,16.4502 C16.156857,16.4502 16.4502,16.156857 16.4502,15.795 C16.4502,15.433143 16.156857,15.1398 15.795,15.1398 C15.433143,15.1398 15.1398,15.433143 15.1398,15.795 C15.1398,16.156857 15.433143,16.4502 15.795,16.4502 Z M15.795,16.1226 C15.6140715,16.1226 15.4674,15.9759285 15.4674,15.795 C15.4674,15.6140715 15.6140715,15.4674 15.795,15.4674 C15.9759285,15.4674 16.1226,15.6140715 16.1226,15.795 C16.1226,15.9759285 15.9759285,16.1226 15.795,16.1226 Z" id="Combined-Shape" fill="#171717" fill-rule="nonzero"></path>
                </g>
            </g>
        </g>
    </symbol>
    <symbol viewBox="0 0 32 32" id="cluster">
        <g id="Topology" stroke="none" stroke-width="1" fill="none" fill-rule="evenodd">
            <g id="Artboard" transform="translate(-1308.000000, -946.000000)">
                <g id="Cluster" transform="translate(1308.000000, 946.000000)">
                    <circle id="Oval" stroke="#1192E8" stroke-width="1.404" fill="#FFFFFF" cx="15.795" cy="15.795" r="15.093"></circle>
                    <circle id="Oval" fill="#FAFAFA" cx="15.795" cy="15.795" r="10.53"></circle>
                    <g id="Organization-/-Data-/-data-vis--1-/-24" transform="translate(10.881000, 10.881000)" fill="#000000">
                        <path d="M7.98525,6.75675 C7.76654641,6.75788637 7.5522067,6.81805004 7.3648575,6.93088987 L6.19378988,5.75951512 C6.53496324,5.24746338 6.53496324,4.58053662 6.19378988,4.06848487 L6.97603725,3.2862375 C7.38462365,3.4830439 7.87558462,3.35643164 8.13803584,2.98657361 C8.40048707,2.61671559 8.35788186,2.11148481 8.03719853,1.79080147 C7.71651519,1.47011814 7.21128441,1.42751293 6.84142639,1.68996416 C6.47156836,1.95241538 6.3449561,2.44337635 6.5417625,2.85196275 L5.75951513,3.63421012 C5.24746338,3.29303676 4.58053662,3.29303676 4.06848488,3.63421012 L2.89711013,2.46283538 C3.00989675,2.27557563 3.07005841,2.06134921 3.07125,1.84275 C3.07125,1.16426818 2.52123182,0.61425 1.84275,0.61425 C1.16426818,0.61425 0.61425,1.16426818 0.61425,1.84275 C0.61425,2.52123182 1.16426818,3.07125 1.84275,3.07125 C2.06145359,3.07011363 2.2757933,3.00994996 2.4631425,2.89711013 L3.63421012,4.06848487 C3.29303676,4.58053662 3.29303676,5.24746338 3.63421012,5.75951513 L2.46283537,6.93088988 C2.27556955,6.81811732 2.06134708,6.75795677 1.84275,6.75675 C1.16426818,6.75675 0.61425,7.30676818 0.61425,7.98525 C0.61425,8.66373182 1.16426818,9.21375 1.84275,9.21375 C2.52123182,9.21375 3.07125,8.66373182 3.07125,7.98525 C3.07011363,7.76654641 3.00994996,7.5522067 2.89711013,7.3648575 L4.06848488,6.19378987 C4.23182007,6.30265547 4.41462355,6.3789887 4.606875,6.41860538 L4.606875,7.427511 C4.18379597,7.57709202 3.93001079,8.00971749 4.00589413,8.45199802 C4.08177747,8.89427854 4.46525693,9.21756668 4.914,9.21756668 C5.36274307,9.21756668 5.74622253,8.89427854 5.82210587,8.45199802 C5.89798921,8.00971749 5.64420403,7.57709202 5.221125,7.427511 L5.221125,6.41860538 C5.41337645,6.3789887 5.59617993,6.30265547 5.75951513,6.19378988 L6.93088988,7.36516463 C6.81810325,7.55242437 6.75794159,7.76665079 6.75675,7.98525 C6.75675,8.66373182 7.30676818,9.21375 7.98525,9.21375 C8.66373182,9.21375 9.21375,8.66373182 9.21375,7.98525 C9.21375,7.30676818 8.66373182,6.75675 7.98525,6.75675 L7.98525,6.75675 Z M4.914,3.992625 C5.42286136,3.992625 5.835375,4.40513864 5.835375,4.914 C5.835375,5.42286136 5.42286136,5.835375 4.914,5.835375 C4.40513864,5.835375 3.992625,5.42286136 3.992625,4.914 C3.99313289,4.40534916 4.40534916,3.99313289 4.914,3.992625 L4.914,3.992625 Z M1.2285,1.84275 C1.2285,1.50350909 1.50350909,1.2285 1.84275,1.2285 C2.18199091,1.2285 2.457,1.50350909 2.457,1.84275 C2.457,2.18199091 2.18199091,2.457 1.84275,2.457 C1.50364944,2.45666141 1.22883859,2.18185056 1.2285,1.84275 L1.2285,1.84275 Z M1.84275,8.5995 C1.50350909,8.5995 1.2285,8.32449091 1.2285,7.98525 C1.2285,7.64600909 1.50350909,7.371 1.84275,7.371 C2.18199091,7.371 2.457,7.64600909 2.457,7.98525 C2.45666141,8.32435056 2.18185056,8.59916141 1.84275,8.5995 L1.84275,8.5995 Z M7.98525,8.5995 C7.64600909,8.5995 7.371,8.32449091 7.371,7.98525 C7.371,7.64600909 7.64600909,7.371 7.98525,7.371 C8.32449091,7.371 8.5995,7.64600909 8.5995,7.98525 C8.5989926,8.32428051 8.32428051,8.5989926 7.98525,8.5995 L7.98525,8.5995 Z" id="Fill"></path>
                    </g>
                </g>
            </g>
        </g>
    </symbol>
    <symbol viewBox="0 0 32 32" id="configmap">
        <g id="Topology" stroke="none" stroke-width="1" fill="none" fill-rule="evenodd">
        <g id="Artboard" transform="translate(-1371.000000, -946.000000)">
            <g id="ConfigMap" transform="translate(1371.000000, 946.000000)">
                <circle id="Oval-Copy-16" stroke="#A56EFF" stroke-width="1.404" fill="#FFFFFF" cx="15.795" cy="15.795" r="15.093"></circle>
                <circle id="Oval-Copy-15" fill="#FAFAFA" cx="15.795" cy="15.795" r="10.53"></circle>
                <g id="Organization-/-File-/-catalog-/-32" transform="translate(10.881000, 10.881000)" fill="#000000">
                    <path d="M7.98525,0.61425 L2.457,0.61425 C2.11775909,0.61425 1.84275,0.889259092 1.84275,1.2285 L1.84275,2.457 L1.2285,2.457 L1.2285,3.07125 L1.84275,3.07125 L1.84275,4.606875 L1.2285,4.606875 L1.2285,5.221125 L1.84275,5.221125 L1.84275,6.75675 L1.2285,6.75675 L1.2285,7.371 L1.84275,7.371 L1.84275,8.5995 C1.84275,8.93874091 2.11775909,9.21375 2.457,9.21375 L7.98525,9.21375 C8.32449091,9.21375 8.5995,8.93874091 8.5995,8.5995 L8.5995,1.2285 C8.5995,0.889259092 8.32449091,0.61425 7.98525,0.61425 Z M7.98525,8.5995 L2.457,8.5995 L2.457,7.371 L3.07125,7.371 L3.07125,6.75675 L2.457,6.75675 L2.457,5.221125 L3.07125,5.221125 L3.07125,4.606875 L2.457,4.606875 L2.457,3.07125 L3.07125,3.07125 L3.07125,2.457 L2.457,2.457 L2.457,1.2285 L7.98525,1.2285 L7.98525,8.5995 Z M4.29975,2.457 L6.75675,2.457 L6.75675,3.07125 L4.29975,3.07125 L4.29975,2.457 Z M4.29975,4.606875 L6.75675,4.606875 L6.75675,5.221125 L4.29975,5.221125 L4.29975,4.606875 Z M4.29975,6.75675 L6.75675,6.75675 L6.75675,7.371 L4.29975,7.371 L4.29975,6.75675 Z" id="Fill"></path>
                </g>
            </g>
        </g>
    </g>
    </symbol>
    <symbol viewBox="0 0 32 32" id="container">
        <defs>
            <path d="M4.72217442,0.334674419 C4.81731372,0.281623865 4.93313977,0.281623865 5.02827907,0.334674419 L5.02827907,0.334674419 L9.54230233,2.93860465 C9.64355766,2.98914397 9.70925352,3.09081614 9.71372093,3.20389535 L9.71372093,3.20389535 L9.71372093,8.41583721 C9.71339087,8.52463113 9.65608723,8.62529969 9.5627093,8.68112791 L9.5627093,8.68112791 L5.04868605,11.2850581 C5.00304213,11.3122491 4.95080132,11.3263682 4.89767442,11.3258847 C4.84326826,11.3262925 4.78973318,11.3122043 4.7425814,11.2850581 L4.7425814,11.2850581 L0.232639535,8.68112791 C0.136455801,8.62757252 0.0770308383,8.52592456 0.0775431825,8.41583721 L0.0775431825,8.41583721 L0.0775431825,3.20389535 C0.0770308383,3.093808 0.136455801,2.99216004 0.232639535,2.93860465 L0.232639535,2.93860465 Z M4.89767442,0.955046512 L0.669348837,3.38347674 L0.669348837,8.23625581 L4.89767442,10.664686 L9.08110465,8.2444186 L9.10151163,3.38347674 L4.89767442,0.955046512 Z M6.93837209,3.55897674 C7.1065101,3.56117491 7.24227858,3.69694339 7.24447674,3.8650814 L7.24447674,3.8650814 L7.24447674,7.77913953 C7.24447674,7.94819647 7.10742902,8.08524419 6.93837209,8.08524419 L6.93837209,8.08524419 L2.97533721,8.08524419 C2.80628028,8.08524419 2.66923256,7.94819647 2.66923256,7.77913953 L2.66923256,7.77913953 L2.66923256,3.8650814 C2.67143072,3.69694339 2.8071992,3.56117491 2.97533721,3.55897674 L2.97533721,3.55897674 Z M6.63226744,4.17118605 L3.28144186,4.17118605 L3.26511628,7.47303488 L6.63226744,7.47303488 L6.63226744,4.17118605 Z M4.79972093,4.75074419 C4.91923135,4.6313824 5.11283842,4.6313824 5.23234884,4.75074419 C5.26014191,4.78050024 5.28227182,4.81507822 5.29765116,4.85277907 C5.31349078,4.88881355 5.32182301,4.92769729 5.32213953,4.96705814 C5.32299288,5.04839679 5.29055283,5.12654781 5.23234884,5.18337209 C5.20420527,5.21228366 5.17100696,5.23579913 5.13439535,5.25275581 C5.09616411,5.26535785 5.05627885,5.27223461 5.01603488,5.27316279 C4.93487823,5.27309135 4.85707162,5.24079426 4.79972093,5.18337209 C4.77109991,5.15584934 4.74881614,5.12242368 4.7344186,5.0854186 C4.71814257,5.04808818 4.70980342,5.00778225 4.70992881,4.96705814 C4.71024676,4.92769729 4.71857899,4.88881355 4.7344186,4.85277907 C4.7482838,4.81431296 4.77059876,4.77944583 4.79972093,4.75074419 Z M5.616,4.75074419 C5.73805724,4.63770377 5.92657067,4.63770377 6.04862791,4.75074419 C6.07642098,4.78050024 6.09855089,4.81507822 6.11393023,4.85277907 C6.12976985,4.88881355 6.13810208,4.92769729 6.13842003,4.96705814 C6.13854542,5.00778225 6.13020626,5.04808818 6.11393023,5.0854186 C6.09844179,5.12184563 6.07629576,5.15506468 6.04862791,5.18337209 C5.92911749,5.30273388 5.73551042,5.30273388 5.616,5.18337209 C5.58695026,5.15621044 5.56459699,5.12268054 5.55069767,5.0854186 C5.53442164,5.04808818 5.52608249,5.00778225 5.52620788,4.96705814 C5.52652583,4.92769729 5.53485806,4.88881355 5.55069767,4.85277907 C5.56456287,4.81431296 5.58687783,4.77944583 5.616,4.75074419 Z" id="path-container"></path>
        </defs>
        <g id="Topology" stroke="none" stroke-width="1" fill="none" fill-rule="evenodd">
            <g id="Artboard" transform="translate(-1436.000000, -945.000000)">
                <g id="Container" transform="translate(1436.000000, 945.000000)">
                    <circle id="Oval" stroke="#005D5D" stroke-width="1.404" fill="#FFFFFF" cx="15.795" cy="15.795" r="15.093"></circle>
                    <circle id="Oval" fill="#FAFAFA" cx="15.795" cy="15.795" r="10.53"></circle>
                    <g id="02_Software/Containerized-app/Containerized-app_outline" transform="translate(10.881000, 9.828000)">
                        <mask id="mask-container" fill="white">
                            <use xlink:href="#path-container"></use>
                        </mask>
                        <use id="Combined-Shape" fill="#000000" fill-rule="evenodd" xlink:href="#path-container"></use>
                    </g>
                </g>
            </g>
        </g>
    </symbol>
    <symbol viewBox="0 0 32 32" id="customresource">
        <g id="Topology" stroke="none" stroke-width="1" fill="none" fill-rule="evenodd">
            <g id="Artboard" transform="translate(-1496.000000, -945.000000)">
                <g id="CustomResource" transform="translate(1496.000000, 945.000000)">
                    <circle id="Oval" stroke="#78A9FF" stroke-width="1.404" fill="#FFFFFF" cx="15.795" cy="15.795" r="15.093"></circle>
                    <circle id="Oval" fill="#FAFAFA" cx="15.99" cy="15.99" r="10.53"></circle>
                    <g id="Group-2" transform="translate(10.920000, 10.920000)" fill="#000000">
                        <g id="Actions-/-Controls-/-settings-/-32-Copy-2">
                            <g id="Actions-/-Controls-/-settings-/-32-Copy">
                                <path d="M8.94705882,5.28234353 L8.94705882,4.73478353 L9.63419294,4.13354118 C9.89570499,3.90304393 9.95313309,3.51767121 9.77018824,3.22094118 L8.92558588,1.78941176 C8.79785803,1.56818032 8.56190526,1.43179143 8.30644941,1.43152941 C8.22866371,1.43093349 8.15130101,1.44302141 8.07740471,1.46731765 L7.20775059,1.76078118 C7.05760464,1.66100622 6.90098306,1.57133737 6.73892471,1.49236941 L6.55640471,0.590505882 C6.48885908,0.25043478 6.1872906,0.00767215288 5.84064,0.0143152941 L4.16575059,0.0143152941 C3.81909999,0.00767215288 3.51753151,0.25043478 3.44998588,0.590505882 L3.26746588,1.49236941 C3.10424758,1.57131827 2.94643434,1.66098488 2.79506118,1.76078118 L1.94330118,1.45300235 C1.8686101,1.43354199 1.79126308,1.4262907 1.71425647,1.43152941 C1.45880062,1.43179143 1.22284786,1.56818032 1.09512,1.78941176 L0.250517647,3.22094118 C0.0782332529,3.51691473 0.139740262,3.89345764 0.397249412,4.11922588 L1.07364706,4.73836235 L1.07364706,5.28592235 L0.397249412,5.88716471 C0.132148301,6.11477468 0.0701254755,6.5005264 0.250517647,6.79976471 L1.09512,8.23129412 C1.22284786,8.45252556 1.45880062,8.58891445 1.71425647,8.58917647 C1.79204217,8.58977239 1.86940487,8.57768447 1.94330118,8.55338824 L2.81295529,8.25992471 C2.96310124,8.35969966 3.11972283,8.44936851 3.28178118,8.52833647 L3.46430118,9.4302 C3.53184681,9.7702711 3.83341529,10.0130337 4.18006588,10.0063906 L5.86927059,10.0063906 C6.21592118,10.0130337 6.51748966,9.7702711 6.58503529,9.4302 L6.76755529,8.52833647 C6.93077359,8.44938761 7.08858683,8.359721 7.23996,8.25992471 L8.10603529,8.55338824 C8.1799316,8.57768447 8.2572943,8.58977239 8.33508,8.58917647 C8.59053585,8.58891445 8.82648861,8.45252556 8.95421647,8.23129412 L9.77018824,6.79976471 C9.94247263,6.50379115 9.88096562,6.12724824 9.62345647,5.90148 L8.94705882,5.28234353 Z M8.30644941,7.87341176 L7.07891294,7.45826824 C6.79155654,7.70166692 6.46313945,7.8919307 6.10905176,8.02014353 L5.85495529,9.30494118 L4.16575059,9.30494118 L3.91165412,8.03445882 C3.56036454,7.90260702 3.23372397,7.71267157 2.94537176,7.47258353 L1.71425647,7.87341176 L0.869654118,6.44188235 L1.84309412,5.58296471 C1.77692056,5.21250599 1.77692056,4.83325165 1.84309412,4.46279294 L0.869654118,3.57882353 L1.71425647,2.14729412 L2.94179294,2.56243765 C3.22914934,2.31903896 3.55756643,2.12877519 3.91165412,2.00056235 L4.16575059,0.715764706 L5.85495529,0.715764706 L6.10905176,1.98624706 C6.46034134,2.11809887 6.78698191,2.30803431 7.07533412,2.54812235 L8.30644941,2.14729412 L9.15105176,3.57882353 L8.17761176,4.43774118 C8.24378532,4.80819989 8.24378532,5.18745423 8.17761176,5.55791294 L9.15105176,6.44188235 L8.30644941,7.87341176 Z" id="Fill"></path>
                            </g>
                        </g>
                        <g id="Actions-/-Navigation-/-add--alt-/-24" transform="translate(0.715765, 0.715765)">
                            <path d="M4.29458824,1.07364706 C6.07346493,1.07364706 7.51552941,2.51571154 7.51552941,4.29458824 C7.51552941,6.07346493 6.07346493,7.51552941 4.29458824,7.51552941 C2.51571154,7.51552941 1.07364706,6.07346493 1.07364706,4.29458824 C1.07364706,2.51571154 2.51571154,1.07364706 4.29458824,1.07364706 L4.29458824,1.07364706 Z M4.29458824,0.536823529 C2.21923209,0.536823529 0.536823529,2.21923209 0.536823529,4.29458824 C0.536823529,6.36994438 2.21923209,8.05235294 4.29458824,8.05235294 C6.36994438,8.05235294 8.05235294,6.36994438 8.05235294,4.29458824 C8.05235294,2.21923209 6.36994438,0.536823529 4.29458824,0.536823529 Z M5.90505882,4.02617647 L4.563,4.02617647 L4.563,2.68411765 L4.02617647,2.68411765 L4.02617647,4.02617647 L2.68411765,4.02617647 L2.68411765,4.563 L4.02617647,4.563 L4.02617647,5.90505882 L4.563,5.90505882 L4.563,4.563 L5.90505882,4.563 L5.90505882,4.02617647 Z" id="Fill"></path>
                        </g>
                    </g>
                </g>
            </g>
        </g>
    </symbol>
    <symbol viewBox="0 0 32 32" id="daemonset">
        <g id="Topology" stroke="none" stroke-width="1" fill="none" fill-rule="evenodd">
            <g id="Artboard" transform="translate(-1560.000000, -946.000000)">
                <g id="DaemonSet" transform="translate(1560.000000, 946.000000)">
                    <circle id="Oval" stroke="#31135E" stroke-width="1.404" fill="#FFFFFF" cx="15.795" cy="15.795" r="15.093"></circle>
                    <circle id="Oval" fill="#FAFAFA" cx="15.795" cy="15.795" r="10.53"></circle>
                    <g id="Deamonset-01" transform="translate(11.934000, 11.583000)">
                        <g id="icon/file/template/32-copy" transform="translate(1.053000, 1.053000)" fill="#000000" fill-rule="nonzero">
                            <polygon id="Polygon" points="0.702 0 1.30994983 0.351 1.30994983 1.053 0.702 1.404 0.0940501664 1.053 0.0940501664 0.351"></polygon>
                        </g>
                        <g id="icon/file/template/32-copy-2" transform="translate(1.053000, 5.967000)" fill="#000000" fill-rule="nonzero">
                            <polygon id="Polygon" points="0.702 0 1.30994983 0.351 1.30994983 1.053 0.702 1.404 0.0940501664 1.053 0.0940501664 0.351"></polygon>
                        </g>
                        <rect id="Rectangle-Copy-2" fill="#000000" fill-rule="nonzero" x="3.159" y="0" width="1" height="3.159"></rect>
                        <rect id="Rectangle-Copy-3" fill="#000000" fill-rule="nonzero" x="3.159" y="4.914" width="1" height="3.159"></rect>
                        <rect id="Rectangle" stroke="#000000" stroke-width="0.702" x="0" y="0" width="7.722" height="3.51" rx="0.702"></rect>
                        <rect id="Rectangle-Copy" stroke="#000000" stroke-width="0.702" x="0" y="4.914" width="7.722" height="3.51" rx="0.702"></rect>
                    </g>
                </g>
            </g>
        </g>
    </symbol>
    <symbol viewBox="0 0 50 50" id="deployable">
     <g>
      <path d="m22 1.6q2.8-1.5 5.7 0l17 9.2q2.8 1.5 2.8 4.6l-2.2e-4 18q0 3.1-2.8 4.6l-17 9.2q-2.8 1.5-5.7 0l-17-9.2q-2.8-1.5-2.8-4.6v-18q0-3.1 2.8-4.6z"/>
      <path d="m22 19 8.4 5.9-8.4 6.8"/>
     </g>
    </symbol>
    <symbol viewBox="0 0 32 32" id="deployment">
        <g id="Topology" stroke="none" stroke-width="1" fill="none" fill-rule="evenodd">
            <g id="Artboard" transform="translate(-1245.000000, -1018.000000)">
                <g id="Deployment" transform="translate(1245.000000, 1018.000000)">
                    <circle id="Oval" stroke="#520408" stroke-width="1.404" fill="#FFFFFF" cx="15.795" cy="15.795" r="15.093"></circle>
                    <circle id="Oval" fill="#FAFAFA" cx="15.795" cy="15.795" r="10.53"></circle>
                    <g transform="translate(12.636000, 11.232000)" fill="#000000" fill-rule="nonzero" id="Shape">
                        <path d="M3.729375,0 L1.49175,2.2815 L2.01759187,2.8176525 L3.3564375,1.4563575 L3.3564375,6.084 L4.1023125,6.084 L4.1023125,1.4563575 L5.44115812,2.8176525 L5.967,2.2815 L3.729375,0 Z M0,5.3235 L2.6105625,5.3235 L2.6105625,6.084 L0,6.084 L0,5.3235 Z M0,6.8445 L5.967,6.8445 L5.967,7.605 L0,7.605 L0,6.8445 Z M0,8.3655 L5.967,8.3655 L5.967,9.126 L0,9.126 L0,8.3655 Z"></path>
                    </g>
                </g>
            </g>
        </g>
    </symbol>
    <symbol viewBox="0 0 32 32" id="deploymentconfig">
        <defs>
            <circle id="path-dc" cx="15.9705" cy="15.9705" r="5.4405"></circle>
            <mask id="mask-dc" maskContentUnits="userSpaceOnUse" maskUnits="objectBoundingBox" x="0" y="0" width="10.881" height="10.881" fill="white">
                <use xlink:href="#path-dc"></use>
            </mask>
        </defs>
        <g id="Topology" stroke="none" stroke-width="1" fill="none" fill-rule="evenodd">
            <g id="Artboard" transform="translate(-1308.000000, -1018.000000)">
                <g id="DeploymentConfig" transform="translate(1308.000000, 1018.000000)">
                    <circle id="Oval-Copy-34" stroke="#EE5396" stroke-width="1.404" fill="#FFFFFF" cx="15.795" cy="15.795" r="15.093"></circle>
                    <circle id="Oval-Copy-33" fill="#FAFAFA" cx="15.795" cy="15.795" r="10.53"></circle>
                    <use id="Oval-Copy-6" stroke="#000000" mask="url(#mask-dc)" stroke-width="1.404" stroke-dasharray="2.106000037193299,2.807999925613403" xlink:href="#path-dc"></use>
                    <polygon id="Shape-path" fill="#000000" fill-rule="nonzero" points="16.014375 12.987 14.742 14.2843235 15.0410081 14.5891946 15.8023125 13.8151249 15.8023125 16.4465294 16.2264375 16.4465294 16.2264375 13.8151249 16.9877419 14.5891946 17.28675 14.2843235"></polygon>
                    <polygon id="Shape-path" fill="#000000" fill-rule="nonzero" points="14.04 17.199 17.901 17.199 17.901 17.6910882 14.04 17.6910882"></polygon>
                    <polygon id="Shape-path" fill="#000000" fill-rule="nonzero" points="14.04 18.1831765 17.901 18.1831765 17.901 18.6752647 14.04 18.6752647"></polygon>
                </g>
            </g>
        </g>
    </symbol>
    <symbol viewBox="0 0 32 32" id="host">
        <defs>
            <path d="M8.78764492,6.916 C8.95943166,6.916 9.09869233,7.0570303 9.09869233,7.231 C9.10283963,9.457 9.10283963,9.457 9.00745176,9.5536 C8.94917501,9.61269084 8.87011203,9.64592648 8.78764492,9.646 L8.78764492,9.646 L0.493047407,9.646 C0.321260668,9.646 0.182,9.5049697 0.182,9.331 L0.182,9.331 L0.182,7.231 C0.182,7.0570303 0.321260668,6.916 0.493047407,6.916 L0.493047407,6.916 Z M8.47659752,7.546 L0.804094814,7.546 L0.804094814,9.016 L8.47659752,9.016 L8.47659752,7.546 Z M7.45098771,8.02897118 C7.55205774,7.98658689 7.66870695,8.00964683 7.74608303,8.08730747 C7.82412675,8.16550975 7.84745673,8.28304106 7.80520665,8.38515925 C7.76295657,8.48727745 7.66343509,8.55390056 7.55299597,8.554 C7.51781528,8.55414799 7.48301787,8.54668554 7.45098771,8.53212167 C7.41690916,8.51921798 7.38589055,8.49935045 7.35990891,8.47378538 C7.2533637,8.36702357 7.2533637,8.19406927 7.35990891,8.08730747 C7.38589055,8.06174239 7.41690916,8.04187487 7.45098771,8.02897118 Z M2.60866667,8.008 C2.77619304,8.008 2.912,8.13022626 2.912,8.281 C2.912,8.43177374 2.77619304,8.554 2.60866667,8.554 L2.60866667,8.554 L1.39533333,8.554 C1.22780696,8.554 1.092,8.43177374 1.092,8.281 C1.092,8.13022626 1.22780696,8.008 1.39533333,8.008 L1.39533333,8.008 Z M8.78890698,3.64 C8.95978501,3.64226204 9.09776602,3.78197593 9.1,3.955 L9.1,3.955 L9.1,6.055 C9.09776602,6.22802407 8.95978501,6.36773796 8.78890698,6.37 L8.78890698,6.37 L0.493093023,6.37 C0.321281091,6.37 0.182,6.2289697 0.182,6.055 L0.182,6.055 L0.182,3.955 C0.182,3.7810303 0.321281091,3.64 0.493093023,3.64 L0.493093023,3.64 Z M8.47781395,4.27 L0.804186047,4.27 L0.804186047,5.74 L8.47781395,5.74 L8.47781395,4.27 Z M7.32656915,4.85299812 C7.39920884,4.74502146 7.5379088,4.70308763 7.65828179,4.75270983 C7.69086846,4.76655295 7.72058537,4.78634644 7.74590845,4.81107516 C7.82412266,4.88931637 7.8475036,5.00690618 7.80516122,5.10907521 C7.76281885,5.21124424 7.66307995,5.27790051 7.55239957,5.278 C7.51714202,5.27814806 7.4822686,5.27068189 7.45016847,5.25611078 C7.41601547,5.24320067 7.38492909,5.22332325 7.3588907,5.19774545 C7.26744416,5.10512497 7.25392946,4.96097478 7.32656915,4.85299812 Z M2.60866667,4.732 C2.77619304,4.732 2.912,4.85422626 2.912,5.005 C2.912,5.15577374 2.77619304,5.278 2.60866667,5.278 L2.60866667,5.278 L1.39533333,5.278 C1.22780696,5.278 1.092,5.15577374 1.092,5.005 C1.092,4.85422626 1.22780696,4.732 1.39533333,4.732 L1.39533333,4.732 Z M8.78890698,0.364 C8.95978501,0.366262041 9.09776602,0.505975933 9.1,0.679 L9.1,0.679 L9.1,2.779 C9.09776602,2.95202407 8.95978501,3.09173796 8.78890698,3.094 L8.78890698,3.094 L0.493093023,3.094 C0.321281091,3.094 0.182,2.9529697 0.182,2.779 L0.182,2.779 L0.182,0.679 C0.182,0.505030304 0.321281091,0.364 0.493093023,0.364 L0.493093023,0.364 Z M8.47781395,0.994 L0.804186047,0.994 L0.804186047,2.464 L8.47781395,2.464 L8.47781395,0.994 Z M7.35829862,1.5332896 C7.4383984,1.45422205 7.56028901,1.43357843 7.66250774,1.48176818 C7.69235273,1.49795793 7.7189302,1.5194229 7.74091643,1.54509403 C7.81242985,1.61087219 7.84186733,1.70993667 7.81768051,1.80342439 C7.7934937,1.89691211 7.71954018,1.9699126 7.62483197,1.99378772 C7.53012376,2.01766285 7.429766,1.98860473 7.36312909,1.91801289 C7.33896846,1.89361231 7.31962969,1.86497798 7.30610459,1.83357843 C7.25728572,1.73267698 7.27819884,1.61235715 7.35829862,1.5332896 Z M2.60866667,1.456 C2.77619304,1.456 2.912,1.57822626 2.912,1.729 C2.912,1.87977374 2.77619304,2.002 2.60866667,2.002 L2.60866667,2.002 L1.39533333,2.002 C1.22780696,2.002 1.092,1.87977374 1.092,1.729 C1.092,1.57822626 1.22780696,1.456 1.39533333,1.456 L1.39533333,1.456 Z" id="path-host"></path>
        </defs>
        <g id="Topology" stroke="none" stroke-width="1" fill="none" fill-rule="evenodd">
            <g id="Artboard" transform="translate(-1434.000000, -1018.000000)">
                <g id="Host" transform="translate(1434.000000, 1018.000000)">
                    <circle id="Oval" stroke="#002D9C" stroke-width="1.404" fill="#FFFFFF" cx="15.795" cy="15.795" r="15.093"></circle>
                    <circle id="Oval" fill="#FAFAFA" cx="15.795" cy="15.795" r="10.53"></circle>
                    <g id="01_Hardware/Server-stack/Server-stack_outline" transform="translate(11.232000, 10.881000)">
                        <mask id="mask-2" fill="white">
                            <use xlink:href="#path-host"></use>
                        </mask>
                        <use id="Combined-Shape" fill="#000000" fill-rule="evenodd" xlink:href="#path-host"></use>
                    </g>
                </g>
            </g>
        </g>
    </symbol>
    <symbol viewBox="0 0 32 32" id="ingress">
        <g id="Topology" stroke="none" stroke-width="1" fill="none" fill-rule="evenodd">
            <g id="Artboard" transform="translate(-1496.000000, -1018.000000)">
                <g id="Ingress" transform="translate(1496.000000, 1018.000000)">
                    <circle id="Oval-Copy-20" stroke="#0F62FE" stroke-width="1.404" fill="#FFFFFF" cx="15.795" cy="15.795" r="15.093"></circle>
                    <circle id="Oval-Copy-19" fill="#FAFAFA" cx="15.795" cy="15.795" r="10.53"></circle>
                    <g id="Group-13" transform="translate(10.881000, 11.934000)">
                        <path d="M7.488,5.78675889 L7.488,6.80727273 C7.488,7.18322802 7.18322802,7.488 6.80727273,7.488 L0.680727273,7.488 C0.304771981,7.488 0,7.18322802 0,6.80727273 L0,0.680727273 C0,0.304771981 0.304771981,0 0.680727273,0 L6.80727273,0 C7.18322802,0 7.488,0.304771981 7.488,0.680727273 L7.488,1.70434538 L7.488,1.70434538" id="path-ingress" stroke="#000000" stroke-width="0.702"></path>
                        <polygon id="path-ingress" fill="#000000" fill-rule="nonzero" transform="translate(9.062182, 3.744000) scale(-1, 1) rotate(-270.000000) translate(-9.062182, -3.744000) " points="9.06218182 1.19127273 7.02 3.23345455 7.49991273 3.71336727 8.72181818 2.49486545 8.72181818 6.29672727 9.40254545 6.29672727 9.40254545 2.49486545 10.6244509 3.71336727 11.1043636 3.23345455"></polygon>
                        <path d="M3.744,2.38254545 C4.49591058,2.38254545 5.10545455,2.99208942 5.10545455,3.744 C5.10545455,4.1050802 4.962016,4.45137149 4.70669374,4.70669374 C4.45137149,4.962016 4.1050802,5.10545455 3.744,5.10545455 C2.99208942,5.10545455 2.38254545,4.49591058 2.38254545,3.744 C2.38254545,2.99208942 2.99208942,2.38254545 3.744,2.38254545 Z M3.744,3.06327273 C3.36804471,3.06327273 3.06327273,3.36804471 3.06327273,3.744 C3.06327273,4.11995529 3.36804471,4.42472727 3.744,4.42472727 C4.11995529,4.42472727 4.42472727,4.11995529 4.42472727,3.744 C4.42472727,3.36804471 4.11995529,3.06327273 3.744,3.06327273 Z" id="Combined-Shape" fill="#000000"></path>
                    </g>
                </g>
            </g>
        </g>
    </symbol>
    <symbol viewBox="0 0 32 32" id="namespace">
        <g id="Topology" stroke="none" stroke-width="1" fill="none" fill-rule="evenodd">
            <g id="Artboard" transform="translate(-1245.000000, -1091.000000)">
                <g id="Namespace" transform="translate(1245.000000, 1091.000000)">
                    <circle id="Oval-Copy-38" stroke="#82CFFF" stroke-width="1.404" fill="#FFFFFF" cx="15.795" cy="15.795" r="15.093"></circle>
                    <circle id="Oval-Copy-37" fill="#FAFAFA" cx="15.795" cy="15.795" r="10.53"></circle>
                    <g id="Organization-/-File-/-categories-/-32" transform="translate(10.881000, 10.881000)" fill="#000000">
                        <path d="M2.076165,1.84275 L2.21437125,2.11609125 L2.38329,2.457 L3.6855,2.457 L3.6855,3.992625 L1.2285,3.992625 L1.2285,1.84275 L2.076165,1.84275 L2.076165,1.84275 Z M2.2665825,1.22849252 L0.921375,1.22849252 C0.751754546,1.22849252 0.61425,1.36600455 0.61425,1.535625 L0.61425,4.29975 C0.61425,4.46937045 0.751754546,4.606875 0.921375,4.606875 L3.992625,4.606875 C4.16224545,4.606875 4.29975,4.46937045 4.29975,4.29975 L4.29975,2.149875 C4.29975,1.98025455 4.16224545,1.84275 3.992625,1.84275 L2.764125,1.84275 L2.542995,1.39741875 C2.4904565,1.29314865 2.38333818,1.22768745 2.2665825,1.22849252 Z M6.990165,1.84275 L7.12837125,2.11609125 L7.29729,2.457 L8.5995,2.457 L8.5995,3.992625 L6.1425,3.992625 L6.1425,1.84275 L6.990165,1.84275 L6.990165,1.84275 Z M7.1805825,1.22849252 L5.835375,1.22849252 C5.66575455,1.22849252 5.52825,1.36600455 5.52825,1.535625 L5.52825,4.29975 C5.52825,4.46937045 5.66575455,4.606875 5.835375,4.606875 L8.906625,4.606875 C9.07624545,4.606875 9.21375,4.46937045 9.21375,4.29975 L9.21375,2.149875 C9.21375,1.98025455 9.07624545,1.84275 8.906625,1.84275 L7.678125,1.84275 L7.456995,1.39741875 C7.4044565,1.29314865 7.29733818,1.22768745 7.1805825,1.22849252 L7.1805825,1.22849252 Z M2.076165,5.835375 L2.21437125,6.10871625 L2.38329,6.449625 L3.6855,6.449625 L3.6855,7.98525 L1.2285,7.98525 L1.2285,5.835375 L2.076165,5.835375 L2.076165,5.835375 Z M2.2665825,5.22111752 L0.921375,5.22111752 C0.751754546,5.22111752 0.61425,5.35862955 0.61425,5.52825 L0.61425,8.292375 C0.61425,8.46199545 0.751754546,8.5995 0.921375,8.5995 L3.992625,8.5995 C4.16224545,8.5995 4.29975,8.46199545 4.29975,8.292375 L4.29975,6.1425 C4.29975,5.97287955 4.16224545,5.835375 3.992625,5.835375 L2.764125,5.835375 L2.542995,5.39004375 C2.4904565,5.28577365 2.38333818,5.22031245 2.2665825,5.22111752 Z M6.990165,5.835375 L7.12837125,6.10871625 L7.29729,6.449625 L8.5995,6.449625 L8.5995,7.98525 L6.1425,7.98525 L6.1425,5.835375 L6.990165,5.835375 L6.990165,5.835375 Z M7.1805825,5.22111752 L5.835375,5.22111752 C5.66575455,5.22111752 5.52825,5.35862955 5.52825,5.52825 L5.52825,8.292375 C5.52825,8.46199545 5.66575455,8.5995 5.835375,8.5995 L8.906625,8.5995 C9.07624545,8.5995 9.21375,8.46199545 9.21375,8.292375 L9.21375,6.1425 C9.21375,5.97287955 9.07624545,5.835375 8.906625,5.835375 L7.678125,5.835375 L7.456995,5.39004375 C7.4044565,5.28577365 7.29733818,5.22031245 7.1805825,5.22111752 L7.1805825,5.22111752 Z" id="Fill"></path>
                    </g>
                </g>
            </g>
        </g>
    </symbol>
    <symbol viewBox="0 0 32 32" id="node">
        <g id="Topology" stroke="none" stroke-width="1" fill="none" fill-rule="evenodd">
            <g id="Artboard" transform="translate(-1308.000000, -1091.000000)">
                <g id="Node" transform="translate(1308.000000, 1091.000000)">
                    <circle id="Oval-Copy-2" stroke="#E27508" stroke-width="1.404" fill="#FFFFFF" cx="15.795" cy="15.795" r="15.093"></circle>
                    <circle id="Oval-Copy" fill="#FAFAFA" cx="15.795" cy="15.795" r="10.53"></circle>
                    <g id="Tools-/-Technology-/-chip-/-24" transform="translate(15.795000, 15.795000) rotate(-45.000000) translate(-15.795000, -15.795000) translate(10.881000, 10.881000)" fill="#000000">
                        <path d="M3.378375,3.378375 L3.378375,6.449625 L6.449625,6.449625 L6.449625,3.378375 L3.378375,3.378375 Z M5.835375,5.835375 L3.992625,5.835375 L3.992625,3.992625 L5.835375,3.992625 L5.835375,5.835375 Z M9.21375,3.992625 L9.21375,3.378375 L7.98525,3.378375 L7.98525,2.457 C7.98525,2.11775909 7.71024091,1.84275 7.371,1.84275 L6.449625,1.84275 L6.449625,0.61425 L5.835375,0.61425 L5.835375,1.84275 L3.992625,1.84275 L3.992625,0.61425 L3.378375,0.61425 L3.378375,1.84275 L2.457,1.84275 C2.11775909,1.84275 1.84275,2.11775909 1.84275,2.457 L1.84275,3.378375 L0.61425,3.378375 L0.61425,3.992625 L1.84275,3.992625 L1.84275,5.835375 L0.61425,5.835375 L0.61425,6.449625 L1.84275,6.449625 L1.84275,7.371 C1.84275,7.71024091 2.11775909,7.98525 2.457,7.98525 L3.378375,7.98525 L3.378375,9.21375 L3.992625,9.21375 L3.992625,7.98525 L5.835375,7.98525 L5.835375,9.21375 L6.449625,9.21375 L6.449625,7.98525 L7.371,7.98525 C7.71024091,7.98525 7.98525,7.71024091 7.98525,7.371 L7.98525,6.449625 L9.21375,6.449625 L9.21375,5.835375 L7.98525,5.835375 L7.98525,3.992625 L9.21375,3.992625 Z M7.371,7.371 L2.457,7.371 L2.457,2.457 L7.371,2.457 L7.371,7.371 Z" id="Fill"></path>
                    </g>
                </g>
            </g>
        </g>
    </symbol>
    <symbol viewBox="0 0 32 32" id="other">
        <g id="Topology" stroke="none" stroke-width="1" fill="none" fill-rule="evenodd">
            <g id="Artboard" transform="translate(-1496.000000, -1236.000000)">
                <g id="Other" transform="translate(1496.000000, 1236.000000)">
                    <circle id="Oval-Copy-30" stroke="#0F62FE" stroke-width="1.404" fill="#FFFFFF" cx="15.795" cy="15.795" r="15.093"></circle>
                    <circle id="Oval-Copy-29" fill="#FAFAFA" cx="15.795" cy="15.795" r="10.53"></circle>
                    <g id="Actions-/-Controls-/-open-panel--bottom-/-32" transform="translate(10.881000, 11.583000)" fill="#000000">
                        <path d="M9.126,0 L0.702,0 C0.314296106,0 0,0.314296106 0,0.702 L0,7.722 C0,8.10970389 0.314296106,8.424 0.702,8.424 L9.126,8.424 C9.51370389,8.424 9.828,8.10970389 9.828,7.722 L9.828,0.702 C9.828,0.314296106 9.51370389,0 9.126,0 Z M9.126,0.702 L9.126,7.722 L0.702,7.722 L0.702,0.702 L9.126,0.702 Z" id="Fill"></path>
                    </g>
                    <g id="Group-17" transform="translate(12.987000, 15.093000)" fill="#000000" fill-rule="nonzero">
                        <circle id="Oval" cx="4.914" cy="0.61425" r="1"></circle>
                        <circle id="Oval" cx="2.764125" cy="0.61425" r="1"></circle>
                        <circle id="Oval" cx="0.61425" cy="0.61425" r="1"></circle>
                    </g>
                </g>
            </g>
        </g>
    </symbol>
    <symbol viewBox="0 0 32 32" id="placement">
        <g id="Topology" stroke="none" stroke-width="1" fill="none" fill-rule="evenodd">
            <g id="Artboard" transform="translate(-1371.000000, -1091.000000)">
                <g id="Placement" transform="translate(1371.000000, 1091.000000)">
                    <circle id="Oval-Copy-24" stroke="#3DDBD9" stroke-width="1.404" fill="#FFFFFF" cx="15.795" cy="15.795" r="15.093"></circle>
                    <circle id="Oval-Copy-23" fill="#FAFAFA" cx="15.795" cy="15.795" r="10.53"></circle>
                    <g id="Planning-/-Travel-/-map-/-32" transform="translate(10.881000, 10.179000)" fill="#000000">
                        <path d="M4.914,7.371 L3.04360875,4.729725 C2.41869145,3.99189393 2.27527594,2.95985632 2.67533694,2.07959074 C3.07539795,1.19932515 3.94719697,0.628679813 4.914,0.61425 C6.28093571,0.62775809 7.37952592,1.74420038 7.371,3.11117625 C7.37125123,3.68394445 7.17625317,4.23968892 6.818175,4.6867275 L4.914,7.371 Z M4.914,1.2285 C3.88558689,1.24030965 3.06101599,2.08274626 3.07125,3.11117625 C3.07330657,3.5619812 3.23549488,3.99738606 3.52886625,4.33967625 L4.914,6.302205 L6.33598875,4.29975 C6.60628685,3.96235664 6.75456968,3.54348469 6.75675,3.11117625 C6.76698401,2.08274626 5.94241311,1.24030965 4.914,1.2285 Z M4.914,3.378375 C5.25324091,3.378375 5.52825,3.10336591 5.52825,2.764125 C5.52825,2.42488409 5.25324091,2.149875 4.914,2.149875 C4.57475909,2.149875 4.29975,2.42488409 4.29975,2.764125 C4.29975,3.10336591 4.57475909,3.378375 4.914,3.378375 Z M8.5995,3.6855 L7.98525,3.6855 L7.98525,4.29975 L8.5995,4.29975 L8.5995,8.5995 L1.2285,8.5995 L1.2285,4.29975 L1.84275,4.29975 L1.84275,3.6855 L1.2285,3.6855 C0.889259092,3.6855 0.61425,3.96050909 0.61425,4.29975 L0.61425,8.5995 C0.61425,8.93874091 0.889259092,9.21375 1.2285,9.21375 L8.5995,9.21375 C8.93874091,9.21375 9.21375,8.93874091 9.21375,8.5995 L9.21375,4.29975 C9.21375,3.96050909 8.93874091,3.6855 8.5995,3.6855 Z" id="Fill"></path>
                    </g>
                </g>
            </g>
        </g>
    </symbol>
    <symbol viewBox="0 0 32 32" id="pod">
        <g id="Topology" stroke="none" stroke-width="1" fill="none" fill-rule="evenodd">
            <g id="Artboard" transform="translate(-1496.000000, -1091.000000)">
                <g id="Pod" transform="translate(1496.000000, 1091.000000)">
                    <circle id="Oval" stroke="#009D9A" stroke-width="1.404" fill="#FFFFFF" cx="15.795" cy="15.795" r="15.093"></circle>
                    <circle id="Oval" fill="#FAFAFA" cx="15.795" cy="15.795" r="10.53"></circle>
                    <path d="M19.4469655,13.528498 L15.9718587,11.5958574 C15.8625705,11.5350781 15.7274295,11.5350781 15.6181413,11.5958574 L12.1430345,13.528498 L15.795,15.4144251 L19.4469655,13.528498 Z M19.656,14.1816994 L16.146,15.9943135 L16.146,19.8972959 L19.4818587,18.0420966 C19.5896921,17.9821263 19.656,17.8720638 19.656,17.7530447 L19.656,14.1816994 Z M15.444,19.8972959 L15.444,15.9943135 L11.934,14.1816994 L11.934,17.7530447 C11.934,17.8720638 12.0003079,17.9821263 12.1081413,18.0420966 L15.444,19.8972959 Z M16.3255762,11.0177536 L19.8355762,12.9697996 C20.1590764,13.1497105 20.358,13.4798978 20.358,13.8369553 L20.358,17.7530447 C20.358,18.1101022 20.1590764,18.4402895 19.8355762,18.6202004 L16.3255762,20.5722464 C15.9977115,20.7545845 15.5922885,20.7545845 15.2644238,20.5722464 L11.7544238,18.6202004 C11.4309236,18.4402895 11.232,18.1101022 11.232,17.7530447 L11.232,13.8369553 C11.232,13.4798978 11.4309236,13.1497105 11.7544238,12.9697996 L15.2644238,11.0177536 C15.5922885,10.8354155 15.9977115,10.8354155 16.3255762,11.0177536 Z" id="Combined-Shape" fill="#000000" fill-rule="nonzero"></path>
                </g>
            </g>
        </g>
    </symbol>
    <symbol viewBox="0 0 32 32" id="policy">
        <defs>
            <path d="M4.05405,9.80343 C6.11817026,9.80303432 7.83371031,8.1968738 7.99053255,6.11793 C7.99053255,6.11793 7.99053255,6.08517 7.99053255,6.06879 L7.99053255,1.298115 C7.99044224,1.15538683 7.89302085,1.0315317 7.75539765,0.99918 L4.10675265,0.118755 C4.06024149,0.106436768 4.01137206,0.106436768 3.9648609,0.118755 L0.3162159,0.99918 C0.180863073,1.0324655 0.0844593722,1.15334788 0.081081,1.29402 L0.081081,6.064695 C0.116566186,6.64655598 0.27998687,7.2131146 0.5594589,7.72317 L0.5594589,7.743645 C1.26374577,9.02411167 2.60392012,9.81403843 4.05405,9.80343 Z M4.05405,9.18919365 C2.97500577,9.18741631 1.96209188,8.66366333 1.3297284,7.7805 L7.3459386,6.441435 C7.04713136,8.03872106 5.66334069,9.19377348 4.05405,9.18919365 Z M0.72567495,1.53972 L4.05405,0.72072 L7.39864125,1.53972 L7.39864125,2.223585 L0.71756685,3.6855 L0.72567495,1.53972 Z M0.72567495,4.328415 L7.39864125,2.8665 L7.39864125,5.818995 L1.0054044,7.22358 C0.834662831,6.85403828 0.734268453,6.45535021 0.70945875,6.048315 L0.72567495,4.328415 Z" id="path-policy"></path>
        </defs>
        <g id="Topology" stroke="none" stroke-width="1" fill="none" fill-rule="evenodd">
            <g id="Artboard" transform="translate(-1245.000000, -1163.000000)">
                <g id="Policy" transform="translate(1245.000000, 1163.000000)">
                    <circle id="Oval-Copy-12" stroke="#F0AB00" stroke-width="1.404" fill="#FFFFFF" cx="15.795" cy="15.795" r="15.093"></circle>
                    <circle id="Oval-Copy-11" fill="#FAFAFA" cx="15.795" cy="15.795" r="10.53"></circle>
                    <g id="10_Objects/Shield/Shield_outline" transform="translate(11.583000, 10.881000)">
                        <mask id="mask-2" fill="white">
                            <use xlink:href="#path-policy"></use>
                        </mask>
                        <use fill="#000000" fill-rule="evenodd" xlink:href="#path-policy"></use>
                    </g>
                </g>
            </g>
        </g>
    </symbol>
    <symbol viewBox="0 0 32 32" id="replicaset">
        <g id="Topology" stroke="none" stroke-width="1" fill="none" fill-rule="evenodd">
            <g id="Artboard" transform="translate(-1308.000000, -1236.000000)">
                <g id="ReplicaSet" transform="translate(1308.000000, 1236.000000)">
                    <circle id="Oval-Copy-26" stroke="#ACE12E" stroke-width="1.404" fill="#FFFFFF" cx="15.795" cy="15.795" r="15.093"></circle>
                    <circle id="Oval-Copy-25" fill="#FAFAFA" cx="15.795" cy="15.795" r="10.53"></circle>
                    <g id="Enterprise-/-Health-/-3D-software-/-32" transform="translate(10.179000, 10.179000)" fill="#000000">
                        <path d="M7.54299,4.603365 L4.38399,2.848365 C4.27539022,2.78566489 4.14158978,2.78566489 4.03299,2.848365 L0.87399,4.603365 C0.76509178,4.66856469 0.699461555,4.78710091 0.702,4.914 L0.702,8.422245 C0.702927635,8.54961161 0.772780476,8.66648078 0.88452,8.727615 L4.04352,10.482615 C4.09480191,10.5123261 4.15274891,10.5286237 4.212,10.53 C4.2723328,10.5284429 4.33137277,10.5121768 4.38399,10.482615 L7.54299,8.727615 C7.65325864,8.66631468 7.72174175,8.55016194 7.7220129,8.424 L7.7220129,4.914 C7.72309368,4.78564978 7.65458885,4.66677376 7.54299,4.603365 Z M3.861,9.580545 L1.404,8.215155 L1.404,5.505435 L3.861,6.870825 L3.861,9.580545 Z M4.212,6.263595 L1.77606,4.914 L4.212,3.557385 L6.64794,4.912245 L4.212,6.263595 Z M7.02,8.215155 L4.563,9.580545 L4.563,6.870825 L7.02,5.505435 L7.02,8.215155 Z M10.53,2.106 L9.126,2.106 L9.126,0.702 L8.424,0.702 L8.424,2.106 L7.02,2.106 L7.02,2.808 L8.424,2.808 L8.424,4.212 L9.126,4.212 L9.126,2.808 L10.53,2.808 L10.53,2.106 Z" id="Fill"></path>
                    </g>
                </g>
            </g>
        </g>
    </symbol>
    <symbol viewBox="0 0 32 32" id="replicationcontroller">
        <defs>
            <circle id="path-rc" cx="15.9705" cy="15.9705" r="5.4405"></circle>
            <mask id="mask-2" maskContentUnits="userSpaceOnUse" maskUnits="objectBoundingBox" x="0" y="0" width="10.881" height="10.881" fill="white">
                <use xlink:href="#path-rc"></use>
            </mask>
        </defs>
        <g id="Topology" stroke="none" stroke-width="1" fill="none" fill-rule="evenodd">
            <g id="Artboard" transform="translate(-1371.000000, -1236.000000)">
                <g id="ReplicationController" transform="translate(1371.000000, 1236.000000)">
                    <circle id="Oval-Copy-32" stroke="#008BAD" stroke-width="1.404" fill="#FFFFFF" cx="15.795" cy="15.795" r="15.093"></circle>
                    <circle id="Oval-Copy-31" fill="#FAFAFA" cx="15.795" cy="15.795" r="10.53"></circle>
                    <use id="Oval" stroke="#000000" mask="url(#mask-2)" stroke-width="1.404" stroke-dasharray="2.106000037193299,2.807999925613403" xlink:href="#path-rc"></use>
                    <path d="M18.4688193,14.338525 L16.0995584,13.022269 C16.0181082,12.9752437 15.9177574,12.9752437 15.8363072,13.022269 L13.4670464,14.338525 C13.3853723,14.387425 13.3361494,14.4763276 13.3380533,14.5715023 L13.3380533,17.2026981 C13.338749,17.2982235 13.3911389,17.3858758 13.4749439,17.4317267 L15.8442048,18.7479827 C15.8826664,18.7702661 15.9261268,18.7824894 15.9705653,18.7835216 C16.0158152,18.7823538 16.0600953,18.7701541 16.0995584,18.7479827 L18.4688193,17.4317267 C18.5515211,17.3857512 18.6028837,17.2986363 18.6030871,17.2040144 L18.6030871,14.5715023 C18.6038977,14.4752392 18.5525188,14.3860818 18.4688193,14.338525 Z M15.7073141,18.0714271 L13.8645557,17.0473799 L13.8645557,15.0150806 L15.7073141,16.0391278 L15.7073141,18.0714271 Z M15.9705653,15.5837032 L14.143602,14.5715023 L15.9705653,13.5540364 L17.7975287,14.5701861 L15.9705653,15.5837032 Z M18.076575,17.0473799 L16.2338165,18.0714271 L16.2338165,16.0391278 L18.076575,15.0150806 L18.076575,17.0473799 Z" id="Fill" fill="#000000"></path>
                </g>
            </g>
        </g>
    </symbol>
    <symbol viewBox="0 0 32 32" id="route">
        <g id="Topology" stroke="none" stroke-width="1" fill="none" fill-rule="evenodd">
            <g id="Artboard" transform="translate(-1434.000000, -1236.000000)">
                <g id="Route" transform="translate(1434.000000, 1236.000000)">
                    <g id="Group-21">
                        <circle id="Oval-Copy-22" stroke="#FA4D56" stroke-width="1.404" fill="#FFFFFF" cx="15.795" cy="15.795" r="15.093"></circle>
                        <circle id="Oval-Copy-21" fill="#FAFAFA" cx="15.795" cy="15.795" r="10.53"></circle>
                        <g id="Group-15" transform="translate(10.881000, 11.232000)" fill="#000000">
                            <g id="Organization-/-Data-/-network--3-/-24" transform="translate(0.000000, 0.702000)">
                                <path d="M6.25418182,7.5465 L2.23363636,7.5465 C1.12339339,7.5465 0.223363636,6.64647024 0.223363636,5.53622727 C0.223363636,4.4259843 1.12339339,3.52595455 2.23363636,3.52595455 L2.90372727,3.52595455 L2.90372727,4.19604545 L2.23363636,4.19604545 C1.49347438,4.19604545 0.893454545,4.79606529 0.893454545,5.53622727 C0.893454545,6.27638925 1.49347438,6.87640909 2.23363636,6.87640909 L6.25418182,6.87640909 L6.25418182,7.5465 Z M7.59436364,4.19604545 L6.92427273,4.19604545 L6.92427273,3.52595455 L7.59436364,3.52595455 C8.33452562,3.52595455 8.93454545,2.92593471 8.93454545,2.18577273 C8.93454545,1.44561075 8.33452562,0.845590909 7.59436364,0.845590909 L3.57381818,0.845590909 L3.57381818,0.1755 L7.59436364,0.1755 C8.70460659,0.1755 9.60463633,1.07552977 9.60463633,2.18577273 C9.60463633,3.29601569 8.70460659,4.19604545 7.59436364,4.19604545 Z" id="Fill"></path>
                            </g>
                            <path d="M1.36145455,3.78319598e-14 C2.11336513,3.78319598e-14 2.72290909,0.609543962 2.72290909,1.36145455 C2.72290909,1.72253474 2.57947054,2.06882603 2.32414829,2.32414829 C2.06882603,2.57947054 1.72253474,2.72290909 1.36145455,2.72290909 C0.609543962,2.72290909 4.01514377e-14,2.11336513 4.01514377e-14,1.36145455 C4.01514377e-14,0.609543962 0.609543962,3.78319598e-14 1.36145455,3.78319598e-14 Z M1.36145455,0.680727273 C0.985499254,0.680727273 0.680727273,0.985499254 0.680727273,1.36145455 C0.680727273,1.73740984 0.985499254,2.04218182 1.36145455,2.04218182 C1.73740984,2.04218182 2.04218182,1.73740984 2.04218182,1.36145455 C2.04218182,0.985499254 1.73740984,0.680727273 1.36145455,0.680727273 Z" id="Combined-Shape"></path>
                            <path d="M4.87145455,3.159 C5.62336513,3.159 6.23290909,3.76854396 6.23290909,4.52045455 C6.23290909,4.88153474 6.08947054,5.22782603 5.83414829,5.48314829 C5.57882603,5.73847054 5.23253474,5.88190909 4.87145455,5.88190909 C4.11954396,5.88190909 3.51,5.27236513 3.51,4.52045455 C3.51,3.76854396 4.11954396,3.159 4.87145455,3.159 Z M4.87145455,3.83972727 C4.49549925,3.83972727 4.19072727,4.14449925 4.19072727,4.52045455 C4.19072727,4.89640984 4.49549925,5.20118182 4.87145455,5.20118182 C5.24740984,5.20118182 5.55218182,4.89640984 5.55218182,4.52045455 C5.55218182,4.14449925 5.24740984,3.83972727 4.87145455,3.83972727 Z" id="Combined-Shape-Copy"></path>
                            <path d="M8.38145455,6.318 C9.13336513,6.318 9.74290909,6.92754396 9.74290909,7.67945455 C9.74290909,8.04053474 9.59947054,8.38682603 9.34414829,8.64214829 C9.08882603,8.89747054 8.74253474,9.04090909 8.38145455,9.04090909 C7.62954396,9.04090909 7.02,8.43136513 7.02,7.67945455 C7.02,6.92754396 7.62954396,6.318 8.38145455,6.318 Z M8.38145455,6.99872727 C8.00549925,6.99872727 7.70072727,7.30349925 7.70072727,7.67945455 C7.70072727,8.05540984 8.00549925,8.36018182 8.38145455,8.36018182 C8.75740984,8.36018182 9.06218182,8.05540984 9.06218182,7.67945455 C9.06218182,7.30349925 8.75740984,6.99872727 8.38145455,6.99872727 Z" id="Combined-Shape-Copy-2"></path>
                        </g>
                    </g>
                </g>
            </g>
        </g>
    </symbol>
    <symbol viewBox="0 0 32 32" id="placements">
        <g id="Topology" stroke="none" stroke-width="1" fill="none" fill-rule="evenodd">
            <g id="Artboard" transform="translate(-1434.000000, -1091.000000)">
                <g id="PlacementRule" transform="translate(1434.000000, 1091.000000)">
                    <g id="Group-19">
                        <circle id="Oval" stroke="#9F1853" stroke-width="1.404" fill="#FFFFFF" cx="15.795" cy="15.795" r="15.093"></circle>
                        <circle id="Oval" fill="#FAFAFA" cx="15.795" cy="15.795" r="10.53"></circle>
                        <g id="Group-7" transform="translate(11.934000, 11.934000)">
                            <g id="icon/file/template/32-copy" transform="translate(0.965250, 0.965250)" fill="#000000" fill-rule="nonzero">
                                <polygon id="Polygon" points="0.6435 0 1.20078735 0.32175 1.20078735 0.96525 0.6435 1.287 0.0862126525 0.96525 0.0862126525 0.32175"></polygon>
                            </g>
                            <g id="icon/file/template/32-copy-4" transform="translate(5.469750, 0.965250)" fill="#000000" fill-rule="nonzero">
                                <polygon id="Polygon" points="0.6435 0 1.20078735 0.32175 1.20078735 0.96525 0.6435 1.287 0.0862126525 0.96525 0.0862126525 0.32175"></polygon>
                            </g>
                            <g id="icon/file/template/32-copy-7" transform="translate(3.217500, 0.965250)" fill="#000000" fill-rule="nonzero">
                                <polygon id="Polygon" points="0.6435 0 1.20078735 0.32175 1.20078735 0.96525 0.6435 1.287 0.0862126525 0.96525 0.0862126525 0.32175"></polygon>
                            </g>
                            <g id="icon/file/template/32-copy-3" transform="translate(0.965250, 3.217500)" fill="#000000" fill-rule="nonzero">
                                <polygon id="Polygon" points="0.6435 0 1.20078735 0.32175 1.20078735 0.96525 0.6435 1.287 0.0862126525 0.96525 0.0862126525 0.32175"></polygon>
                            </g>
                            <g id="icon/file/template/32-copy-5" transform="translate(5.469750, 3.217500)" fill="#000000" fill-rule="nonzero">
                                <polygon id="Polygon" points="0.6435 0 1.20078735 0.32175 1.20078735 0.96525 0.6435 1.287 0.0862126525 0.96525 0.0862126525 0.32175"></polygon>
                            </g>
                            <g id="icon/file/template/32-copy-8" transform="translate(3.217500, 3.217500)" fill="#000000" fill-rule="nonzero">
                                <polygon id="Polygon" points="0.6435 0 1.20078735 0.32175 1.20078735 0.96525 0.6435 1.287 0.0862126525 0.96525 0.0862126525 0.32175"></polygon>
                            </g>
                            <g id="icon/file/template/32-copy-2" transform="translate(0.965250, 5.469750)" fill="#000000" fill-rule="nonzero">
                                <polygon id="Polygon" points="0.6435 0 1.20078735 0.32175 1.20078735 0.96525 0.6435 1.287 0.0862126525 0.96525 0.0862126525 0.32175"></polygon>
                            </g>
                            <g id="icon/file/template/32-copy-6" transform="translate(5.469750, 5.469750)" fill="#000000" fill-rule="nonzero">
                                <polygon id="Polygon" points="0.6435 0 1.20078735 0.32175 1.20078735 0.96525 0.6435 1.287 0.0862126525 0.96525 0.0862126525 0.32175"></polygon>
                            </g>
                            <g id="icon/file/template/32-copy-9" transform="translate(3.217500, 5.469750)" fill="#000000" fill-rule="nonzero">
                                <polygon id="Polygon" points="0.6435 0 1.20078735 0.32175 1.20078735 0.96525 0.6435 1.287 0.0862126525 0.96525 0.0862126525 0.32175"></polygon>
                            </g>
                            <rect id="Rectangle-Copy" stroke="#000000" stroke-width="0.702" x="0" y="0" width="7.722" height="7.722" rx="0.702"></rect>
                        </g>
                    </g>
                </g>
            </g>
        </g>
    </symbol>
    <symbol viewBox="0 0 32 32" id="secret">
        <g id="Topology" stroke="none" stroke-width="1" fill="none" fill-rule="evenodd">
            <g id="Artboard" transform="translate(-1308.000000, -1163.000000)">
                <g id="Secret" transform="translate(1308.000000, 1163.000000)">
                    <circle id="Oval-Copy-36" stroke="#73C5C5" stroke-width="1.404" fill="#FFFFFF" cx="15.795" cy="15.795" r="15.093"></circle>
                    <circle id="Oval-Copy-35" fill="#FAFAFA" cx="15.99" cy="15.99" r="10.53"></circle>
                    <g id="Tools-/-Technology-/-password-/-24" transform="translate(10.920000, 10.920000)" fill="#000000">
                        <path d="M6.1425,0.584963984 C4.6886104,0.584963984 3.51,1.7636104 3.51,3.2175 C3.50974516,3.47623957 3.54819561,3.73356181 3.624075,3.980925 L0.585,7.02 L0.585,8.775 L2.34,8.775 L5.379075,5.735925 C6.14128596,5.96979366 6.96841916,5.84562884 7.62836835,5.3982731 C8.28831755,4.95091736 8.70996868,4.22857634 8.775,3.43395 C8.83405319,2.80962317 8.6623618,2.18529084 8.292375,1.67895 C7.79480746,0.988110358 6.99385955,0.580553189 6.1425,0.584963984 Z M6.1425,5.265 C5.94428044,5.2642215 5.74722437,5.23466309 5.5575,5.17725 L5.221125,5.074875 L4.9725,5.3235 L4.04235,6.25365 L3.629925,5.85 L3.2175,6.262425 L3.62115,6.666075 L3.156075,7.13115 L2.752425,6.7275 L2.34,7.139925 L2.74365,7.543575 L2.097225,8.19 L1.17,8.19 L1.17,7.262775 L4.0365,4.3875 L4.285125,4.138875 L4.2003,3.861 C3.89662853,2.9060783 4.31398269,1.87005798 5.1948,1.3923 C5.82011245,1.06540919 6.56967934,1.08352329 7.17847173,1.44023758 C7.78726412,1.79695187 8.16948871,2.44199684 8.19,3.1473 C8.21029819,3.56122132 8.0986608,3.97089982 7.871175,4.3173 C7.49496657,4.90807169 6.84288822,5.26555627 6.1425,5.265 Z M6.435,3.51 C6.75808658,3.51 7.02,3.24808658 7.02,2.925 C7.02,2.60191342 6.75808658,2.34 6.435,2.34 C6.11191342,2.34 5.85,2.60191342 5.85,2.925 C5.85,3.24808658 6.11191342,3.51 6.435,3.51 Z" id="Fill"></path>
                    </g>
                </g>
            </g>
        </g>
    </symbol>
    <symbol viewBox="0 0 32 32" id="service">
        <g id="Topology" stroke="none" stroke-width="1" fill="none" fill-rule="evenodd">
            <g id="Artboard" transform="translate(-1371.000000, -1163.000000)">
                <g id="Service" transform="translate(1371.000000, 1163.000000)">
                    <circle id="Oval" stroke="#198038" stroke-width="1.404" fill="#FFFFFF" cx="15.795" cy="15.795" r="15.093"></circle>
                    <circle id="Oval" fill="#FAFAFA" cx="15.795" cy="15.795" r="10.53"></circle>
                    <g id="Group-8" transform="translate(11.583000, 11.583000)" fill="#000000" fill-rule="nonzero">
                        <ellipse id="Oval" cx="1.87145104" cy="1.45241379" rx="1" ry="1"></ellipse>
                        <path d="M1.29242207,5.80965517 L1.29242207,5.97736548 L2.00581518,6.39062069 L2.00581518,7.55255172 L1.00290759,8.13351724 L8.66167937e-14,7.55255172 L8.66167937e-14,6.39062069 L0.713393105,5.97736548 L0.713393105,5.80965517 L0.713393105,4.64772414 C0.713393105,4.32686574 0.972633203,4.06675862 1.29242207,4.06675862 L3.60853793,4.06675862 L3.60853793,2.90482759 L1.00290759,2.90482759 C0.68311872,2.90482759 0.423878622,2.64472046 0.423878622,2.32386207 L0.423878622,0.580965517 C0.423878622,0.260107122 0.68311872,2.87769808e-15 1.00290759,2.87769808e-15 L6.79319724,2.87769808e-15 C7.11298611,2.87769808e-15 7.37222621,0.260107122 7.37222621,0.580965517 L7.37222621,2.32386207 C7.37222621,2.64472046 7.11298611,2.90482759 6.79319724,2.90482759 L4.1875669,2.90482759 L4.1875669,4.06675862 L6.50368276,4.06675862 C6.82347163,4.06675862 7.08271173,4.32686574 7.08271173,4.64772414 L7.08271173,5.80965517 L7.08271173,5.97736548 L7.79610483,6.39062069 L7.79610483,7.55255172 L6.79319724,8.13351724 L5.79028966,7.55255172 L5.79028966,6.39062069 L6.50368276,5.97736548 L6.50368276,5.80965517 L6.50368276,4.64772414 L4.1875669,4.64772414 L4.1875669,5.80965517 L4.1875669,5.97736548 L4.90096,6.39062069 L4.90096,7.55255172 L3.89805241,8.13351724 L2.89514483,7.55255172 L2.89514483,6.39062069 L3.60853793,5.97736548 L3.60853793,5.80965517 L3.60853793,4.64772414 L1.29242207,4.64772414 L1.29242207,5.80965517 Z M0.909146652,8.13351724 L1.09666852,8.13351724 C1.06571549,8.13601626 1.03444457,8.13728867 1.00290759,8.13728867 C0.971370607,8.13728867 0.940099684,8.13601626 0.909146652,8.13351724 Z M2.73999448,8.13351724 L5.05611035,8.13351724 L2.73999448,8.13351724 Z M6.6994363,8.13351724 L6.88695819,8.13351724 C6.85600515,8.13601626 6.82473423,8.13728867 6.79319724,8.13728867 C6.76166026,8.13728867 6.73038933,8.13601626 6.6994363,8.13351724 Z M1.00290759,2.32386207 L6.79319724,2.32386207 L6.79319724,0.580965517 L1.00290759,0.580965517 L1.00290759,2.32386207 Z M1.00290759,6.48049637 L0.579028964,6.72604128 L0.579028964,7.21713114 L1.00290759,7.46267604 L1.42678621,7.21713114 L1.42678621,6.72604128 L1.00290759,6.48049637 Z M3.4741738,6.72604128 L3.4741738,7.21713114 L3.89805241,7.46267604 L4.32193103,7.21713114 L4.32193103,6.72604128 L3.89805241,6.48049637 L3.4741738,6.72604128 Z M6.36931863,6.72604128 L6.36931863,7.21713114 L6.79319724,7.46267604 L7.21707586,7.21713114 L7.21707586,6.72604128 L6.79319724,6.48049637 L6.36931863,6.72604128 Z" id="Combined-Shape"></path>
                    </g>
                </g>
            </g>
        </g>
    </symbol>
    <symbol viewBox="0 0 32 32" id="statefulset">
        <g id="Topology" stroke="none" stroke-width="1" fill="none" fill-rule="evenodd">
            <g id="Artboard" transform="translate(-1434.000000, -1163.000000)">
                <g id="StatefulSet" transform="translate(1434.000000, 1163.000000)">
                    <circle id="Oval" stroke="#8A3800" stroke-width="1.404" fill="#FFFFFF" cx="15.795" cy="15.795" r="15.093"></circle>
                    <circle id="Oval" fill="#FAFAFA" cx="15.795" cy="15.795" r="10.53"></circle>
                    <g id="Statefulset" transform="translate(12.285000, 11.232000)" fill="#000000" fill-rule="nonzero">
                        <g id="Group" transform="translate(1.755000, 0.000000)">
                            <polygon id="Path" points="0 6.318 5.616 6.318 5.616 7.02 0 7.02"></polygon>
                            <polygon id="Path-Copy-2" points="0 4.563 2.457 4.563 2.457 5.265 0 5.265"></polygon>
                            <polygon id="Path-Copy" points="0 8.073 5.616 8.073 5.616 8.775 0 8.775"></polygon>
                            <polygon id="Path" points="3.51 0 1.404 2.106 1.89891 2.60091 3.159 1.34433 3.159 5.616 3.861 5.616 3.861 1.34433 5.12109 2.60091 5.616 2.106"></polygon>
                        </g>
                        <polygon id="Polygon-Copy" points="0.702 5.967 1.30994983 6.318 1.30994983 7.02 0.702 7.371 0.0940501664 7.02 0.0940501664 6.318"></polygon>
                        <polygon id="Polygon-Copy-2" points="0.702 7.722 1.30994983 8.073 1.30994983 8.775 0.702 9.126 0.0940501664 8.775 0.0940501664 8.073"></polygon>
                        <polygon id="Polygon-Copy-3" points="0.702 4.212 1.30994983 4.563 1.30994983 5.265 0.702 5.616 0.0940501664 5.265 0.0940501664 4.563"></polygon>
                    </g>
                </g>
            </g>
        </g>
    </symbol>
    <symbol viewBox="0 0 32 32" id="storageclass">
        <defs>
            <path d="M4.48669565,0.111681818 C2.03247313,0.111681818 0.112167391,1.24190182 0.112167391,2.68036364 L0.112167391,7.14763636 C0.112167391,8.58609818 2.03247313,9.71631818 4.48669565,9.71631818 C6.94091817,9.71631818 8.86122391,8.58609818 8.86122391,7.14763636 L8.86122391,2.68036364 C8.86122391,1.24190182 6.94091817,0.111681818 4.48669565,0.111681818 Z M8.18821957,4.914 C8.18821957,5.94147273 6.49224861,6.81259091 4.48669565,6.81259091 C2.4811427,6.81259091 0.785171739,5.94147273 0.785171739,4.914 L0.785171739,4.06521818 C1.5523967,4.77998182 2.90737878,5.24904545 4.48669565,5.24904545 C6.06601252,5.24904545 7.42099461,4.77998182 8.18821957,4.06521818 L8.18821957,4.914 Z M4.48669565,0.781772727 C6.49224861,0.781772727 8.18821957,1.65289091 8.18821957,2.68036364 C8.18821957,3.70783636 6.49224861,4.57895455 4.48669565,4.57895455 C2.4811427,4.57895455 0.785171739,3.70783636 0.785171739,2.68036364 C0.785171739,1.65289091 2.4811427,0.781772727 4.48669565,0.781772727 Z M4.48669565,9.04622727 C2.4811427,9.04622727 0.785171739,8.17510909 0.785171739,7.14763636 L0.785171739,6.29885455 C1.5523967,7.01361818 2.90737878,7.48268182 4.48669565,7.48268182 C6.06601252,7.48268182 7.42099461,7.01361818 8.18821957,6.29885455 L8.18821957,7.14763636 C8.18821957,8.17510909 6.49224861,9.04622727 4.48669565,9.04622727 Z" id="path-sc"></path>
        </defs>
        <g id="Topology" stroke="none" stroke-width="1" fill="none" fill-rule="evenodd">
            <g id="Artboard" transform="translate(-1496.000000, -1163.000000)">
                <g id="StorageClass" transform="translate(1496.000000, 1163.000000)">
                    <circle id="Oval-Copy-10" stroke="#FFAFD2" stroke-width="1.404" fill="#FFFFFF" cx="15.795" cy="15.795" r="15.093"></circle>
                    <circle id="Oval-Copy-9" fill="#FAFAFA" cx="15.795" cy="15.795" r="10.53"></circle>
                    <g id="01_Hardware/Storage-stack/Storage-stack_outline" transform="translate(11.232000, 10.881000)">
                        <mask id="mask-2" fill="white">
                            <use xlink:href="#path-sc"></use>
                        </mask>
                        <use id="01_Hardware/Storage-stack/Storage-stack_black_lines" fill="#000000" fill-rule="evenodd" xlink:href="#path-sc"></use>
                    </g>
                </g>
            </g>
        </g>
    </symbol>
    <symbol viewBox="0 0 32 32" id="subscription">
        <g id="Topology" stroke="none" stroke-width="1" fill="none" fill-rule="evenodd">
            <g id="Artboard" transform="translate(-1245.000000, -1236.000000)">
                <g id="Subscription" transform="translate(1245.000000, 1236.000000)">
                    <g id="Group-18">
                        <circle id="Oval-Copy-2" stroke="#35CAED" stroke-width="1.404" fill="#FFFFFF" cx="15.795" cy="15.795" r="15.093"></circle>
                        <circle id="Oval-Copy" fill="#FAFAFA" cx="15.795" cy="15.795" r="10.53"></circle>
                        <g id="Organization-/-Data-/-data--1-/-24" transform="translate(10.881000, 10.881000)" fill="#000000">
                            <path d="M4.606875,1.84275 L8.5995,1.84275 L8.5995,2.457 L4.606875,2.457 L4.606875,1.84275 Z M4.606875,7.371 L8.5995,7.371 L8.5995,7.98525 L4.606875,7.98525 L4.606875,7.371 Z M1.2285,4.606875 L5.221125,4.606875 L5.221125,5.221125 L1.2285,5.221125 L1.2285,4.606875 Z M2.149875,3.378375 C1.47139318,3.378375 0.921375,2.82835682 0.921375,2.149875 C0.921375,1.47139318 1.47139318,0.921375 2.149875,0.921375 C2.82835682,0.921375 3.378375,1.47139318 3.378375,2.149875 C3.378375,2.47569346 3.24894412,2.78816724 3.01855568,3.01855568 C2.78816724,3.24894412 2.47569346,3.378375 2.149875,3.378375 Z M2.149875,1.535625 C1.81063409,1.535625 1.535625,1.81063409 1.535625,2.149875 C1.535625,2.48911591 1.81063409,2.764125 2.149875,2.764125 C2.48911591,2.764125 2.764125,2.48911591 2.764125,2.149875 C2.764125,1.81063409 2.48911591,1.535625 2.149875,1.535625 L2.149875,1.535625 Z M2.149875,8.906625 C1.47139318,8.906625 0.921375,8.35660682 0.921375,7.678125 C0.921375,6.99964318 1.47139318,6.449625 2.149875,6.449625 C2.82835682,6.449625 3.378375,6.99964318 3.378375,7.678125 C3.378375,8.35660682 2.82835682,8.906625 2.149875,8.906625 Z M2.149875,7.063875 C1.81063409,7.063875 1.535625,7.33888409 1.535625,7.678125 C1.535625,8.01736591 1.81063409,8.292375 2.149875,8.292375 C2.48911591,8.292375 2.764125,8.01736591 2.764125,7.678125 C2.764125,7.33888409 2.48911591,7.063875 2.149875,7.063875 Z M7.678125,6.1425 C6.99964318,6.1425 6.449625,5.59248182 6.449625,4.914 C6.449625,4.23551818 6.99964318,3.6855 7.678125,3.6855 C8.35660682,3.6855 8.906625,4.23551818 8.906625,4.914 C8.906625,5.23981846 8.77719412,5.55229224 8.54680568,5.78268068 C8.31641724,6.01306912 8.00394346,6.1425 7.678125,6.1425 Z M7.678125,4.29975 C7.33888409,4.29975 7.063875,4.57475909 7.063875,4.914 C7.063875,5.25324091 7.33888409,5.52825 7.678125,5.52825 C8.01736591,5.52825 8.292375,5.25324091 8.292375,4.914 C8.292375,4.57475909 8.01736591,4.29975 7.678125,4.29975 Z" id="Fill"></path>
                        </g>
                    </g>
                </g>
            </g>
        </g>
    </symbol>
    <symbol viewBox="0 0 32 32" id="subscriptionblocked">
      <g id="Topology" stroke="none" stroke-width="1" fill="none" fill-rule="evenodd">
         <g id="Artboard" transform="translate(-1167.000000, -635.000000)">
            <g id="SubscriptionBlocked" transform="translate(1167.000000, 635.000000)">
                <g id="Group-18">
                    <circle id="Oval-Copy-2" stroke="#35CAED" stroke-width="1.402752" fill="#FFFFFF" cx="15.9582742" cy="15.9582742" r="15.2568982"></circle>
                    <circle id="Oval-Copy" fill="#FAFAFA" cx="15.9582742" cy="15.9582742" r="10.6388494"></circle>
                    <g id="Organization-/-Data-/-data--1-/-24" transform="translate(11.712579, 11.712579)" fill="#000000">
                        <path d="M3.65468584,1.14269753 L7.96929258,1.14269753 L7.96929258,1.76329708 L3.65468584,1.76329708 L3.65468584,1.14269753 Z M3.93539551,6.72809348 L7.96929258,6.72809348 L7.96929258,7.34869303 L3.93539551,7.34869303 L3.93539551,6.72809348 Z M0.522097978,3.93539551 L4.83670472,3.93539551 L4.83670472,4.55599506 L0.522097978,4.55599506 L0.522097978,3.93539551 Z M1.4529973,2.6941964 C0.767501968,2.6941964 0.211798202,2.13849264 0.211798202,1.4529973 C0.211798202,0.767501968 0.767501968,0.211798202 1.4529973,0.211798202 C2.13849264,0.211798202 2.6941964,0.767501968 2.6941964,1.4529973 C2.6941964,1.78218377 2.56342759,2.09788762 2.3306576,2.3306576 C2.09788762,2.56342759 1.78218377,2.6941964 1.4529973,2.6941964 Z M1.4529973,0.832397753 C1.11024964,0.832397753 0.832397753,1.11024964 0.832397753,1.4529973 C0.832397753,1.79574497 1.11024964,2.07359685 1.4529973,2.07359685 C1.79574497,2.07359685 2.07359685,1.79574497 2.07359685,1.4529973 C2.07359685,1.11024964 1.79574497,0.832397753 1.4529973,0.832397753 L1.4529973,0.832397753 Z M1.4529973,8.27959236 C0.767501968,8.27959236 0.211798202,7.72388859 0.211798202,7.03839326 C0.211798202,6.35289792 0.767501968,5.79719416 1.4529973,5.79719416 C2.13849264,5.79719416 2.6941964,6.35289792 2.6941964,7.03839326 C2.6941964,7.72388859 2.13849264,8.27959236 1.4529973,8.27959236 Z M1.4529973,6.41779371 C1.11024964,6.41779371 0.832397753,6.69564559 0.832397753,7.03839326 C0.832397753,7.38114093 1.11024964,7.65899281 1.4529973,7.65899281 C1.79574497,7.65899281 2.07359685,7.38114093 2.07359685,7.03839326 C2.07359685,6.69564559 1.79574497,6.41779371 1.4529973,6.41779371 Z M7.03839326,5.48689438 C6.35289792,5.48689438 5.79719416,4.93119062 5.79719416,4.24569528 C5.79719416,3.56019995 6.35289792,3.00449618 7.03839326,3.00449618 C7.72388859,3.00449618 8.27959236,3.56019995 8.27959236,4.24569528 C8.27959236,4.57488175 8.14882354,4.8905856 7.91605356,5.12335558 C7.68328358,5.35612557 7.36757973,5.48689438 7.03839326,5.48689438 Z M7.03839326,3.62509573 C6.69564559,3.62509573 6.41779371,3.90294761 6.41779371,4.24569528 C6.41779371,4.58844295 6.69564559,4.86629483 7.03839326,4.86629483 C7.38114093,4.86629483 7.65899281,4.58844295 7.65899281,4.24569528 C7.65899281,3.90294761 7.38114093,3.62509573 7.03839326,3.62509573 Z" id="Fill"></path>
                    </g>
                </g>
                <g id="Group-4" transform="translate(16.677351, 15.096139) rotate(-45.000000) translate(-16.677351, -15.096139) translate(15.677351, 8.096139)">
                    <rect id="Rectangle" fill="#000000" x="0" y="0" width="1" height="13.3033708"></rect>
                    <rect id="Rectangle-Copy" fill="#FAFAFA" x="0.719101124" y="0" width="1.07865169" height="13.3033708"></rect>
                </g>
            </g>
        </g>
      </g>
    </symbol>
    <symbol viewBox="0 0 406 149" id="legend">
        <defs>
            <circle id="path-1" cx="47.6343391" cy="46.9487385" r="46.9487385"></circle>
            <filter x="-6.9%" y="-5.9%" width="113.8%" height="113.8%" filterUnits="objectBoundingBox" id="filter-2">
                <feOffset dx="0" dy="1" in="SourceAlpha" result="shadowOffsetOuter1"></feOffset>
                <feGaussianBlur stdDeviation="2" in="shadowOffsetOuter1" result="shadowBlurOuter1"></feGaussianBlur>
                <feColorMatrix values="0 0 0 0 0   0 0 0 0 0   0 0 0 0 0  0 0 0 0.2 0" type="matrix" in="shadowBlurOuter1"></feColorMatrix>
            </filter>
            <rect id="path-3" x="0" y="100.157309" width="94.2253729" height="39.8020972" rx="3.1299159"></rect>
            <filter x="-8.5%" y="-17.6%" width="117.0%" height="140.2%" filterUnits="objectBoundingBox" id="filter-4">
                <feOffset dx="0" dy="1" in="SourceAlpha" result="shadowOffsetOuter1"></feOffset>
                <feGaussianBlur stdDeviation="2.5" in="shadowOffsetOuter1" result="shadowBlurOuter1"></feGaussianBlur>
                <feComposite in="shadowBlurOuter1" in2="SourceAlpha" operator="out" result="shadowBlurOuter1"></feComposite>
                <feColorMatrix values="0 0 0 0 0   0 0 0 0 0   0 0 0 0 0  0 0 0 0.2 0" type="matrix" in="shadowBlurOuter1"></feColorMatrix>
            </filter>
            <circle id="path-5" cx="12.5196636" cy="12.5196636" r="12.5196636"></circle>
            <filter x="-31.9%" y="-28.0%" width="163.9%" height="163.9%" filterUnits="objectBoundingBox" id="filter-6">
                <feOffset dx="0" dy="1" in="SourceAlpha" result="shadowOffsetOuter1"></feOffset>
                <feGaussianBlur stdDeviation="2.5" in="shadowOffsetOuter1" result="shadowBlurOuter1"></feGaussianBlur>
                <feColorMatrix values="0 0 0 0 0   0 0 0 0 0   0 0 0 0 0  0 0 0 0.3 0" type="matrix" in="shadowBlurOuter1"></feColorMatrix>
            </filter>
        </defs>
        <g id="Topology" stroke="none" stroke-width="1" fill="none" fill-rule="evenodd">
            <g id="App-Topology--How-to-read-this-01.00" transform="translate(-924.000000, -1613.000000)">
                <g id="Group-5" transform="translate(924.000000, 1616.000000)">
                    <g id="Group-13-Copy-2" transform="translate(149.000000, 0.000000)">
                        <g id="Oval-Copy-8">
                            <use fill="black" fill-opacity="1" filter="url(#filter-2)" xlink:href="#path-1"></use>
                            <use fill="#FFFFFF" fill-rule="evenodd" xlink:href="#path-1"></use>
                        </g>
                        <circle id="Oval-Copy-9" stroke="#009D9A" stroke-width="4.1732212" fill="#FFFFFF" cx="47.6343391" cy="46.9487385" r="40.6889067"></circle>
                        <circle id="Oval" fill="#FAFAFA" cx="47.6343391" cy="46.9487385" r="31.299159"></circle>
                        <g id="Organization-/-Data-/-data-vis--1-/-24" transform="translate(33.028065, 33.385770)" fill="#000000">
                            <path d="M23.7351956,20.083627 C23.0851254,20.0870047 22.4480264,20.265834 21.8911534,20.6012369 L18.4102957,17.1194662 C19.4243925,15.597454 19.4243925,13.6150944 18.4102957,12.0930821 L20.735432,9.76794587 C21.9499059,10.3529292 23.4092284,9.97658951 24.1893331,8.87723099 C24.9694378,7.77787248 24.842799,6.27613474 23.8896063,5.32294208 C22.9364137,4.36974942 21.4346759,4.24311057 20.3353174,5.02321528 C19.2359589,5.80331998 18.8596191,7.26264245 19.4446025,8.47711639 L17.1194662,10.8022527 C15.597454,9.78815586 13.6150944,9.78815586 12.0930821,10.8022527 L8.61131153,7.32048205 C8.94655622,6.76387497 9.12537951,6.1271127 9.12892137,5.47735282 C9.12892137,3.4606472 7.49405845,1.82578427 5.47735282,1.82578427 C3.4606472,1.82578427 1.82578427,3.4606472 1.82578427,5.47735282 C1.82578427,7.49405845 3.4606472,9.12892137 5.47735282,9.12892137 C6.12742296,9.12554365 6.76452195,8.94671438 7.32139494,8.61131153 L10.8022527,12.0930821 C9.78815586,13.6150944 9.78815586,15.597454 10.8022527,17.1194662 L7.32048205,20.6012369 C6.76385689,20.266034 6.12710636,20.087214 5.47735282,20.083627 C3.4606472,20.083627 1.82578427,21.7184899 1.82578427,23.7351956 C1.82578427,25.7519012 3.4606472,27.3867641 5.47735282,27.3867641 C7.49405845,27.3867641 9.12892137,25.7519012 9.12892137,23.7351956 C9.12554365,23.0851254 8.94671438,22.4480264 8.61131153,21.8911534 L12.0930821,18.4102957 C12.5785764,18.7338856 13.1219377,18.960777 13.6933821,19.0785328 L13.6933821,22.0773834 C12.4358305,22.5219951 11.6814846,23.8079222 11.9070387,25.1225479 C12.1325928,26.4371736 13.2724394,27.3981087 14.6062742,27.3981087 C15.940109,27.3981087 17.0799556,26.4371736 17.3055097,25.1225479 C17.5310638,23.8079222 16.7767179,22.5219951 15.5191663,22.0773834 L15.5191663,19.0785328 C16.0906107,18.960777 16.633972,18.7338856 17.1194662,18.4102957 L20.6012369,21.8920663 C20.2659922,22.4486734 20.0871689,23.0854357 20.083627,23.7351956 C20.083627,25.7519012 21.7184899,27.3867641 23.7351956,27.3867641 C25.7519012,27.3867641 27.3867641,25.7519012 27.3867641,23.7351956 C27.3867641,21.7184899 25.7519012,20.083627 23.7351956,20.083627 L23.7351956,20.083627 Z M14.6062742,11.8675978 C16.1188034,11.8675978 17.3449506,13.093745 17.3449506,14.6062742 C17.3449506,16.1188034 16.1188034,17.3449506 14.6062742,17.3449506 C13.093745,17.3449506 11.8675978,16.1188034 11.8675978,14.6062742 C11.8691074,13.0943707 13.0943707,11.8691074 14.6062742,11.8675978 L14.6062742,11.8675978 Z M3.65156855,5.47735282 C3.65156855,4.46900001 4.46900001,3.65156855 5.47735282,3.65156855 C6.48570563,3.65156855 7.3031371,4.46900001 7.3031371,5.47735282 C7.3031371,6.48570563 6.48570563,7.3031371 5.47735282,7.3031371 C4.46941718,7.30213067 3.65257498,6.48528846 3.65156855,5.47735282 L3.65156855,5.47735282 Z M5.47735282,25.5609798 C4.46900001,25.5609798 3.65156855,24.7435484 3.65156855,23.7351956 C3.65156855,22.7268428 4.46900001,21.9094113 5.47735282,21.9094113 C6.48570563,21.9094113 7.3031371,22.7268428 7.3031371,23.7351956 C7.30213067,24.7431312 6.48528846,25.5599734 5.47735282,25.5609798 L5.47735282,25.5609798 Z M23.7351956,25.5609798 C22.7268428,25.5609798 21.9094113,24.7435484 21.9094113,23.7351956 C21.9094113,22.7268428 22.7268428,21.9094113 23.7351956,21.9094113 C24.7435484,21.9094113 25.5609798,22.7268428 25.5609798,23.7351956 C25.5594716,24.742923 24.742923,25.5594716 23.7351956,25.5609798 L23.7351956,25.5609798 Z" id="Fill"></path>
                        </g>
                        <g id="Rectangle-Copy-2" fill-rule="nonzero">
                            <use fill="black" fill-opacity="1" filter="url(#filter-4)" xlink:href="#path-3"></use>
                            <use fill-opacity="0.9" fill="#FFFFFF" xlink:href="#path-3"></use>
                        </g>
                        <text id="Cluster-Possiblerept" font-family="RedHatText-Medium, Red Hat Text" font-size="11.3720278" font-weight="400" fill="#152935">
                            <tspan x="9.97101779" y="117.142818">Cluster</tspan>
                            <tspan x="48.8178646" y="117.142818" font-family="RedHatText-Regular, Red Hat Text" font-weight="normal"></tspan>
                            <tspan x="9.97101779" y="132.142818" font-family="RedHatText-Regular, Red Hat Text" font-weight="normal">Possiblereptile</tspan>
                        </text>
                        <g id="Group-8-Copy" transform="translate(0.685601, 66.771539)">
                            <g id="Oval">
                                <use fill="black" fill-opacity="1" filter="url(#filter-6)" xlink:href="#path-5"></use>
                                <use fill="#FFFFFF" fill-rule="evenodd" xlink:href="#path-5"></use>
                            </g>
                            <g id="Icons-/-14px-/-check-circle" transform="translate(5.216526, 5.216526)">
                                <path d="M14.6062742,7.3031371 C14.6062742,8.61848721 14.2774366,9.83567657 13.6197617,10.9547056 C12.9620869,12.0737347 12.0737347,12.9620869 10.9547056,13.6197617 C9.83567657,14.2774366 8.61848721,14.6062742 7.3031371,14.6062742 C5.98778699,14.6062742 4.77059762,14.2774366 3.65156855,13.6197617 C2.53253948,12.9620869 1.6441873,12.0737347 0.986512471,10.9547056 C0.32883764,9.83567657 0,8.61848721 0,7.3031371 C0,5.98778699 0.32883764,4.77059762 0.986512471,3.65156855 C1.6441873,2.53253948 2.53253948,1.6441873 3.65156855,0.986512471 C4.77059762,0.32883764 5.98778699,0 7.3031371,0 C8.61848721,0 9.83567657,0.32883764 10.9547056,0.986512471 C12.0737347,1.6441873 12.9620869,2.53253948 13.6197617,3.65156855 C14.2774366,4.77059762 14.6062742,5.98778699 14.6062742,7.3031371 Z" id="check-circle" stroke="#108926" stroke-width="1.0433053"></path>
                                <path d="M6.44914123,11.1608426 L11.8675978,5.74238602 C11.9657581,5.66385752 12.0148385,5.55588133 12.0148385,5.41845656 C12.0148385,5.28103178 11.9657581,5.17305559 11.8675978,5.09452709 L11.2197388,4.41722002 C11.1215786,4.31905972 11.0086937,4.26997935 10.8810853,4.26997935 C10.7534769,4.26997935 10.6405921,4.31905972 10.5424318,4.41722002 L6.12521176,8.83444004 L4.06384242,6.77307069 C3.96568212,6.6749104 3.85279731,6.62583003 3.72518888,6.62583003 C3.59758045,6.62583003 3.48469564,6.6749104 3.38653535,6.77307069 L2.73867641,7.45037776 C2.64051612,7.52890627 2.59143574,7.63688246 2.59143574,7.77430723 C2.59143574,7.911732 2.64051612,8.01970819 2.73867641,8.0982367 L5.80128229,11.1608426 C5.8798108,11.2590029 5.98778699,11.3080832 6.12521176,11.3080832 C6.26263653,11.3080832 6.37061272,11.2590029 6.44914123,11.1608426 Z" id="Path" fill="#3E8635"></path>
                            </g>
                        </g>
                    </g>
                    <g id="Group-Copy-7" transform="translate(93.000000, 126.000000)">
                        <line x1="0.5" y1="2.5" x2="61.7500645" y2="2.02790668" id="Line-Copy" stroke="#979797" stroke-linecap="square"></line>
                        <circle id="Oval-Copy-15" fill="#979797" cx="61.25" cy="2" r="2"></circle>
                    </g>
                    <g id="Group-Copy-8" transform="translate(86.000000, 48.000000)">
                        <line x1="0.5" y1="2.5" x2="88.7492627" y2="1.81980663" id="Line-Copy" stroke="#979797" stroke-linecap="square"></line>
                        <circle id="Oval-Copy-15" fill="#979797" cx="90.25" cy="2" r="2"></circle>
                    </g>
                    <g id="Group-Copy-9" transform="translate(126.000000, 78.000000)">
                        <line x1="-1.34295963e-12" y1="2.5" x2="18.2513419" y2="2.35932526" id="Line-Copy" stroke="#979797" stroke-linecap="square"></line>
                        <circle id="Oval-Copy-15" fill="#979797" cx="18" cy="2" r="2"></circle>
                    </g>
                    <line x1="205.75" y1="113.25" x2="304.125007" y2="113.363466" id="Line-Copy-9" stroke="#979797" stroke-linecap="square"></line>
                    <text id="Resource-icon-Copy-2" font-family="RedHatText-Medium, Red Hat Text" font-size="12" font-weight="400" fill="#5A6872">
                        <tspan x="0" y="54">Resource icon</tspan>
                    </text>
                    <text id="Cluster-deploy-statu-Copy-2" font-family="RedHatText-Medium, Red Hat Text" font-size="12" font-weight="400" fill="#5A6872">
                        <tspan x="0" y="83">Resource deploy status</tspan>
                    </text>
                    <text id="Resource-type-Copy-2" font-family="RedHatText-Medium, Red Hat Text" font-size="12" font-weight="400" fill="#5A6872">
                        <tspan x="313" y="118">Resource type</tspan>
                    </text>
                    <text id="Resource-name-Copy-2" font-family="RedHatText-Medium, Red Hat Text" font-size="12" font-weight="400" fill="#5A6872">
                        <tspan x="0" y="131">Resource name</tspan>
                    </text>
                    <circle id="Oval-Copy-19" fill="#979797" cx="205" cy="113" r="2"></circle>
                </g>
            </g>
        </g>
    </symbol>
</svg>