<?xml version="1.0" encoding="utf-8"?>
<svg xmlns="http://www.w3.org/2000/svg" xmlns:xlink="http://www.w3.org/1999/xlink">
    <symbol viewBox="0 0 41.5 41.3" id="circle">
       <circle cx="20.8" cy="20.7" r="19.1"/>
    </symbol>
    <symbol viewBox="0 0 16 16" id="checkmark">
       <circle cx="8" cy="8" r="8" fill="white" fill-opacity="1"/>
       <path d="M8 0C3.6 0 0 3.6 0 8s3.6 8 8 8 8-3.6 8-8-3.6-8-8-8zM6.7 11.5L3.4 8.1l1.4-1.4 1.9 1.9 4.1-4.1 1.4 1.4-5.5 5.6z"/>
    </symbol>
    <symbol viewBox="0 0 32 32" id="refresh">
       <path d="M 16 4 C 10.886719 4 6.617188 7.160156 4.875 11.625 L 6.71875 12.375 C 8.175781 8.640625 11.710938 6 16 6 C 19.242188 6 22.132813 7.589844 23.9375 10 L 20 10 L 20 12 L 27 12 L 27 5 L 25 5 L 25 8.09375 C 22.808594 5.582031 19.570313 4 16 4 Z M 25.28125 19.625 C 23.824219 23.359375 20.289063 26 16 26 C 12.722656 26 9.84375 24.386719 8.03125 22 L 12 22 L 12 20 L 5 20 L 5 27 L 7 27 L 7 23.90625 C 9.1875 26.386719 12.394531 28 16 28 C 21.113281 28 25.382813 24.839844 27.125 20.375 Z "/>
    </symbol>
    <symbol viewBox="0 0 12 9" id="selection">
        <path d="M4.1 6.1L1.4 3.4 0 4.9 4.1 9l7.6-7.6L10.3 0z"/>
    </symbol>
    <symbol viewBox="0 0 24 24" id="error">
        <path d="M12 0C5.4 0 0 5.4 0 12s5.4 12 12 12 12-5.4 12-12S18.6 0 12 0zm0 22c-1.8 0-3.5-.5-5-1.4l.1-.1 12-15 .2-.4C21 7 22 9.4 22 12c0 5.5-4.5 10-10 10zm0-20c1.8 0 3.5.5 5 1.4v.1l-12 15-.2.4C3 17 2 14.6 2 12 2 6.5 6.5 2 12 2z"/>
    </symbol>
    <symbol viewBox="0 0 12 12" id="filter">
        <path d="M12,2.14285714 L9.81394286,2.14285714 C9.61051572,1.14489327 8.73275066,0.428003074 7.71426429,0.428003074 C6.69577792,0.428003074 5.81801285,1.14489327 5.61458571,2.14285714 L0,2.14285714 L0,3 L5.61462857,3 C5.81805571,3.99796387 6.69582077,4.71485407 7.71430714,4.71485407 C8.73279351,4.71485407 9.61055858,3.99796387 9.81398571,3 L12,3 L12,2.14285714 Z M7.71428571,3.85714286 C7.00420532,3.85714286 6.42857143,3.28150896 6.42857143,2.57142857 C6.42857143,1.86134818 7.00420532,1.28571429 7.71428571,1.28571429 C8.42436611,1.28571429 9,1.86134818 9,2.57142857 C8.99919698,3.28117608 8.42403322,3.85633984 7.71428571,3.85714286 Z M12,9 L6.38537143,9 C6.18194429,8.00203613 5.30417923,7.28514593 4.28569286,7.28514593 C3.26720649,7.28514593 2.38944142,8.00203613 2.18601429,9 L0,9 L0,9.85714286 L2.18605714,9.85714286 C2.38948428,10.8551067 3.26724934,11.5719969 4.28573571,11.5719969 C5.30422208,11.5719969 6.18198715,10.8551067 6.38541429,9.85714286 L12,9.85714286 L12,9 Z M4.28571429,10.7142857 C3.57563389,10.7142857 3,10.1386518 3,9.42857143 C3,8.71849104 3.57563389,8.14285714 4.28571429,8.14285714 C4.99579468,8.14285714 5.57142857,8.71849104 5.57142857,9.42857143 C5.57062556,10.1383189 4.99546179,10.7134827 4.28571429,10.7142857 Z"></path>
    </symbol>
    <symbol viewBox="0 0 16 16" id="add">
      <path d="M8 0C3.6 0 0 3.6 0 8s3.6 8 8 8 8-3.6 8-8-3.6-8-8-8zm4 9H9v3H7V9H4V7h3V4h2v3h3v2z"/>
    </symbol>
    <symbol viewBox="0 0 12 8" id="caret--down">
      <path d="M10.6 0L6 4.7 1.4 0 0 1.4l6 6.1 6-6.1z"/>
    </symbol>
    <symbol viewBox="0 0 12 8" id="caret--up">
      <path d="M1.4 7.5L6 2.8l4.6 4.7L12 6.1 6 0 0 6.1z"/>
    </symbol>
    <symbol viewBox="0 0 16 24" id="trash">
      <path d="M4 0h8v2H4zM0 3v4h1v17h14V7h1V3H0zm13 18H3V8h10v13z"/>
      <path d="M5 10h2v9H5zm4 0h2v9H9z"/>
    </symbol>
    <symbol viewBox="0 0 12 12" id="autoRefresh">
        <path d="M8.33703191,2.28461538 L6.50516317,0.553494162 L7.02821674,3.11581538e-14 L9.9,2.71384343 L7.02748392,5.41285697 L6.50601674,4.85786795 L8.43419451,3.04615385 L4.95,3.04615385 C2.63677657,3.04615385 0.761538462,4.92139195 0.761538462,7.23461538 C0.761538462,9.54783882 2.63677657,11.4230769 4.95,11.4230769 C7.26322343,11.4230769 9.13846154,9.54783882 9.13846154,7.23461538 L9.9,7.23461538 C9.9,9.9684249 7.68380951,12.1846154 4.95,12.1846154 C2.21619049,12.1846154 0,9.9684249 0,7.23461538 C-1.77635684e-15,4.50080587 2.21619049,2.28461538 4.95,2.28461538 L8.33703191,2.28461538 Z" id="restart"></path>
    </symbol>
    <svg width="18px" height="18px" viewBox="0 0 18 18" id="zoomIn">
      <g id="Topology" stroke="none" stroke-width="1" fill="none" fill-rule="evenodd">
          <g id="App-Topology--Resource-Detail-01.00" transform="translate(-107.000000, -852.000000)" fill="#000000">
              <g id="Actions-/-Navigation-/-zoom--in-/-20" transform="translate(106.000000, 851.000000)">
                  <path d="M11.875,8.125 L9.375,8.125 L9.375,5.625 L8.125,5.625 L8.125,8.125 L5.625,8.125 L5.625,9.375 L8.125,9.375 L8.125,11.875 L9.375,11.875 L9.375,9.375 L11.875,9.375 L11.875,8.125 Z M14.03125,13.125 C15.0612674,11.899932 15.6256889,10.3505396 15.625,8.75 C15.625,4.95304234 12.5469577,1.875 8.75,1.875 C4.95304234,1.875 1.875,4.95304234 1.875,8.75 C1.875,12.5469577 4.95304234,15.625 8.75,15.625 C10.3505396,15.6256889 11.899932,15.0612674 13.125,14.03125 L17.86875,18.75 L18.75,17.86875 L14.03125,13.125 Z M8.75,14.375 C5.64339828,14.375 3.125,11.8566017 3.125,8.75 C3.125,5.64339828 5.64339828,3.125 8.75,3.125 C11.8566017,3.125 14.375,5.64339828 14.375,8.75 C14.375,11.8566017 11.8566017,14.375 8.75,14.375 L8.75,14.375 Z" id="Fill"></path>
              </g>
          </g>
      </g>
    </svg>
    <svg width="18px" height="18px" viewBox="0 0 18 18" id="zoomOut">
        <g id="Topology" stroke="none" stroke-width="1" fill="none" fill-rule="evenodd">
            <g id="App-Topology--Resource-Detail-01.00" transform="translate(-151.000000, -852.000000)" fill="#000000">
                <g id="Actions-/-Navigation-/-zoom--out-/-20" transform="translate(150.000000, 851.000000)">
                    <path d="M5.625,8.125 L11.875,8.125 L11.875,9.375 L5.625,9.375 L5.625,8.125 Z M14.03125,13.125 C15.0612674,11.899932 15.6256889,10.3505396 15.625,8.75 C15.625,4.95304234 12.5469577,1.875 8.75,1.875 C4.95304234,1.875 1.875,4.95304234 1.875,8.75 C1.875,12.5469577 4.95304234,15.625 8.75,15.625 C10.3505396,15.6256889 11.899932,15.0612674 13.125,14.03125 L17.86875,18.75 L18.75,17.86875 L14.03125,13.125 Z M8.75,14.375 C5.64339828,14.375 3.125,11.8566017 3.125,8.75 C3.125,5.64339828 5.64339828,3.125 8.75,3.125 C11.8566017,3.125 14.375,5.64339828 14.375,8.75 C14.375,11.8566017 11.8566017,14.375 8.75,14.375 L8.75,14.375 Z" id="Fill"></path>
                </g>
            </g>
        </g>
    </svg>    
    <svg width="14px" height="14px" viewBox="0 0 14 14" id="zoomTarget">
        <title>A54FB67F-6769-4DEF-9638-9EF1860867EA</title>
        <g id="Topology" stroke="none" stroke-width="1" fill="none" fill-rule="evenodd">
            <g id="App-Topology--How-to-read-this-01.00" transform="translate(-197.000000, -854.000000)" fill="#000000">
                <g id="Actions-/-Operations-/-move-/-20" transform="translate(204.000000, 861.000000) rotate(-45.000000) translate(-204.000000, -861.000000) translate(194.000000, 851.000000)">
                    <polygon id="Fill" points="15.625 6.875 14.74375 7.75625 16.35625 9.375 10.625 9.375 10.625 3.64375 12.24375 5.25625 13.125 4.375 10 1.25 6.875 4.375 7.75625 5.25625 9.375 3.64375 9.375 9.375 3.64375 9.375 5.25625 7.75625 4.375 6.875 1.25 10 4.375 13.125 5.25625 12.24375 3.64375 10.625 9.375 10.625 9.375 16.35625 7.75625 14.74375 6.875 15.625 10 18.75 13.125 15.625 12.24375 14.74375 10.625 16.35625 10.625 10.625 16.35625 10.625 14.74375 12.24375 15.625 13.125 18.75 10"></polygon>
                </g>
            </g>
        </g>
    </svg>    
    <symbol viewBox="-4 -4 16 16" id="close">
      <path d="M9.8 8.6L8.4 10 5 6.4 1.4 10 0 8.6 3.6 5 .1 1.4 1.5 0 5 3.6 8.6 0 10 1.4 6.4 5z"/>
    </symbol>
    <symbol viewBox="0 0 18 18" id="next">
      <g stroke="none" stroke-width="1" fill="none" fill-rule="evenodd">
        <g transform="translate(-1255.000000, -215.000000)" fill="#EDEDED">
          <path d="M1264,216.5 C1268.14214,216.5 1271.5,219.857864 1271.5,224 C1271.5,228.142136 1268.14214,231.5 1264,231.5 C1259.85786,231.5 1256.5,228.142136 1256.5,224 C1256.5,219.857864 1259.85786,216.5 1264,216.5 L1264,216.5 Z M1264,215.25 C1259.16751,215.25 1255.25,219.167508 1255.25,224 C1255.25,228.832492 1259.16751,232.75 1264,232.75 C1268.83249,232.75 1272.75,228.832492 1272.75,224 C1272.75,219.167508 1268.83249,215.25 1264,215.25 Z M1260.35502,224.334055 L1265.91465,224.334055 L1263.00667,227.242032 L1263.89056,228.125915 L1268.30997,223.706498 L1263.89498,219.2915 L1263.00225,220.166545 L1265.91907,223.08336 L1260.35944,223.08336 L1260.35502,224.334055 L1260.35502,224.334055 Z" id="Fill"></path>
        </g>
      </g>
    </symbol>
    <symbol viewBox="0 0 18 18" id="previous">
      <g stroke="none" stroke-width="1" fill="none" fill-rule="evenodd">
          <g transform="translate(-1225.000000, -215.000000)" fill="#EDEDED">
              <path d="M1234,216.5 C1238.14214,216.5 1241.5,219.857864 1241.5,224 C1241.5,228.142136 1238.14214,231.5 1234,231.5 C1229.85786,231.5 1226.5,228.142136 1226.5,224 C1226.5,219.857864 1229.85786,216.5 1234,216.5 L1234,216.5 Z M1234,215.25 C1229.16751,215.25 1225.25,219.167508 1225.25,224 C1225.25,228.832492 1229.16751,232.75 1234,232.75 C1238.83249,232.75 1242.75,228.832492 1242.75,224 C1242.75,219.167508 1238.83249,215.25 1234,215.25 Z M1230.35502,224.334055 L1235.91465,224.334055 L1233.00667,227.242032 L1233.89056,228.125915 L1238.30997,223.706498 L1233.89498,219.2915 L1233.00225,220.166545 L1235.91907,223.08336 L1230.35944,223.08336 L1230.35502,224.334055 L1230.35502,224.334055 Z" id="Fill" transform="translate(1234.000000, 224.000000) scale(-1, 1) translate(-1234.000000, -224.000000) "></path>
          </g>
      </g>
    </symbol>
    <symbol viewBox="0 0 18 12" id="undo">
      <g stroke="none" stroke-width="1" fill="none" fill-rule="evenodd">
          <g transform="translate(-827.000000, -218.000000)" fill="#EDEDED">
              <g transform="translate(827.000000, 218.000000)">
                  <path d="M14,5.3 C15.5,5.3 16.8,6.6 16.8,8 C16.8,9.5 15.5,10.7 14,10.7 L10,10.7 L10,12 L14,12 C16.3,12 18,10.3 18,8 C18,5.8 16.2,4 14,4 L2.4,4 L4.9,1.5 L4,0.6 L0,4.6 L4,8.6 L4.9,7.7 L2.4,5.3 L14,5.3 Z" id="Fill"></path>
              </g>
          </g>
      </g>
    </symbol>
    <symbol viewBox="0 0 18 12" id="redo">
      <g stroke="none" stroke-width="1" fill="none" fill-rule="evenodd">
          <g transform="translate(-857.000000, -218.000000)" fill="#EDEDED">
              <g transform="translate(857.000000, 218.000000)">
                  <path d="M4,5.3 C2.5,5.3 1.2,6.6 1.2,8 C1.2,9.5 2.5,10.7 4,10.7 L8,10.7 L8,12 L4,12 C1.7,12 0,10.3 0,8 C0,5.8 1.8,4 4,4 L15.6,4 L13.1,1.5 L14,0.6 L18,4.6 L14,8.6 L13.1,7.7 L15.6,5.2 L4,5.2 L4,5.3 Z" id="Fill"></path>
              </g>
          </g>
      </g>
    </symbol>
    <symbol viewBox="0 0 32 32" id="deploy">
      <path d="M5 6.6l1.2 1.1L11 3v13h2V3l4.8 4.7L19 6.6 12 0z"/>
      <path d="M22 14v6H2v-6H0v10h24V14z"/>
    </symbol>
    <symbol viewBox="5 5 29 29" id="success">
      <g transform="scale(1.60)">
        <g id="Topology" stroke="none" stroke-width="1" fill="none" fill-rule="evenodd">
            <g id="Artboard" transform="translate(-1473.000000, -1342.000000)">
                <g id="DeploySuccess" transform="translate(1473.000000, 1342.000000)">
                    <circle id="Oval" fill="#FFFFFF" cx="12" cy="12" r="10"></circle>
                    <g id="Icons-/-14px-/-check-circle" transform="translate(5.000000, 5.000000)">
                        <path d="M14,7 C14,8.26075283 13.6848117,9.42741935 13.0544355,10.5 C12.4240593,11.5725806 11.5725806,12.4240593 10.5,13.0544355 C9.42741935,13.6848117 8.26075283,14 7,14 C5.73924717,14 4.57258065,13.6848117 3.5,13.0544355 C2.42741935,12.4240593 1.57594072,11.5725806 0.945564516,10.5 C0.315188316,9.42741935 0,8.26075283 0,7 C0,5.73924717 0.315188316,4.57258065 0.945564516,3.5 C1.57594072,2.42741935 2.42741935,1.57594072 3.5,0.945564516 C4.57258065,0.315188316 5.73924717,0 7,0 C8.26075283,0 9.42741935,0.315188316 10.5,0.945564516 C11.5725806,1.57594072 12.4240593,2.42741935 13.0544355,3.5 C13.6848117,4.57258065 14,5.73924717 14,7 Z" id="check-circle" stroke="#108926"></path>
                        <path d="M6.18145161,10.6975806 L11.375,5.50403226 C11.4690859,5.4287633 11.516129,5.32526896 11.516129,5.19354839 C11.516129,5.06182781 11.4690859,4.95833348 11.375,4.88306452 L10.7540323,4.23387097 C10.6599464,4.13978509 10.5517472,4.09274194 10.4294355,4.09274194 C10.3071238,4.09274194 10.1989246,4.13978509 10.1048387,4.23387097 L5.87096774,8.46774194 L3.89516129,6.49193548 C3.80107541,6.39784961 3.6928762,6.35080645 3.57056452,6.35080645 C3.44825283,6.35080645 3.34005362,6.39784961 3.24596774,6.49193548 L2.625,7.14112903 C2.53091412,7.21639799 2.48387097,7.31989233 2.48387097,7.4516129 C2.48387097,7.58333348 2.53091412,7.68682781 2.625,7.76209677 L5.56048387,10.6975806 C5.63575283,10.7916665 5.73924717,10.8387097 5.87096774,10.8387097 C6.00268832,10.8387097 6.10618265,10.7916665 6.18145161,10.6975806 Z" id="Path" fill="#3E8635"></path>
                    </g>
                </g>
            </g>
        </g>
      </g>
    </symbol>
    <symbol viewBox="6 6 28 28" id="warning">
      <g transform="scale(1.68)">
        <g id="Topology" stroke="none" stroke-width="1" fill="none" fill-rule="evenodd">
            <g id="Artboard" transform="translate(-1474.000000, -1386.000000)">
                <g id="DeployWarning" transform="translate(1474.000000, 1386.000000)">
                    <circle id="Oval" fill="#FFFFFF" cx="12" cy="12" r="9"></circle>
                    <g id="Icons-/-14px-/-exclamation-triangle" transform="translate(5.000000, 5.000000)" fill="#F0AB00">
                        <path d="M13.8584965,10.7072806 C13.9882079,10.9667038 14.0287429,11.2301802 13.9801011,11.4977102 C13.9314593,11.7652402 13.8017479,11.9922352 13.5909665,12.1786956 C13.3801852,12.3651561 13.1288693,12.4583861 12.8370183,12.4583861 L1.16298166,12.4583861 C0.871130747,12.4583861 0.619814803,12.3651561 0.409033462,12.1786956 C0.19825212,11.9922352 0.0685407255,11.7652402 0.0198989061,11.4977102 C-0.0287429134,11.2301802 0.0117920599,10.9667038 0.141503455,10.7072806 L5.97852179,0.589782154 C6.12444725,0.330358993 6.33117498,0.156059387 6.59870499,0.0668825945 C6.866235,-0.0222941982 7.133765,-0.0222941982 7.40129501,0.0668825945 C7.66882502,0.156059387 7.87555275,0.330358993 8.02147821,0.589782154 L13.8584965,10.7072806 Z M7,8.61568237 C6.69193502,8.61568237 6.42845862,8.72512646 6.20957043,8.94401465 C5.99068225,9.16290284 5.88123815,9.42637923 5.88123815,9.73444421 C5.88123815,10.0425092 5.99068225,10.3059856 6.20957043,10.5248738 C6.42845862,10.743762 6.69193502,10.8532061 7,10.8532061 C7.30806498,10.8532061 7.57154138,10.743762 7.79042957,10.5248738 C8.00931775,10.3059856 8.11876185,10.0425092 8.11876185,9.73444421 C8.11876185,9.42637923 8.00931775,9.16290284 7.79042957,8.94401465 C7.57154138,8.72512646 7.30806498,8.61568237 7,8.61568237 Z M5.92987997,4.60273226 L6.12444725,7.91037598 C6.12444725,7.97523187 6.15282177,8.03603414 6.20957043,8.09278281 C6.2663191,8.14953147 6.33522859,8.17790599 6.41629817,8.17790599 L7.58370183,8.17790599 C7.66477141,8.17790599 7.7336809,8.14953147 7.79042957,8.09278281 C7.84717823,8.03603414 7.87555275,7.97523187 7.87555275,7.91037598 L8.07012003,4.60273226 C8.07012003,4.50544862 8.04174551,4.42843228 7.98499684,4.37168362 C7.92824818,4.31493495 7.85933869,4.28656043 7.77826911,4.28656043 L6.22173089,4.28656043 C6.14066131,4.28656043 6.07175182,4.31493495 6.01500316,4.37168362 C5.95825449,4.42843228 5.92987997,4.50544862 5.92987997,4.60273226 Z" id="exclamation-triangle"></path>
                    </g>
                </g>
            </g>
        </g>
      </g>
    </symbol>
    <symbol viewBox="6 6 28 28" id="failure">
      <g transform="scale(1.68)">
        <circle id="Oval" fill="#FFFFFF" cx="12" cy="12" r="9"></circle>
        <path d="M12,19 C15.8669355,19 19,15.8669355 19,12 C19,8.13306452 15.8669355,5 12,5 C8.13306452,5 5,8.13306452 5,12 C5,15.8669355 8.13306452,19 12,19 Z M9.68267232,15.432247 L8.56775296,14.3145161 C8.43508616,14.1818493 8.43508616,13.9673442 8.56775296,13.8346774 L10.4193548,12 L8.56775296,10.162511 C8.43508616,10.0298442 8.43508616,9.81531155 8.56775296,9.68267232 L9.68548387,8.56491384 C9.81815067,8.43224704 10.0326558,8.43224704 10.1653226,8.56491384 L12,10.4193548 L13.837489,8.56775296 C13.9701558,8.43508616 14.1846884,8.43508616 14.3173277,8.56775296 L15.4350862,9.68548387 C15.567753,9.81815067 15.567753,10.0326558 15.4350862,10.1653226 L13.5806452,12 L15.432247,13.837489 C15.5649138,13.9701558 15.5649138,14.1846884 15.432247,14.3173277 L14.3145161,15.432247 C14.1818493,15.5649138 13.9673442,15.5649138 13.8346774,15.432247 L12,13.5806452 L10.162511,15.432247 C10.0298442,15.5649138 9.81531155,15.5649138 9.68267232,15.432247 Z" id="times-circle" fill="#C9190B"></path>
      </g>
    </symbol>
    <symbol viewBox="0 0 16 16" id="running">
       <path d="M197.248626,287.247075 C195.905243,286.402995 194.405989,286 192.924438,286 C190.249988,286.00019 187.632884,287.31278 186.093411,289.712847 C185.552094,290.556927 185.192049,291.463285 185,292.387544 L186.51869,292.64713 C186.675909,291.914844 186.96456,291.197605 187.393111,290.529502 C188.600443,288.647463 190.668148,287.5238 192.924438,287.52361 C194.162367,287.52361 195.372201,287.872898 196.423468,288.533383 C199.469316,290.447037 200.373949,294.456416 198.440371,297.470688 C197.233039,299.352728 195.165334,300.47639 192.909044,300.47639 C191.671115,300.47639 190.461281,300.127293 189.410013,299.466808 C188.921038,299.15961 188.490948,298.796039 188.115509,298.393615 L186.952052,299.392722 C187.423708,299.903322 187.966372,300.364405 188.584856,300.753116 C189.928239,301.597196 191.427493,302 192.909044,302 C195.583493,302 198.200598,300.68722 199.740071,298.287343 C202.132412,294.557736 201.017064,289.614955 197.248626,287.247075" id="ProgressIndeterminate"></path>
    </symbol>
    <symbol viewBox="4 4 16 16" id="pending">
      <g id="Applications" stroke="none" stroke-width="1" fill="none" fill-rule="evenodd">
          <g id="2.1-App-9" transform="translate(-1151.000000, -1345.000000)">
              <g id="Group-3" transform="translate(72.000000, 579.000000)">
                  <g id="Group-20-Copy-2" transform="translate(1079.000000, 766.000000)">
                      <circle id="Oval" fill="#FFFFFF" cx="12" cy="12" r="9"></circle>
                      <g id="Icons/1.-Size-md-(16px)/Status/pficon-in-progress" transform="translate(6.000000, 6.000000)">
                          <path d="M5.9941349,12 C6.40860215,12 6.80938416,11.9609375 7.19648094,11.8828125 C7.58357771,11.8046875 7.96089932,11.6875 8.32844575,11.53125 C8.68817204,11.375 9.028348,11.1894531 9.34897361,10.9746094 C9.66959922,10.7597656 9.96285435,10.515625 10.228739,10.2421875 C10.5024438,9.96875 10.7468231,9.67382812 10.9618768,9.35742188 C11.1769306,9.04101562 11.3626588,8.69921875 11.5190616,8.33203125 C11.6832845,7.97265625 11.8044966,7.59765625 11.8826979,7.20703125 C11.9608993,6.81640625 12,6.4140625 12,6 C12,5.5859375 11.9608993,5.18554688 11.8826979,4.79882812 C11.8044966,4.41210938 11.6832845,4.03515625 11.5190616,3.66796875 C11.3626588,3.30859375 11.1769306,2.96875 10.9618768,2.6484375 C10.7468231,2.328125 10.5024438,2.03515625 10.228739,1.76953125 C9.96285435,1.49609375 9.66959922,1.25195312 9.34897361,1.03710938 C9.028348,0.822265625 8.68817204,0.63671875 8.32844575,0.48046875 C7.96089932,0.31640625 7.58357771,0.1953125 7.19648094,0.1171875 C6.80938416,0.0390625 6.40860215,0 5.9941349,0 L5.9941349,1.6171875 C6.2913001,1.625 6.58064516,1.65625 6.86217009,1.7109375 C7.14369501,1.765625 7.4173998,1.8515625 7.68328446,1.96875 C7.94916911,2.0859375 8.19745846,2.22265625 8.42815249,2.37890625 C8.65884653,2.53515625 8.87585533,2.71484375 9.07917889,2.91796875 C9.28250244,3.12109375 9.46236559,3.33789062 9.61876833,3.56835938 C9.77517107,3.79882812 9.91202346,4.046875 10.0293255,4.3125 C10.1466276,4.5859375 10.2346041,4.86523438 10.2932551,5.15039062 C10.3519062,5.43554688 10.3812317,5.7265625 10.3812317,6.0234375 C10.3812317,6.328125 10.3519062,6.62304688 10.2932551,6.90820312 C10.2346041,7.19335938 10.1466276,7.47265625 10.0293255,7.74609375 C9.91202346,8.01171875 9.77517107,8.26171875 9.61876833,8.49609375 C9.46236559,8.73046875 9.28250244,8.9453125 9.07917889,9.140625 C8.87585533,9.34375 8.65884653,9.5234375 8.42815249,9.6796875 C8.19745846,9.8359375 7.94916911,9.97265625 7.68328446,10.0898438 C7.40957967,10.2070312 7.13000978,10.2929688 6.84457478,10.3476562 C6.55913978,10.4023438 6.26783969,10.4296875 5.97067449,10.4296875 C5.71260997,10.4296875 5.46432063,10.4101562 5.22580645,10.3710938 C4.98729228,10.3320312 4.75464321,10.2734375 4.52785924,10.1953125 L3.74193548,11.5664062 C4.09384164,11.7148438 4.45747801,11.8242188 4.83284457,11.8945312 C5.20821114,11.9648438 5.59530792,12 5.9941349,12 Z M0,5.578125 L1.59530792,5.47265625 C1.61876833,5.26953125 1.65591398,5.07226563 1.70674487,4.88085938 C1.75757576,4.68945313 1.82209189,4.50390625 1.90029326,4.32421875 C1.92375367,4.26953125 1.94721408,4.21679688 1.97067449,4.16601563 C1.9941349,4.11523438 2.02150538,4.0625 2.05278592,4.0078125 L0.633431085,3.3046875 C0.602150538,3.359375 0.572825024,3.41796875 0.545454545,3.48046875 C0.518084066,3.54296875 0.492668622,3.60546875 0.469208211,3.66796875 C0.336265885,3.97265625 0.230694037,4.28320313 0.152492669,4.59960938 C0.0742913001,4.91601563 0.0234604106,5.2421875 0,5.578125 Z M2.26392962,10.6992188 L3.04985337,9.328125 C3.01857283,9.296875 2.98533724,9.26757813 2.95014663,9.24023438 C2.91495601,9.21289063 2.88172043,9.18359375 2.85043988,9.15234375 C2.65493646,8.94921875 2.47702835,8.73046875 2.31671554,8.49609375 C2.15640274,8.26171875 2.01759531,8.01171875 1.90029326,7.74609375 C1.86119257,7.65234375 1.82600196,7.55859375 1.79472141,7.46484375 C1.76344086,7.37109375 1.73607038,7.27734375 1.71260997,7.18359375 L0.129032258,7.2890625 C0.168132942,7.46875 0.215053763,7.64648438 0.269794721,7.82226563 C0.324535679,7.99804688 0.391006843,8.16796875 0.469208211,8.33203125 C0.625610948,8.69921875 0.811339198,9.04101563 1.02639296,9.35742188 C1.24144673,9.67382813 1.485826,9.96875 1.75953079,10.2421875 C1.83773216,10.328125 1.91788856,10.4082031 2,10.4824219 C2.08211144,10.5566406 2.17008798,10.6289063 2.26392962,10.6992188 Z" id="pficon-in-progress"  fill="#151515"></path>
                      </g>
                  </g>
              </g>
          </g>
      </g>
    </symbol>
    <symbol viewBox="8 8 24 24" id="pending_old">
      <g transform="scale(1.68)">
          <g id="Topology" stroke="none" stroke-width="1" fill="none" fill-rule="evenodd">
              <g id="Artboard" transform="translate(-1552.000000, -1357.000000)">
                  <g id="DeployPending" transform="translate(1552.000000, 1357.000000)">
                      <circle id="Oval" fill="#FFFFFF" cx="12" cy="12" r="5"></circle>
                      <g id="Organization-/-Status-/-undefined--filled-/-32" transform="translate(4.000000, 4.000000)">
                          <path d="M14.708,7.295 L8.705,1.2925 C8.51802505,1.10551734 8.26442797,1.00047092 8,1.00047092 C7.73557203,1.00047092 7.48197495,1.10551734 7.295,1.2925 L1.2925,7.295 C1.10554775,7.48188959 1.0005138,7.73540389 1.0005138,7.99975 C1.0005138,8.26409611 1.10554775,8.51761041 1.2925,8.7045 L7.295,14.708 C7.68429879,15.0970389 8.31520121,15.0970389 8.7045,14.708 L14.708,8.705 C14.8951053,8.51809015 15.0002364,8.26446867 15.0002364,8 C15.0002364,7.73553133 14.8951053,7.48190985 14.708,7.295 Z M10.5,9 L5.5,9 L5.5,7 L10.5,7 L10.5,9 Z" id="Fill" fill="#878D96"></path>
                          <polygon id="Inner-Fill" fill="#000000" opacity="0" points="5.5 7 10.5 7 10.5 9 5.5 9"></polygon>
                      </g>
                  </g>
              </g>
          </g>
      </g>
    </symbol>
    <symbol viewBox="0 0 16 16" id="inprogress">
       <circle fill="#FFFFFF" cx="7.5" cy="8.5" r="6.5"></circle>
       <path d="M8,16 C12.418278,16 16,12.418278 16,8 C16,3.581722 12.418278,0 8,0 C3.581722,0 0,3.581722 0,8 C0,12.418278 3.581722,16 8,16 Z M4,9 C4.55228475,9 5,8.55228475 5,8 C5,7.44771525 4.55228475,7 4,7 C3.44771525,7 3,7.44771525 3,8 C3,8.55228475 3.44771525,9 4,9 Z M8,9 C8.55228475,9 9,8.55228475 9,8 C9,7.44771525 8.55228475,7 8,7 C7.44771525,7 7,7.44771525 7,8 C7,8.55228475 7.44771525,9 8,9 Z M12,9 C12.5522847,9 13,8.55228475 13,8 C13,7.44771525 12.5522847,7 12,7 C11.4477153,7 11,7.44771525 11,8 C11,8.55228475 11.4477153,9 12,9 Z" id="Combined-Shape" fill="#EFC100"></path>
    </symbol>
    <symbol viewBox="0 0 16 16" id="canceled">
      <circle fill="#FFFFFF" cx="8.5" cy="8.5" r="4.5"></circle>
      <ellipse fill="#F19027" cx="8" cy="8" rx="8" ry="8"></ellipse>
      <polygon fill="#FFFFFF" transform="translate(8.085557, 8.085557) rotate(45.000000) translate(-8.085557, -8.085557) " points="8.81282959 8.81282959 8.81282959 11.7219205 7.35828414 11.7219205 7.35828414 8.81282959 4.44919323 8.81282959 4.44919323 7.35828414 7.35828414 7.35828414 7.35828414 4.44919323 8.81282959 4.44919323 8.81282959 7.35828414 11.7219205 7.35828414 11.7219205 8.81282959"></polygon>
    </symbol>
    <symbol viewBox="0 0 15 16" id="launch">
      <path d="M11.5808824,9.92647059 C10.7536765,9.92647059 9.98161765,10.3125 9.43014706,10.9742647 L5.40441176,8.4375 C5.56985294,7.94117647 5.56985294,7.44485294 5.40441176,7.00367647 L9.43014706,4.46691176 L9.43014706,4.46691176 C9.92647059,5.12867647 10.6985294,5.51470588 11.5808824,5.51470588 C13.125,5.51470588 14.3382353,4.30147059 14.3382353,2.75735294 C14.3382353,1.21323529 13.125,0 11.5808824,0 C10.0367647,0 8.82352941,1.21323529 8.82352941,2.75735294 C8.82352941,3.03308824 8.87867647,3.25367647 8.93382353,3.47426471 L8.93382353,3.47426471 L4.90808824,6.01102941 C3.97058824,4.79779412 2.20588235,4.63235294 1.04779412,5.56985294 C-0.165441176,6.50735294 -0.330882353,8.27205882 0.606617647,9.43014706 C1.54411765,10.6433824 3.30882353,10.8088235 4.46691176,9.87132353 C4.63235294,9.76102941 4.79779412,9.59558824 4.90808824,9.43014706 L8.93382353,11.9669118 C8.87867647,12.1875 8.82352941,12.4632353 8.82352941,12.6838235 C8.82352941,14.2279412 10.0367647,15.4411765 11.5808824,15.4411765 C13.125,15.4411765 14.3382353,14.2279412 14.3382353,12.6838235 C14.3382353,11.1397059 13.125,9.92647059 11.5808824,9.92647059 Z M11.5808824,1.10294118 C12.5183824,1.10294118 13.2352941,1.81985294 13.2352941,2.75735294 C13.2352941,3.69485294 12.5183824,4.41176471 11.5808824,4.41176471 C10.6433824,4.41176471 9.92647059,3.69485294 9.92647059,2.75735294 C9.92647059,1.81985294 10.6985294,1.10294118 11.5808824,1.10294118 Z M2.75735294,9.375 C1.81985294,9.375 1.10294118,8.65808824 1.10294118,7.72058824 C1.10294118,6.78308824 1.81985294,6.06617647 2.75735294,6.06617647 C3.69485294,6.06617647 4.41176471,6.78308824 4.41176471,7.72058824 C4.41176471,8.65808824 3.69485294,9.375 2.75735294,9.375 Z M11.5808824,14.3382353 C10.6433824,14.3382353 9.92647059,13.6213235 9.92647059,12.6838235 C9.92647059,11.7463235 10.6433824,11.0294118 11.5808824,11.0294118 C12.5183824,11.0294118 13.2352941,11.7463235 13.2352941,12.6838235 C13.2352941,13.6213235 12.5183824,14.3382353 11.5808824,14.3382353 Z"></path>
    </symbol>
    <symbol viewBox="0 0 14 10" id="arrowRight">
      <g id="Topology" stroke="none" stroke-width="1" fill="none" fill-rule="evenodd">
          <g id="App-Topology--Resource-Detail-01.00" transform="translate(-1189.000000, -689.000000)" fill="#3D70B2">
              <g id="Actions-/-Navigation-/-arrow--right-/-16" transform="translate(1188.000000, 686.000000)">
                  <polygon id="Fill" points="9.3 3.7 13.1 7.5 1 7.5 1 8.5 13.1 8.5 9.3 12.3 10 13 15 8 10 3"></polygon>
              </g>
          </g>
      </g>
    </symbol>
    <symbol viewBox="0 0 16 16" id="carbonLaunch">
      <g id="launch" fill="#3D70B2">
        <path id="Combined-Shape" d="M14.3,1h-3.8V0H16v5.5h-1V1.7L9.7,7L9,6.3L14.3,1z"/>
        <path id="Combined-Shape_1_" d="M14.3,1h-3.8V0H16v5.5h-1V1.7L9.7,7L9,6.3L14.3,1z"/>
        <path id="window" d="M13,9h1v6c0,0.6-0.4,1-1,1H1c-0.6,0-1-0.4-1-1V3c0-0.6,0.4-1,1-1h7v1H1v12h12V9z"/>
      </g>
    </symbol>
    <symbol viewBox="0 0 14 12" id="sidecar">
      <g id="Topology" stroke="none" stroke-width="1" fill="none" fill-rule="evenodd">
        <g id="App-Topology-6" transform="translate(-376.000000, -571.000000)" fill="#3D70B2">
            <g id="Organization-/-File-/-notebook-/-16" transform="translate(375.000000, 569.000000)">
                <path d="M9.5,5 L13,5 L13,6 L9.5,6 L9.5,5 Z M9.5,7.5 L13,7.5 L13,8.5 L9.5,8.5 L9.5,7.5 Z M9.5,10 L13,10 L13,11 L9.5,11 L9.5,10 Z M14,2.5 L2,2.5 C1.44794374,2.50055123 1.00055123,2.94794374 1,3.5 L1,12.5 C1.00055123,13.0520563 1.44794374,13.4994488 2,13.5 L14,13.5 C14.5519422,13.4991739 14.9991739,13.0519422 15,12.5 L15,3.5 C14.9994488,2.94794374 14.5520563,2.50055123 14,2.5 Z M2,3.5 L7.5,3.5 L7.5,12.5 L2,12.5 L2,3.5 Z M8.5,12.5 L8.5,3.5 L14,3.5 L14.001,12.5 L8.5,12.5 Z" id="Fill"></path>
            </g>
        </g>
      </g>
    </symbol>
    <symbol viewBox="0 0 12 8" id="clusterCount">
      <rect width="100%" height="100%" stroke="white" fill="black" stroke-width="1"/>
    </symbol>
    <svg viewBox="0 0 1024 1024" id="open-new-tab">
      <title>open-new-tab</title>
      <g id="open-new-tab" stroke="none" stroke-width="1" fill="none" fill-rule="evenodd">
          <path d="M576,320 L896,320 L896,192 L576,192 L576,320 Z M128,320 L448,320 L448,192 L128,192 L128,320 Z M930,64 L896,64 L128,64 L94,64 C42.085,64 0,106.085 0,158 L0,192 L0,832 L0,866 C0,917.915 42.085,960 94,960 L128,960 L488,960 C501.255,960 512,949.255 512,936 L512,856 C512,842.745 501.255,832 488,832 L140,832 C133.373,832 128,826.627 128,820 L128,448 L896,448 L896,552 C896,565.255 906.745,576 920,576 L1000,576 C1013.255,576 1024,565.255 1024,552 L1024,158 C1024,106.085 981.915,64 930,64 L930,64 Z" id="Fill-1" fill="#0066CC"></path>
          <path d="M968,784 L848,784 L848,664 C848,650.7 837.3,640 824,640 L776,640 C762.7,640 752,650.7 752,664 L752,784 L632,784 C618.7,784 608,794.7 608,808 L608,856 C608,869.3 618.7,880 632,880 L752,880 L752,1000 C752,1013.3 762.7,1024 776,1024 L824,1024 C837.3,1024 848,1013.3 848,1000 L848,880 L968,880 C981.3,880 992,869.3 992,856 L992,808 C992,794.7 981.3,784 968,784" id="Fill-3" fill="#0066CC"></path>
      </g>
    </svg>
</svg>
