<?xml version="1.0" encoding="UTF-8"?>
<svg width="17px" height="13px" viewBox="0 0 17 13" version="1.1" xmlns="http://www.w3.org/2000/svg" xmlns:xlink="http://www.w3.org/1999/xlink">
    <!-- Generator: Sketch 63.1 (92452) - https://sketch.com -->
    <title>RHACM-Favicon</title>
    <desc>Created with Sketch.</desc>
    <g id="Colors,-fonts,-etc" stroke="none" stroke-width="1" fill="none" fill-rule="evenodd">
        <g id="RHACM-Favicon" transform="translate(0.500000, 0.500000)" fill-rule="nonzero">
            <path d="M10.6362304,6.95204188 C11.6841885,6.95204188 13.2004188,6.73591623 13.2004188,5.48942408 C13.203552,5.39322288 13.1948302,5.29700184 13.1744503,5.20293194 L12.5503665,2.4921466 C12.4062827,1.89570681 12.2797906,1.62513089 11.2326702,1.10157068 C10.4201047,0.686073298 8.65005236,0 8.12649215,0 C7.63895288,0 7.4973822,0.628272251 6.91602094,0.628272251 C6.35643979,0.628272251 5.94094241,0.159162304 5.4173822,0.159162304 C4.9147644,0.159162304 4.58722513,0.501780105 4.33424084,1.20628272 C4.33424084,1.20628272 3.62973822,3.19329843 3.53926702,3.48146597 C3.52488741,3.53438309 3.51867267,3.58918574 3.5208377,3.64397906 C3.5208377,4.41633508 6.56167539,6.9486911 10.6362304,6.9486911 M13.3612565,5.99539267 C13.506178,6.68146597 13.506178,6.75350785 13.506178,6.84397906 C13.506178,8.01675393 12.187644,8.66764398 10.4544503,8.66764398 C6.5373822,8.67015707 3.10617801,6.37486911 3.10617801,4.85780105 C3.10595157,4.64663182 3.14900113,4.43765617 3.23267016,4.24376963 C1.82366492,4.31413613 -4.76175237e-15,4.56544503 -4.76175237e-15,6.17549738 C-4.76175237e-15,8.81256545 6.24837696,12.0628272 11.1958115,12.0628272 C14.9889005,12.0628272 15.9455497,10.3472251 15.9455497,8.99267016 C15.9455497,7.92712042 15.0240838,6.71748691 13.3629319,5.99539267" id="Shape" fill="#EE0000"></path>
            <path d="M13.3612565,5.99539267 C13.506178,6.68146597 13.506178,6.75350785 13.506178,6.84397906 C13.506178,8.01675393 12.187644,8.66764604 10.4544503,8.66764604 C6.5373822,8.67015707 3.10617712,6.37486911 3.10617712,4.85780105 C3.10595157,4.64663182 3.14900113,4.43765617 3.23267016,4.24376963 L3.53926702,3.48481675 C3.52522329,3.53665537 3.51901147,3.59030287 3.5208377,3.64397906 C3.5208377,4.41633508 6.56167539,6.9486911 10.6362304,6.9486911 C11.6841885,6.9486911 13.2004188,6.73256545 13.2004188,5.4860733 C13.203552,5.3898721 13.1948302,5.29365105 13.1744503,5.19958115 L13.3612565,5.99539267 Z" id="Path" fill="#000000"></path>
        </g>
    </g>
</svg>