<svg width="17" height="17" xmlns="http://www.w3.org/2000/svg"><g fill-rule="nonzero" fill="none"><path d="M11.136 7.452c1.048 0 2.564-.216 2.564-1.463a1.173 1.173 0 00-.026-.286l-.624-2.71c-.144-.597-.27-.868-1.317-1.391C10.92 1.186 9.15.5 8.626.5c-.487 0-.629.628-1.21.628-.56 0-.975-.469-1.499-.469-.502 0-.83.343-1.083 1.047 0 0-.704 1.987-.795 2.275a.539.539 0 00-.018.163c0 .772 3.04 3.305 7.115 3.305m2.725-.954c.145.686.145.759.145.849 0 1.173-1.318 1.824-3.052 1.824-3.917.002-7.348-2.293-7.348-3.81 0-.211.043-.42.127-.614C2.323 4.814.5 5.065.5 6.675c0 2.638 6.248 5.888 11.196 5.888 3.793 0 4.75-1.716 4.75-3.07 0-1.066-.922-2.276-2.583-2.998" fill="#E00"/><path d="M13.861 6.495c.145.686.145.759.145.849 0 1.173-1.318 1.824-3.052 1.824-3.917.002-7.348-2.293-7.348-3.81 0-.211.043-.42.127-.614l.306-.76a.539.539 0 00-.018.16c0 .772 3.04 3.305 7.115 3.305 1.048 0 2.564-.216 2.564-1.463a1.173 1.173 0 00-.026-.286l.187.795z" fill="#000"/></g></svg>